M48
; DRILL file {KiCad 9.0.1} date 2026-01-19T14:20:06-0500
; FORMAT={-:-/ absolute / metric / decimal}
; #@! TF.CreationDate,2026-01-19T14:20:06-05:00
; #@! TF.GenerationSoftware,Kicad,Pcbnew,9.0.1
; #@! TF.FileFunction,Plated,1,2,PTH
FMAT,2
METRIC
; #@! TA.AperFunction,Plated,PTH,ViaDrill
T1C0.200
; #@! TA.AperFunction,Plated,PTH,ComponentDrill
T2C0.750
; #@! TA.AperFunction,Plated,PTH,ComponentDrill
T3C1.000
; #@! TA.AperFunction,Plated,PTH,ComponentDrill
T4C1.016
; #@! TA.AperFunction,Plated,PTH,ComponentDrill
T5C1.300
%
G90
G05
T1
X71.6Y-62.1
X87.1Y-59.5
X89.3Y-65.1
X92.7Y-64.6
X96.8Y-58.6
X101.2Y-56.4
X101.2Y-98.4
X101.2Y-104.4
X107.2Y-56.4
X107.2Y-62.4
X107.2Y-68.4
X107.2Y-74.4
X107.2Y-80.4
X107.2Y-86.4
X107.2Y-98.4
X107.2Y-104.4
X107.2Y-110.4
X107.2Y-116.4
X107.2Y-122.4
X113.2Y-56.4
X113.2Y-62.4
X113.2Y-68.4
X113.2Y-74.4
X113.2Y-80.4
X113.2Y-86.4
X113.2Y-116.4
X113.2Y-122.4
X113.2Y-128.4
X113.4Y-91.412
X114.6Y-114.3
X114.9Y-103.4
X118.4Y-72.3
X118.5Y-103.0
X118.7Y-99.5
X119.2Y-56.4
X119.2Y-62.4
X119.2Y-68.4
X119.2Y-92.4
X119.2Y-122.4
X119.9Y-60.5
X121.2Y-104.1
X121.2Y-124.5
X121.4Y-96.0
X122.0Y-78.3
X123.0Y-78.3
X124.282Y-118.02
X124.6Y-62.4
X125.2Y-56.4
X125.2Y-116.4
X125.2Y-134.4
X126.1Y-77.8
X126.2Y-109.1
X130.2Y-105.6
X131.2Y-56.4
X131.2Y-80.4
X131.2Y-92.4
X131.2Y-116.4
X131.2Y-134.4
X131.6Y-74.6
X131.7Y-76.0
X133.3Y-62.4
X137.2Y-56.4
X137.2Y-86.4
X137.2Y-134.4
X137.4Y-111.1
X137.5Y-61.0
X138.2Y-77.3
X138.2Y-78.5
X138.2Y-79.9
X138.2Y-81.2
X143.2Y-56.4
X143.2Y-86.4
X143.2Y-92.4
X143.2Y-98.4
X143.2Y-104.4
X143.2Y-110.4
X143.2Y-128.4
X143.2Y-134.4
X144.7Y-122.6
X149.2Y-56.4
X149.2Y-116.4
X149.2Y-122.4
X149.2Y-128.4
X149.2Y-134.4
X155.0Y-62.5
X155.2Y-56.4
X155.2Y-128.4
X159.1Y-99.0
X159.4Y-61.0
X161.2Y-56.4
X161.2Y-86.4
X161.2Y-104.4
X161.2Y-110.4
X161.2Y-116.4
X161.2Y-122.4
X161.2Y-128.4
X162.5Y-71.2
X163.7Y-62.4
X164.2Y-72.2
X167.2Y-56.4
X167.2Y-68.4
X167.2Y-116.4
X167.2Y-122.4
X167.9Y-71.2
X169.5Y-72.3
X172.0Y-73.5
X173.2Y-56.4
X173.2Y-80.4
X173.2Y-110.4
X173.2Y-116.4
X173.2Y-122.4
X173.2Y-134.4
X174.7Y-74.5
X179.2Y-56.4
X179.2Y-74.4
X179.2Y-80.4
X179.2Y-86.4
X179.2Y-92.4
X179.2Y-98.4
X179.2Y-104.4
X179.2Y-116.4
X181.3Y-62.6
X181.69Y-118.58
X185.2Y-56.4
X185.2Y-68.4
X185.2Y-74.4
X185.2Y-80.4
X185.2Y-86.4
X185.2Y-92.4
X185.2Y-98.4
X185.2Y-104.4
X185.2Y-110.4
X185.2Y-116.4
X185.2Y-122.4
X185.4Y-60.9
X185.9Y-108.3
X191.2Y-56.4
X191.2Y-68.4
X191.2Y-74.4
X191.2Y-86.4
X191.2Y-92.4
X191.2Y-98.4
X191.2Y-104.4
X191.2Y-110.4
X191.2Y-116.4
X191.2Y-128.4
X194.92Y-60.67
X197.2Y-56.4
X197.2Y-68.4
X197.2Y-74.4
X197.2Y-80.4
X197.2Y-86.4
X197.2Y-92.4
X197.2Y-98.4
X197.2Y-110.4
X197.2Y-116.4
X197.2Y-122.4
X203.2Y-56.4
X203.2Y-62.4
X203.2Y-74.4
X203.2Y-80.4
X203.2Y-86.4
X203.2Y-92.4
X203.2Y-98.4
X203.2Y-104.4
X203.2Y-110.4
X209.3Y-58.1
X212.2Y-67.4
X213.3Y-62.8
X219.2Y-58.7
X226.6Y-64.2
X234.1Y-61.1
T2
X188.56Y-78.2
X189.83Y-78.2
X191.1Y-78.2
T3
X68.75Y-58.75
X68.75Y-63.25
X75.25Y-58.75
X75.25Y-63.25
X83.75Y-57.712
X83.75Y-62.212
X90.25Y-57.712
X90.25Y-62.212
X96.75Y-64.812
X96.75Y-69.312
X101.75Y-101.85
X101.75Y-106.35
X103.25Y-64.812
X103.25Y-69.312
X108.25Y-101.85
X108.25Y-106.35
X108.7Y-89.56
X108.7Y-92.1
X146.55Y-69.0
X146.55Y-84.24
X149.09Y-69.0
X149.09Y-84.24
X151.63Y-69.0
X151.63Y-84.24
X154.17Y-69.0
X154.17Y-84.24
X156.71Y-69.0
X156.71Y-84.24
X159.25Y-69.0
X159.25Y-84.24
X180.0Y-108.3
X187.6Y-108.3
X197.25Y-101.75
X197.25Y-106.25
X202.75Y-64.712
X202.75Y-69.212
X203.75Y-101.75
X203.75Y-106.25
X209.25Y-64.712
X209.25Y-69.212
X215.75Y-57.712
X215.75Y-62.212
X222.25Y-57.712
X222.25Y-62.212
X230.75Y-58.712
X230.75Y-63.212
X237.25Y-58.712
X237.25Y-63.212
T4
X141.308Y-95.0
X141.308Y-97.54
X141.308Y-100.08
X141.308Y-102.62
X141.308Y-105.16
X141.308Y-107.7
X141.308Y-110.24
X141.308Y-112.78
X141.308Y-115.32
X141.308Y-117.86
X141.308Y-120.4
X141.308Y-122.94
X141.308Y-125.48
X141.308Y-128.02
X141.308Y-130.56
X141.308Y-133.1
X164.167Y-95.0
X164.167Y-97.54
X164.167Y-100.08
X164.167Y-102.62
X164.167Y-105.16
X164.167Y-107.7
X164.167Y-110.24
X164.167Y-112.78
X164.167Y-115.32
X164.167Y-117.86
X164.167Y-120.4
X164.167Y-122.94
X164.167Y-125.48
X164.167Y-128.02
X164.167Y-130.56
X164.167Y-133.1
T5
X125.0Y-132.0
X127.5Y-122.0
X130.0Y-132.0
X175.9Y-132.0
X178.4Y-122.0
X180.9Y-132.0
M30
