%TF.GenerationSoftware,KiCad,Pcbnew,9.0.1*%
%TF.CreationDate,2026-02-02T11:40:33-05:00*%
%TF.ProjectId,Volante Maquinillo,566f6c61-6e74-4652-904d-617175696e69,rev?*%
%TF.SameCoordinates,Original*%
%TF.FileFunction,Legend,Bot*%
%TF.FilePolarity,Positive*%
%FSLAX46Y46*%
G04 Gerber Fmt 4.6, Leading zero omitted, Abs format (unit mm)*
G04 Created by KiCad (PCBNEW 9.0.1) date 2026-02-02 11:40:33*
%MOMM*%
%LPD*%
G01*
G04 APERTURE LIST*
%ADD10C,0.180000*%
%ADD11C,0.600000*%
%ADD12C,0.120000*%
G04 APERTURE END LIST*
D10*
X114596762Y-130226391D02*
X114260044Y-129889673D01*
X114462075Y-130495765D02*
X114933479Y-129552956D01*
X114933479Y-129552956D02*
X113990670Y-130024360D01*
X113350907Y-129384597D02*
X113923327Y-129283582D01*
X113754968Y-129788658D02*
X114462075Y-129081551D01*
X114462075Y-129081551D02*
X114192701Y-128812177D01*
X114192701Y-128812177D02*
X114091685Y-128778505D01*
X114091685Y-128778505D02*
X114024342Y-128778505D01*
X114024342Y-128778505D02*
X113923327Y-128812177D01*
X113923327Y-128812177D02*
X113822311Y-128913192D01*
X113822311Y-128913192D02*
X113788639Y-129014208D01*
X113788639Y-129014208D02*
X113788639Y-129081551D01*
X113788639Y-129081551D02*
X113822311Y-129182566D01*
X113822311Y-129182566D02*
X114091685Y-129451940D01*
X112711143Y-128744834D02*
X113047861Y-129081551D01*
X113047861Y-129081551D02*
X113754968Y-128374444D01*
X112845830Y-128138742D02*
X112610128Y-127903040D01*
X112138724Y-128172414D02*
X112475441Y-128509131D01*
X112475441Y-128509131D02*
X113182548Y-127802024D01*
X113182548Y-127802024D02*
X112845830Y-127465307D01*
X111903021Y-127869368D02*
X111768334Y-127802024D01*
X111768334Y-127802024D02*
X111599975Y-127633666D01*
X111599975Y-127633666D02*
X111566304Y-127532650D01*
X111566304Y-127532650D02*
X111566304Y-127465307D01*
X111566304Y-127465307D02*
X111599975Y-127364292D01*
X111599975Y-127364292D02*
X111667319Y-127296948D01*
X111667319Y-127296948D02*
X111768334Y-127263276D01*
X111768334Y-127263276D02*
X111835678Y-127263276D01*
X111835678Y-127263276D02*
X111936693Y-127296948D01*
X111936693Y-127296948D02*
X112105052Y-127397963D01*
X112105052Y-127397963D02*
X112206067Y-127431635D01*
X112206067Y-127431635D02*
X112273410Y-127431635D01*
X112273410Y-127431635D02*
X112374426Y-127397963D01*
X112374426Y-127397963D02*
X112441769Y-127330620D01*
X112441769Y-127330620D02*
X112475441Y-127229605D01*
X112475441Y-127229605D02*
X112475441Y-127162261D01*
X112475441Y-127162261D02*
X112441769Y-127061246D01*
X112441769Y-127061246D02*
X112273410Y-126892887D01*
X112273410Y-126892887D02*
X112138723Y-126825544D01*
X111970365Y-126589841D02*
X111566304Y-126185780D01*
X111061227Y-127094918D02*
X111768334Y-126387811D01*
X110993884Y-126286795D02*
X110758181Y-126051093D01*
X110286777Y-126320467D02*
X110623494Y-126657185D01*
X110623494Y-126657185D02*
X111330601Y-125950078D01*
X111330601Y-125950078D02*
X110993884Y-125613360D01*
X109579670Y-125613360D02*
X110152090Y-125512345D01*
X109983731Y-126017421D02*
X110690838Y-125310314D01*
X110690838Y-125310314D02*
X110421464Y-125040940D01*
X110421464Y-125040940D02*
X110320449Y-125007269D01*
X110320449Y-125007269D02*
X110253105Y-125007269D01*
X110253105Y-125007269D02*
X110152090Y-125040940D01*
X110152090Y-125040940D02*
X110051075Y-125141956D01*
X110051075Y-125141956D02*
X110017403Y-125242971D01*
X110017403Y-125242971D02*
X110017403Y-125310314D01*
X110017403Y-125310314D02*
X110051075Y-125411330D01*
X110051075Y-125411330D02*
X110320449Y-125680704D01*
X108737876Y-124704223D02*
X108704204Y-124737895D01*
X108704204Y-124737895D02*
X108670533Y-124838910D01*
X108670533Y-124838910D02*
X108670533Y-124906253D01*
X109175609Y-124333834D02*
X109108265Y-124333834D01*
X109108265Y-124333834D02*
X109108265Y-124401177D01*
X109108265Y-124401177D02*
X109175609Y-124401177D01*
X109175609Y-124401177D02*
X109175609Y-124333834D01*
X109175609Y-124333834D02*
X109108265Y-124401177D01*
X108199128Y-124771567D02*
X108199128Y-124704223D01*
X108199128Y-124704223D02*
X108232800Y-124535864D01*
X108232800Y-124535864D02*
X108266472Y-124434849D01*
X108266472Y-124434849D02*
X108333815Y-124300162D01*
X108333815Y-124300162D02*
X108468502Y-124098132D01*
X108468502Y-124098132D02*
X108603189Y-123963445D01*
X108603189Y-123963445D02*
X108805220Y-123828758D01*
X108805220Y-123828758D02*
X108939907Y-123761414D01*
X108939907Y-123761414D02*
X109040922Y-123727742D01*
X109040922Y-123727742D02*
X109209281Y-123694071D01*
X109209281Y-123694071D02*
X109276624Y-123694071D01*
D11*
X168400978Y-61180228D02*
X167400978Y-61180228D01*
X166972406Y-62751657D02*
X168400978Y-62751657D01*
X168400978Y-62751657D02*
X168400978Y-59751657D01*
X168400978Y-59751657D02*
X166972406Y-59751657D01*
X164258120Y-62751657D02*
X165686692Y-62751657D01*
X165686692Y-62751657D02*
X165686692Y-59751657D01*
X160972407Y-62751657D02*
X160972407Y-59751657D01*
X160972407Y-59751657D02*
X159972407Y-61894514D01*
X159972407Y-61894514D02*
X158972407Y-59751657D01*
X158972407Y-59751657D02*
X158972407Y-62751657D01*
X157686693Y-61894514D02*
X156258122Y-61894514D01*
X157972407Y-62751657D02*
X156972407Y-59751657D01*
X156972407Y-59751657D02*
X155972407Y-62751657D01*
X152972407Y-63037371D02*
X153258121Y-62894514D01*
X153258121Y-62894514D02*
X153543835Y-62608800D01*
X153543835Y-62608800D02*
X153972407Y-62180228D01*
X153972407Y-62180228D02*
X154258121Y-62037371D01*
X154258121Y-62037371D02*
X154543835Y-62037371D01*
X154400978Y-62751657D02*
X154686693Y-62608800D01*
X154686693Y-62608800D02*
X154972407Y-62323085D01*
X154972407Y-62323085D02*
X155115264Y-61751657D01*
X155115264Y-61751657D02*
X155115264Y-60751657D01*
X155115264Y-60751657D02*
X154972407Y-60180228D01*
X154972407Y-60180228D02*
X154686693Y-59894514D01*
X154686693Y-59894514D02*
X154400978Y-59751657D01*
X154400978Y-59751657D02*
X153829550Y-59751657D01*
X153829550Y-59751657D02*
X153543835Y-59894514D01*
X153543835Y-59894514D02*
X153258121Y-60180228D01*
X153258121Y-60180228D02*
X153115264Y-60751657D01*
X153115264Y-60751657D02*
X153115264Y-61751657D01*
X153115264Y-61751657D02*
X153258121Y-62323085D01*
X153258121Y-62323085D02*
X153543835Y-62608800D01*
X153543835Y-62608800D02*
X153829550Y-62751657D01*
X153829550Y-62751657D02*
X154400978Y-62751657D01*
X151829550Y-59751657D02*
X151829550Y-62180228D01*
X151829550Y-62180228D02*
X151686693Y-62465942D01*
X151686693Y-62465942D02*
X151543836Y-62608800D01*
X151543836Y-62608800D02*
X151258121Y-62751657D01*
X151258121Y-62751657D02*
X150686693Y-62751657D01*
X150686693Y-62751657D02*
X150400978Y-62608800D01*
X150400978Y-62608800D02*
X150258121Y-62465942D01*
X150258121Y-62465942D02*
X150115264Y-62180228D01*
X150115264Y-62180228D02*
X150115264Y-59751657D01*
X148686693Y-62751657D02*
X148686693Y-59751657D01*
X147258122Y-62751657D02*
X147258122Y-59751657D01*
X147258122Y-59751657D02*
X145543836Y-62751657D01*
X145543836Y-62751657D02*
X145543836Y-59751657D01*
X144115265Y-62751657D02*
X144115265Y-59751657D01*
X141258122Y-62751657D02*
X142686694Y-62751657D01*
X142686694Y-62751657D02*
X142686694Y-59751657D01*
X138829551Y-62751657D02*
X140258123Y-62751657D01*
X140258123Y-62751657D02*
X140258123Y-59751657D01*
X137258123Y-59751657D02*
X136686695Y-59751657D01*
X136686695Y-59751657D02*
X136400980Y-59894514D01*
X136400980Y-59894514D02*
X136115266Y-60180228D01*
X136115266Y-60180228D02*
X135972409Y-60751657D01*
X135972409Y-60751657D02*
X135972409Y-61751657D01*
X135972409Y-61751657D02*
X136115266Y-62323085D01*
X136115266Y-62323085D02*
X136400980Y-62608800D01*
X136400980Y-62608800D02*
X136686695Y-62751657D01*
X136686695Y-62751657D02*
X137258123Y-62751657D01*
X137258123Y-62751657D02*
X137543838Y-62608800D01*
X137543838Y-62608800D02*
X137829552Y-62323085D01*
X137829552Y-62323085D02*
X137972409Y-61751657D01*
X137972409Y-61751657D02*
X137972409Y-60751657D01*
X137972409Y-60751657D02*
X137829552Y-60180228D01*
X137829552Y-60180228D02*
X137543838Y-59894514D01*
X137543838Y-59894514D02*
X137258123Y-59751657D01*
D10*
X190546666Y-80138020D02*
X190594285Y-80185640D01*
X190594285Y-80185640D02*
X190737142Y-80233259D01*
X190737142Y-80233259D02*
X190832380Y-80233259D01*
X190832380Y-80233259D02*
X190975237Y-80185640D01*
X190975237Y-80185640D02*
X191070475Y-80090401D01*
X191070475Y-80090401D02*
X191118094Y-79995163D01*
X191118094Y-79995163D02*
X191165713Y-79804687D01*
X191165713Y-79804687D02*
X191165713Y-79661830D01*
X191165713Y-79661830D02*
X191118094Y-79471354D01*
X191118094Y-79471354D02*
X191070475Y-79376116D01*
X191070475Y-79376116D02*
X190975237Y-79280878D01*
X190975237Y-79280878D02*
X190832380Y-79233259D01*
X190832380Y-79233259D02*
X190737142Y-79233259D01*
X190737142Y-79233259D02*
X190594285Y-79280878D01*
X190594285Y-79280878D02*
X190546666Y-79328497D01*
X189594285Y-80233259D02*
X190165713Y-80233259D01*
X189879999Y-80233259D02*
X189879999Y-79233259D01*
X189879999Y-79233259D02*
X189975237Y-79376116D01*
X189975237Y-79376116D02*
X190070475Y-79471354D01*
X190070475Y-79471354D02*
X190165713Y-79518973D01*
X189925238Y-77298497D02*
X190020476Y-77250878D01*
X190020476Y-77250878D02*
X190115714Y-77155640D01*
X190115714Y-77155640D02*
X190258571Y-77012782D01*
X190258571Y-77012782D02*
X190353809Y-76965163D01*
X190353809Y-76965163D02*
X190449047Y-76965163D01*
X190401428Y-77203259D02*
X190496666Y-77155640D01*
X190496666Y-77155640D02*
X190591904Y-77060401D01*
X190591904Y-77060401D02*
X190639523Y-76869925D01*
X190639523Y-76869925D02*
X190639523Y-76536592D01*
X190639523Y-76536592D02*
X190591904Y-76346116D01*
X190591904Y-76346116D02*
X190496666Y-76250878D01*
X190496666Y-76250878D02*
X190401428Y-76203259D01*
X190401428Y-76203259D02*
X190210952Y-76203259D01*
X190210952Y-76203259D02*
X190115714Y-76250878D01*
X190115714Y-76250878D02*
X190020476Y-76346116D01*
X190020476Y-76346116D02*
X189972857Y-76536592D01*
X189972857Y-76536592D02*
X189972857Y-76869925D01*
X189972857Y-76869925D02*
X190020476Y-77060401D01*
X190020476Y-77060401D02*
X190115714Y-77155640D01*
X190115714Y-77155640D02*
X190210952Y-77203259D01*
X190210952Y-77203259D02*
X190401428Y-77203259D01*
X189020476Y-77203259D02*
X189591904Y-77203259D01*
X189306190Y-77203259D02*
X189306190Y-76203259D01*
X189306190Y-76203259D02*
X189401428Y-76346116D01*
X189401428Y-76346116D02*
X189496666Y-76441354D01*
X189496666Y-76441354D02*
X189591904Y-76488973D01*
D12*
%TO.C,C1*%
X190641252Y-80725000D02*
X190118748Y-80725000D01*
X190641252Y-82195000D02*
X190118748Y-82195000D01*
%TO.C,Q1*%
X187710000Y-77550000D02*
X187710000Y-78500000D01*
X187860000Y-78650000D02*
X187710000Y-78500000D01*
X188510000Y-79300000D02*
X188260000Y-79050000D01*
X191110000Y-79300000D02*
X188510000Y-79300000D01*
X191110000Y-79300000D02*
X191360000Y-79050000D01*
X191810000Y-78650000D02*
X191960000Y-78500000D01*
X191960000Y-78500000D02*
X191960000Y-77550000D01*
%TD*%
M02*
