%TF.GenerationSoftware,KiCad,Pcbnew,9.0.1*%
%TF.CreationDate,2026-02-02T11:40:33-05:00*%
%TF.ProjectId,Volante Maquinillo,566f6c61-6e74-4652-904d-617175696e69,rev?*%
%TF.SameCoordinates,Original*%
%TF.FileFunction,Copper,L2,Bot*%
%TF.FilePolarity,Positive*%
%FSLAX46Y46*%
G04 Gerber Fmt 4.6, Leading zero omitted, Abs format (unit mm)*
G04 Created by KiCad (PCBNEW 9.0.1) date 2026-02-02 11:40:33*
%MOMM*%
%LPD*%
G01*
G04 APERTURE LIST*
G04 Aperture macros list*
%AMRoundRect*
0 Rectangle with rounded corners*
0 $1 Rounding radius*
0 $2 $3 $4 $5 $6 $7 $8 $9 X,Y pos of 4 corners*
0 Add a 4 corners polygon primitive as box body*
4,1,4,$2,$3,$4,$5,$6,$7,$8,$9,$2,$3,0*
0 Add four circle primitives for the rounded corners*
1,1,$1+$1,$2,$3*
1,1,$1+$1,$4,$5*
1,1,$1+$1,$6,$7*
1,1,$1+$1,$8,$9*
0 Add four rect primitives between the rounded corners*
20,1,$1+$1,$2,$3,$4,$5,0*
20,1,$1+$1,$4,$5,$6,$7,0*
20,1,$1+$1,$6,$7,$8,$9,0*
20,1,$1+$1,$8,$9,$2,$3,0*%
G04 Aperture macros list end*
%TA.AperFunction,ComponentPad*%
%ADD10R,1.508000X1.508000*%
%TD*%
%TA.AperFunction,ComponentPad*%
%ADD11C,1.508000*%
%TD*%
%TA.AperFunction,ComponentPad*%
%ADD12R,1.700000X1.700000*%
%TD*%
%TA.AperFunction,ComponentPad*%
%ADD13C,1.700000*%
%TD*%
%TA.AperFunction,ComponentPad*%
%ADD14C,2.340000*%
%TD*%
%TA.AperFunction,ComponentPad*%
%ADD15R,1.524000X1.524000*%
%TD*%
%TA.AperFunction,ComponentPad*%
%ADD16C,1.524000*%
%TD*%
%TA.AperFunction,ComponentPad*%
%ADD17R,2.000000X2.000000*%
%TD*%
%TA.AperFunction,ComponentPad*%
%ADD18C,2.000000*%
%TD*%
%TA.AperFunction,ComponentPad*%
%ADD19R,1.500000X1.500000*%
%TD*%
%TA.AperFunction,ComponentPad*%
%ADD20C,1.500000*%
%TD*%
%TA.AperFunction,SMDPad,CuDef*%
%ADD21RoundRect,0.250000X0.250000X0.475000X-0.250000X0.475000X-0.250000X-0.475000X0.250000X-0.475000X0*%
%TD*%
%TA.AperFunction,ComponentPad*%
%ADD22RoundRect,0.249900X0.275100X0.400100X-0.275100X0.400100X-0.275100X-0.400100X0.275100X-0.400100X0*%
%TD*%
%TA.AperFunction,ComponentPad*%
%ADD23O,1.050000X1.300000*%
%TD*%
%TA.AperFunction,ViaPad*%
%ADD24C,0.500000*%
%TD*%
%TA.AperFunction,Conductor*%
%ADD25C,0.250000*%
%TD*%
%TA.AperFunction,Conductor*%
%ADD26C,0.300000*%
%TD*%
%TA.AperFunction,Conductor*%
%ADD27C,0.400000*%
%TD*%
%TA.AperFunction,Conductor*%
%ADD28C,0.500000*%
%TD*%
%TA.AperFunction,Conductor*%
%ADD29C,0.200000*%
%TD*%
G04 APERTURE END LIST*
D10*
%TO.P,SW1,1,A*%
%TO.N,Net-(SW1-A)*%
X68750000Y-58750000D03*
D11*
%TO.P,SW1,2,B*%
%TO.N,/SW*%
X75250000Y-58750000D03*
%TO.P,SW1,3*%
%TO.N,N/C*%
X68750000Y-63250000D03*
%TO.P,SW1,4*%
X75250000Y-63250000D03*
%TD*%
D10*
%TO.P,SW3,1,A*%
%TO.N,Net-(SW3-A)*%
X96750000Y-64812500D03*
D11*
%TO.P,SW3,2,B*%
%TO.N,/SW*%
X103250000Y-64812500D03*
%TO.P,SW3,3*%
%TO.N,N/C*%
X96750000Y-69312500D03*
%TO.P,SW3,4*%
X103250000Y-69312500D03*
%TD*%
D10*
%TO.P,SW8,1,A*%
%TO.N,GND*%
X197250000Y-101750000D03*
D11*
%TO.P,SW8,2,B*%
%TO.N,/SW*%
X203750000Y-101750000D03*
%TO.P,SW8,3*%
%TO.N,N/C*%
X197250000Y-106250000D03*
%TO.P,SW8,4*%
X203750000Y-106250000D03*
%TD*%
D10*
%TO.P,SW7,1,A*%
%TO.N,Net-(SW7-A)*%
X202750000Y-64712500D03*
D11*
%TO.P,SW7,2,B*%
%TO.N,/SW*%
X209250000Y-64712500D03*
%TO.P,SW7,3*%
%TO.N,N/C*%
X202750000Y-69212500D03*
%TO.P,SW7,4*%
X209250000Y-69212500D03*
%TD*%
D12*
%TO.P,TH1,1*%
%TO.N,+3V3*%
X108700000Y-92100000D03*
D13*
%TO.P,TH1,2*%
%TO.N,/TEMP*%
X108700000Y-89560000D03*
%TD*%
D14*
%TO.P,P2,1*%
%TO.N,+3V3*%
X180900000Y-132000000D03*
%TO.P,P2,2*%
%TO.N,/POT2*%
X178400000Y-122000000D03*
%TO.P,P2,3*%
%TO.N,N/C*%
X175900000Y-132000000D03*
%TD*%
D10*
%TO.P,SW6,1,A*%
%TO.N,Net-(SW6-A)*%
X215750000Y-57712500D03*
D11*
%TO.P,SW6,2,B*%
%TO.N,/SW*%
X222250000Y-57712500D03*
%TO.P,SW6,3*%
%TO.N,N/C*%
X215750000Y-62212500D03*
%TO.P,SW6,4*%
X222250000Y-62212500D03*
%TD*%
D14*
%TO.P,P1,1*%
%TO.N,+3V3*%
X130000000Y-132000000D03*
%TO.P,P1,2*%
%TO.N,/POT1*%
X127500000Y-122000000D03*
%TO.P,P1,3*%
%TO.N,N/C*%
X125000000Y-132000000D03*
%TD*%
D15*
%TO.P,U2,J1_1,ESP_3V3*%
%TO.N,+3V3*%
X141307500Y-95000000D03*
D16*
%TO.P,U2,J1_2,CHIP_PU*%
%TO.N,unconnected-(U2-CHIP_PU-PadJ1_2)*%
X141307500Y-97540000D03*
%TO.P,U2,J1_3,GPIO4*%
%TO.N,/SW*%
X141307500Y-100080000D03*
%TO.P,U2,J1_4,GPIO5*%
%TO.N,/LED_A0*%
X141307500Y-102620000D03*
%TO.P,U2,J1_5,GPIO6*%
%TO.N,/LED_A1*%
X141307500Y-105160000D03*
%TO.P,U2,J1_6,GPIO7*%
%TO.N,/LED_A2*%
X141307500Y-107700000D03*
%TO.P,U2,J1_7,GPIO0*%
%TO.N,unconnected-(U2-GPIO0-PadJ1_7)*%
X141307500Y-110240000D03*
%TO.P,U2,J1_8,GPIO1*%
%TO.N,/TEMP*%
X141307500Y-112780000D03*
%TO.P,U2,J1_9,GPIO8*%
%TO.N,unconnected-(U2-GPIO8-PadJ1_9)*%
X141307500Y-115320000D03*
%TO.P,U2,J1_10,GPIO10*%
%TO.N,/e*%
X141307500Y-117860000D03*
%TO.P,U2,J1_11,GPIO11*%
%TO.N,/LED_A3*%
X141307500Y-120400000D03*
%TO.P,U2,J1_12,GPIO2*%
%TO.N,/POT1*%
X141307500Y-122940000D03*
%TO.P,U2,J1_13,GPIO3*%
%TO.N,/POT2*%
X141307500Y-125480000D03*
%TO.P,U2,J1_14,VCC_5V*%
%TO.N,+5V*%
X141307500Y-128020000D03*
%TO.P,U2,J1_15,GND_J1_15*%
%TO.N,GND*%
X141307500Y-130560000D03*
%TO.P,U2,J1_16,NC_J1_16*%
%TO.N,unconnected-(U2-NC_J1_16-PadJ1_16)*%
X141307500Y-133100000D03*
%TO.P,U2,J3_1,GND_J3_1*%
%TO.N,GND*%
X164167500Y-95000000D03*
%TO.P,U2,J3_2,UART_TXD*%
%TO.N,/CC4*%
X164167500Y-97540000D03*
%TO.P,U2,J3_3,UART_RXD*%
%TO.N,/CC1*%
X164167500Y-100080000D03*
%TO.P,U2,J3_4,GPIO15*%
%TO.N,/a*%
X164167500Y-102620000D03*
%TO.P,U2,J3_5,GPIO23*%
%TO.N,/f*%
X164167500Y-105160000D03*
%TO.P,U2,J3_6,GPIO22*%
%TO.N,/CC2*%
X164167500Y-107700000D03*
%TO.P,U2,J3_7,GPIO21*%
%TO.N,/CC3*%
X164167500Y-110240000D03*
%TO.P,U2,J3_8,GPIO20*%
%TO.N,/b*%
X164167500Y-112780000D03*
%TO.P,U2,J3_9,GPIO19*%
%TO.N,/g*%
X164167500Y-115320000D03*
%TO.P,U2,J3_10,GPIO18*%
%TO.N,/c*%
X164167500Y-117860000D03*
%TO.P,U2,J3_11,GPIO9*%
%TO.N,/dot*%
X164167500Y-120400000D03*
%TO.P,U2,J3_12,GND_J3_12*%
%TO.N,GND*%
X164167500Y-122940000D03*
%TO.P,U2,J3_13,GPIO13*%
%TO.N,/d*%
X164167500Y-125480000D03*
%TO.P,U2,J3_14,GPIO12*%
%TO.N,/BUZZER*%
X164167500Y-128020000D03*
%TO.P,U2,J3_15,GND_J3_15*%
%TO.N,GND*%
X164167500Y-130560000D03*
%TO.P,U2,J3_16,NC_J3_16*%
%TO.N,unconnected-(U2-NC_J3_16-PadJ3_16)*%
X164167500Y-133100000D03*
%TD*%
D10*
%TO.P,SW2,1,A*%
%TO.N,Net-(SW2-A)*%
X83750000Y-57712500D03*
D11*
%TO.P,SW2,2,B*%
%TO.N,/SW*%
X90250000Y-57712500D03*
%TO.P,SW2,3*%
%TO.N,N/C*%
X83750000Y-62212500D03*
%TO.P,SW2,4*%
X90250000Y-62212500D03*
%TD*%
D17*
%TO.P,BZ1,1,+*%
%TO.N,/BUZZER*%
X180000000Y-108300000D03*
D18*
%TO.P,BZ1,2,-*%
%TO.N,GND*%
X187600000Y-108300000D03*
%TD*%
D10*
%TO.P,SW5,1,A*%
%TO.N,Net-(SW5-A)*%
X230750000Y-58712500D03*
D11*
%TO.P,SW5,2,B*%
%TO.N,/SW*%
X237250000Y-58712500D03*
%TO.P,SW5,3*%
%TO.N,N/C*%
X230750000Y-63212500D03*
%TO.P,SW5,4*%
X237250000Y-63212500D03*
%TD*%
D19*
%TO.P,U3,1,e*%
%TO.N,/e*%
X146550000Y-84240000D03*
D20*
%TO.P,U3,2,d*%
%TO.N,/d*%
X149090000Y-84240000D03*
%TO.P,U3,3,DPX*%
%TO.N,/dot*%
X151630000Y-84240000D03*
%TO.P,U3,4,c*%
%TO.N,/c*%
X154170000Y-84240000D03*
%TO.P,U3,5,g*%
%TO.N,/g*%
X156710000Y-84240000D03*
%TO.P,U3,6,CC4*%
%TO.N,/CC4*%
X159250000Y-84240000D03*
%TO.P,U3,7,b*%
%TO.N,/b*%
X159250000Y-69000000D03*
%TO.P,U3,8,CC3*%
%TO.N,/CC3*%
X156710000Y-69000000D03*
%TO.P,U3,9,CC2*%
%TO.N,/CC2*%
X154170000Y-69000000D03*
%TO.P,U3,10,f*%
%TO.N,/f*%
X151630000Y-69000000D03*
%TO.P,U3,11,a*%
%TO.N,/a*%
X149090000Y-69000000D03*
%TO.P,U3,12,CC1*%
%TO.N,/CC1*%
X146550000Y-69000000D03*
%TD*%
D10*
%TO.P,SW4,1,A*%
%TO.N,Net-(SW4-A)*%
X101750000Y-101850000D03*
D11*
%TO.P,SW4,2,B*%
%TO.N,/SW*%
X108250000Y-101850000D03*
%TO.P,SW4,3*%
%TO.N,N/C*%
X101750000Y-106350000D03*
%TO.P,SW4,4*%
X108250000Y-106350000D03*
%TD*%
D21*
%TO.P,C1,1*%
%TO.N,+3V3*%
X191330000Y-81460000D03*
%TO.P,C1,2*%
%TO.N,GND*%
X189430000Y-81460000D03*
%TD*%
D22*
%TO.P,Q1,1,E*%
%TO.N,+3V3*%
X191100000Y-78200000D03*
D23*
%TO.P,Q1,2,B*%
%TO.N,GND*%
X189830000Y-78200000D03*
%TO.P,Q1,3,C*%
%TO.N,/HALL*%
X188560000Y-78200000D03*
%TD*%
D24*
%TO.N,GND*%
X191200000Y-92400000D03*
X119200000Y-122400000D03*
X125200000Y-56400000D03*
X185200000Y-86400000D03*
X185200000Y-74400000D03*
X107200000Y-56400000D03*
X113200000Y-68400000D03*
X203200000Y-62400000D03*
X125200000Y-134400000D03*
X197200000Y-86400000D03*
X191200000Y-74400000D03*
X107200000Y-104400000D03*
X113400000Y-91412500D03*
X197200000Y-122400000D03*
X131200000Y-56400000D03*
X149200000Y-56400000D03*
X167200000Y-68400000D03*
X107200000Y-80400000D03*
X163700000Y-62400000D03*
X96800000Y-58600000D03*
X185200000Y-68400000D03*
X119200000Y-92400000D03*
X191200000Y-98400000D03*
X130200000Y-105600000D03*
X203200000Y-80400000D03*
X197200000Y-56400000D03*
X191200000Y-86400000D03*
X234100000Y-61100000D03*
X92700000Y-64600000D03*
X203200000Y-86400000D03*
X133300000Y-62400000D03*
X101200000Y-98400000D03*
X113200000Y-86400000D03*
X143200000Y-86400000D03*
X179200000Y-104400000D03*
X203200000Y-104400000D03*
X173200000Y-56400000D03*
X181690000Y-118580000D03*
X101200000Y-104400000D03*
X161200000Y-104400000D03*
X122000000Y-78300000D03*
X143200000Y-56400000D03*
X191200000Y-110400000D03*
X197200000Y-80400000D03*
X179200000Y-98400000D03*
X203200000Y-56400000D03*
X213300000Y-62800000D03*
X161200000Y-110400000D03*
X185200000Y-98400000D03*
X209300000Y-58100000D03*
X107200000Y-86400000D03*
X149200000Y-122400000D03*
X125200000Y-116400000D03*
X113200000Y-116400000D03*
X143200000Y-110400000D03*
X219200000Y-58700000D03*
X179200000Y-56400000D03*
X137200000Y-56400000D03*
X107200000Y-68400000D03*
X143200000Y-134400000D03*
X161200000Y-122400000D03*
X194920000Y-60670000D03*
X107200000Y-74400000D03*
X107200000Y-116400000D03*
X173200000Y-116400000D03*
X87100000Y-59500000D03*
X197200000Y-98400000D03*
X119900000Y-60500000D03*
X131200000Y-116400000D03*
X173200000Y-134400000D03*
X143200000Y-98400000D03*
X167200000Y-122400000D03*
X203200000Y-74400000D03*
X197200000Y-68400000D03*
X185200000Y-104400000D03*
X185400000Y-60900000D03*
X191200000Y-128400000D03*
X118400000Y-72300000D03*
X159100000Y-99000000D03*
X107200000Y-110400000D03*
X191200000Y-56400000D03*
X113200000Y-56400000D03*
X179200000Y-74400000D03*
X161200000Y-128400000D03*
X161200000Y-116400000D03*
X197200000Y-74400000D03*
X203200000Y-110400000D03*
X113200000Y-62400000D03*
X143200000Y-128400000D03*
X107200000Y-122400000D03*
X107200000Y-98400000D03*
X137200000Y-134400000D03*
X167200000Y-116400000D03*
X185900000Y-108300000D03*
X161200000Y-86400000D03*
X119200000Y-56400000D03*
X124600000Y-62400000D03*
X71600000Y-62100000D03*
X167200000Y-56400000D03*
X131200000Y-92400000D03*
X179200000Y-80400000D03*
X155000000Y-62500000D03*
X191200000Y-104400000D03*
X149200000Y-116400000D03*
X101200000Y-56400000D03*
X113200000Y-80400000D03*
X173200000Y-122400000D03*
X149200000Y-134400000D03*
X179200000Y-92400000D03*
X185200000Y-56400000D03*
X113200000Y-74400000D03*
X181300000Y-62600000D03*
X159400000Y-61000000D03*
X161200000Y-56400000D03*
X107200000Y-62400000D03*
X131200000Y-134400000D03*
X185200000Y-116400000D03*
X144700000Y-122600000D03*
X185200000Y-92400000D03*
X113200000Y-122400000D03*
X155200000Y-56400000D03*
X185200000Y-110400000D03*
X179200000Y-86400000D03*
X123000000Y-78300000D03*
X137500000Y-61000000D03*
X203200000Y-92400000D03*
X191200000Y-68400000D03*
X143200000Y-92400000D03*
X155200000Y-128400000D03*
X197200000Y-92400000D03*
X197200000Y-110400000D03*
X149200000Y-128400000D03*
X179200000Y-116400000D03*
X191200000Y-116400000D03*
X197200000Y-116400000D03*
X173200000Y-110400000D03*
X119200000Y-68400000D03*
X131200000Y-80400000D03*
X119200000Y-62400000D03*
X173200000Y-80400000D03*
X113200000Y-128400000D03*
X185200000Y-80400000D03*
X185200000Y-122400000D03*
X203200000Y-98400000D03*
X126200000Y-109100000D03*
X137200000Y-86400000D03*
X143200000Y-104400000D03*
X124282500Y-118020000D03*
%TO.N,+3V3*%
X89300000Y-65100000D03*
X121200000Y-104100000D03*
X121200000Y-124500000D03*
X118700000Y-99500000D03*
%TO.N,/HALL*%
X121400000Y-96000000D03*
%TO.N,/LED10*%
X162500000Y-71200000D03*
X131600000Y-74600000D03*
%TO.N,/LED11*%
X131700000Y-76000000D03*
X164200000Y-72200000D03*
%TO.N,/LED12*%
X138200000Y-77300000D03*
X167900000Y-71200000D03*
%TO.N,/LED13*%
X169500000Y-72300000D03*
X138200000Y-78500000D03*
%TO.N,/LED14*%
X172000000Y-73500000D03*
X138200000Y-79900000D03*
%TO.N,/LED15*%
X174700000Y-74500000D03*
X138200000Y-81200000D03*
%TO.N,/LED_A3*%
X137400000Y-111100000D03*
%TO.N,+5V*%
X126100000Y-77800000D03*
X114600000Y-114300000D03*
%TO.N,Net-(SW4-A)*%
X114900000Y-103400000D03*
X226600000Y-64200000D03*
%TO.N,Net-(SW7-A)*%
X212200000Y-67400000D03*
%TO.N,/SW*%
X118500000Y-103000000D03*
%TD*%
D25*
%TO.N,+3V3*%
X124200000Y-98200000D02*
X135800000Y-98200000D01*
X139000000Y-95000000D02*
X141307500Y-95000000D01*
D26*
X121200000Y-124500000D02*
X121200000Y-104100000D01*
D27*
X103800000Y-88900000D02*
X103800000Y-79600000D01*
X103800000Y-79600000D02*
X89300000Y-65100000D01*
D25*
X118700000Y-99500000D02*
X122900000Y-99500000D01*
X122900000Y-99500000D02*
X124200000Y-98200000D01*
D28*
X191330000Y-78430000D02*
X191100000Y-78200000D01*
D25*
X135800000Y-98200000D02*
X139000000Y-95000000D01*
D27*
X107000000Y-92100000D02*
X108700000Y-92100000D01*
D28*
X191330000Y-81460000D02*
X191330000Y-78430000D01*
D27*
X103800000Y-88900000D02*
X107000000Y-92100000D01*
D25*
%TO.N,/HALL*%
X122300000Y-95100000D02*
X132700000Y-95100000D01*
X181500000Y-82300000D02*
X185600000Y-78200000D01*
X145500000Y-82300000D02*
X181500000Y-82300000D01*
X185600000Y-78200000D02*
X188560000Y-78200000D01*
X132700000Y-95100000D02*
X145500000Y-82300000D01*
X121400000Y-96000000D02*
X122300000Y-95100000D01*
D29*
%TO.N,/LED10*%
X131600000Y-74600000D02*
X159100000Y-74600000D01*
X159100000Y-74600000D02*
X162500000Y-71200000D01*
%TO.N,/LED11*%
X160400000Y-76000000D02*
X164200000Y-72200000D01*
X131700000Y-76000000D02*
X160400000Y-76000000D01*
D25*
%TO.N,/LED12*%
X161800000Y-77300000D02*
X167900000Y-71200000D01*
X138200000Y-77300000D02*
X161800000Y-77300000D01*
%TO.N,/LED13*%
X138200000Y-78500000D02*
X163300000Y-78500000D01*
X163300000Y-78500000D02*
X169500000Y-72300000D01*
%TO.N,/LED14*%
X165600000Y-79900000D02*
X172000000Y-73500000D01*
X138200000Y-79900000D02*
X165600000Y-79900000D01*
%TO.N,/LED15*%
X168000000Y-81200000D02*
X174700000Y-74500000D01*
X138200000Y-81200000D02*
X168000000Y-81200000D01*
%TO.N,/LED_A3*%
X137400000Y-118400000D02*
X139400000Y-120400000D01*
X137400000Y-111100000D02*
X137400000Y-118400000D01*
X139400000Y-120400000D02*
X141307500Y-120400000D01*
D26*
%TO.N,+5V*%
X114600000Y-114300000D02*
X116800000Y-116500000D01*
X116800000Y-116500000D02*
X116800000Y-123900000D01*
X119200000Y-76600000D02*
X124900000Y-76600000D01*
X132880000Y-128020000D02*
X141307500Y-128020000D01*
X124900000Y-76600000D02*
X126100000Y-77800000D01*
X114600000Y-114300000D02*
X113500000Y-113200000D01*
X117200000Y-90700000D02*
X117200000Y-78600000D01*
X122500000Y-129600000D02*
X131300000Y-129600000D01*
X116800000Y-123900000D02*
X122500000Y-129600000D01*
X113500000Y-94400000D02*
X117200000Y-90700000D01*
X117200000Y-78600000D02*
X119200000Y-76600000D01*
X131300000Y-129600000D02*
X132880000Y-128020000D01*
X113500000Y-113200000D02*
X113500000Y-94400000D01*
D25*
%TO.N,Net-(SW4-A)*%
X141500000Y-89200000D02*
X192100000Y-89200000D01*
X123200000Y-96700000D02*
X134000000Y-96700000D01*
X134000000Y-96700000D02*
X141500000Y-89200000D01*
X122000000Y-97900000D02*
X123200000Y-96700000D01*
X217100000Y-64200000D02*
X226600000Y-64200000D01*
X114900000Y-103400000D02*
X114900000Y-98700000D01*
X115700000Y-97900000D02*
X122000000Y-97900000D01*
X192100000Y-89200000D02*
X217100000Y-64200000D01*
X114900000Y-98700000D02*
X115700000Y-97900000D01*
%TO.N,Net-(SW7-A)*%
X212100000Y-67500000D02*
X204000000Y-67500000D01*
X204000000Y-67500000D02*
X202750000Y-66250000D01*
X212200000Y-67400000D02*
X212100000Y-67500000D01*
X202750000Y-66250000D02*
X202750000Y-64712500D01*
%TO.N,/SW*%
X139100000Y-100900000D02*
X139920000Y-100080000D01*
X182000000Y-91400000D02*
X153400000Y-91400000D01*
X203750000Y-101750000D02*
X201500000Y-104000000D01*
X120600000Y-100900000D02*
X139100000Y-100900000D01*
X201500000Y-104000000D02*
X194600000Y-104000000D01*
X153400000Y-91400000D02*
X144720000Y-100080000D01*
X194600000Y-104000000D02*
X182000000Y-91400000D01*
X144720000Y-100080000D02*
X141307500Y-100080000D01*
X118500000Y-103000000D02*
X120600000Y-100900000D01*
X139920000Y-100080000D02*
X141307500Y-100080000D01*
%TD*%
%TA.AperFunction,Conductor*%
%TO.N,GND*%
G36*
X233388695Y-54919986D02*
G01*
X233435290Y-54970524D01*
X233673253Y-55446067D01*
X236884051Y-61862503D01*
X236896448Y-61931264D01*
X236869701Y-61995812D01*
X236812304Y-62035652D01*
X236811481Y-62035923D01*
X236768442Y-62049908D01*
X236768439Y-62049909D01*
X236643120Y-62113763D01*
X236592495Y-62139558D01*
X236432753Y-62255615D01*
X236293115Y-62395253D01*
X236177058Y-62554995D01*
X236087408Y-62730941D01*
X236026389Y-62918736D01*
X235995500Y-63113763D01*
X235995500Y-63311236D01*
X236026389Y-63506263D01*
X236071693Y-63645692D01*
X236087409Y-63694061D01*
X236169726Y-63855615D01*
X236177058Y-63870004D01*
X236293115Y-64029746D01*
X236432753Y-64169384D01*
X236576635Y-64273918D01*
X236592499Y-64285444D01*
X236768439Y-64375091D01*
X236875340Y-64409825D01*
X236956236Y-64436110D01*
X237151264Y-64467000D01*
X237151269Y-64467000D01*
X237348736Y-64467000D01*
X237543763Y-64436110D01*
X237731561Y-64375091D01*
X237907501Y-64285444D01*
X237927779Y-64270710D01*
X237993586Y-64247231D01*
X238061639Y-64263056D01*
X238110334Y-64313162D01*
X238111556Y-64315539D01*
X238512918Y-65117619D01*
X238525315Y-65186380D01*
X238498568Y-65250928D01*
X238441171Y-65290769D01*
X238405480Y-65297061D01*
X216582286Y-65905069D01*
X216514725Y-65887259D01*
X216467517Y-65835750D01*
X216455651Y-65766895D01*
X216482895Y-65702556D01*
X216491133Y-65693456D01*
X217322771Y-64861819D01*
X217384094Y-64828334D01*
X217410452Y-64825500D01*
X226147649Y-64825500D01*
X226214688Y-64845185D01*
X226216455Y-64846341D01*
X226244505Y-64865084D01*
X226381087Y-64921658D01*
X226381091Y-64921658D01*
X226381092Y-64921659D01*
X226526079Y-64950500D01*
X226526082Y-64950500D01*
X226673920Y-64950500D01*
X226771462Y-64931096D01*
X226818913Y-64921658D01*
X226955495Y-64865084D01*
X227078416Y-64782951D01*
X227182951Y-64678416D01*
X227265084Y-64555495D01*
X227321658Y-64418913D01*
X227331096Y-64371462D01*
X227350500Y-64273920D01*
X227350500Y-64126079D01*
X227321659Y-63981092D01*
X227321658Y-63981091D01*
X227321658Y-63981087D01*
X227309202Y-63951016D01*
X227265087Y-63844511D01*
X227265080Y-63844498D01*
X227182951Y-63721584D01*
X227182948Y-63721580D01*
X227078419Y-63617051D01*
X227078415Y-63617048D01*
X226955501Y-63534919D01*
X226955488Y-63534912D01*
X226818917Y-63478343D01*
X226818907Y-63478340D01*
X226673920Y-63449500D01*
X226673918Y-63449500D01*
X226526082Y-63449500D01*
X226526080Y-63449500D01*
X226381092Y-63478340D01*
X226381082Y-63478343D01*
X226244510Y-63534913D01*
X226244506Y-63534915D01*
X226244505Y-63534916D01*
X226216537Y-63553603D01*
X226149863Y-63574480D01*
X226147649Y-63574500D01*
X222856695Y-63574500D01*
X222789656Y-63554815D01*
X222743901Y-63502011D01*
X222733957Y-63432853D01*
X222762982Y-63369297D01*
X222800398Y-63340016D01*
X222907501Y-63285444D01*
X222997192Y-63220279D01*
X223067246Y-63169384D01*
X223067248Y-63169381D01*
X223067252Y-63169379D01*
X223122868Y-63113763D01*
X229495500Y-63113763D01*
X229495500Y-63311236D01*
X229526389Y-63506263D01*
X229571693Y-63645692D01*
X229587409Y-63694061D01*
X229669726Y-63855615D01*
X229677058Y-63870004D01*
X229793115Y-64029746D01*
X229932753Y-64169384D01*
X230076635Y-64273918D01*
X230092499Y-64285444D01*
X230268439Y-64375091D01*
X230375340Y-64409825D01*
X230456236Y-64436110D01*
X230651264Y-64467000D01*
X230651269Y-64467000D01*
X230848736Y-64467000D01*
X231043763Y-64436110D01*
X231231561Y-64375091D01*
X231407501Y-64285444D01*
X231497192Y-64220279D01*
X231567246Y-64169384D01*
X231567248Y-64169381D01*
X231567252Y-64169379D01*
X231706879Y-64029752D01*
X231706881Y-64029748D01*
X231706884Y-64029746D01*
X231776141Y-63934420D01*
X231822944Y-63870001D01*
X231912591Y-63694061D01*
X231973610Y-63506263D01*
X231981601Y-63455811D01*
X232004500Y-63311236D01*
X232004500Y-63113763D01*
X231973610Y-62918736D01*
X231924775Y-62768439D01*
X231912591Y-62730939D01*
X231822944Y-62554999D01*
X231815486Y-62544734D01*
X231706884Y-62395253D01*
X231567246Y-62255615D01*
X231407504Y-62139558D01*
X231407503Y-62139557D01*
X231407501Y-62139556D01*
X231231561Y-62049909D01*
X231231558Y-62049908D01*
X231043763Y-61988889D01*
X230848736Y-61958000D01*
X230848731Y-61958000D01*
X230651269Y-61958000D01*
X230651264Y-61958000D01*
X230456236Y-61988889D01*
X230268441Y-62049908D01*
X230092495Y-62139558D01*
X229932753Y-62255615D01*
X229793115Y-62395253D01*
X229677058Y-62554995D01*
X229587408Y-62730941D01*
X229526389Y-62918736D01*
X229495500Y-63113763D01*
X223122868Y-63113763D01*
X223206879Y-63029752D01*
X223206884Y-63029746D01*
X223287536Y-62918736D01*
X223322944Y-62870001D01*
X223412591Y-62694061D01*
X223473610Y-62506263D01*
X223485254Y-62432748D01*
X223504500Y-62311236D01*
X223504500Y-62113763D01*
X223473610Y-61918736D01*
X223426679Y-61774299D01*
X223412591Y-61730939D01*
X223322944Y-61554999D01*
X223293178Y-61514029D01*
X223206884Y-61395253D01*
X223067246Y-61255615D01*
X222907504Y-61139558D01*
X222907503Y-61139557D01*
X222907501Y-61139556D01*
X222731561Y-61049909D01*
X222731558Y-61049908D01*
X222543763Y-60988889D01*
X222348736Y-60958000D01*
X222348731Y-60958000D01*
X222151269Y-60958000D01*
X222151264Y-60958000D01*
X221956236Y-60988889D01*
X221768441Y-61049908D01*
X221592495Y-61139558D01*
X221432753Y-61255615D01*
X221293115Y-61395253D01*
X221177058Y-61554995D01*
X221087408Y-61730941D01*
X221026389Y-61918736D01*
X220995500Y-62113763D01*
X220995500Y-62311236D01*
X221026389Y-62506263D01*
X221087408Y-62694058D01*
X221087409Y-62694061D01*
X221106200Y-62730939D01*
X221177058Y-62870004D01*
X221293115Y-63029746D01*
X221432753Y-63169384D01*
X221554706Y-63257986D01*
X221592499Y-63285444D01*
X221699600Y-63340015D01*
X221750396Y-63387990D01*
X221767191Y-63455811D01*
X221744653Y-63521946D01*
X221689938Y-63565397D01*
X221643305Y-63574500D01*
X217038389Y-63574500D01*
X216977971Y-63586518D01*
X216940259Y-63594019D01*
X216917550Y-63598536D01*
X216917548Y-63598537D01*
X216884207Y-63612347D01*
X216803719Y-63645684D01*
X216803705Y-63645692D01*
X216701272Y-63714138D01*
X216701264Y-63714144D01*
X216614139Y-63801270D01*
X214485855Y-65929553D01*
X214424532Y-65963038D01*
X214401628Y-65965824D01*
X213174977Y-66000000D01*
X212757486Y-66711997D01*
X212706595Y-66759871D01*
X212637901Y-66772631D01*
X212581628Y-66752377D01*
X212555501Y-66734919D01*
X212555488Y-66734912D01*
X212418917Y-66678343D01*
X212418907Y-66678340D01*
X212273920Y-66649500D01*
X212273918Y-66649500D01*
X212126082Y-66649500D01*
X212126080Y-66649500D01*
X211981092Y-66678340D01*
X211981082Y-66678343D01*
X211844511Y-66734912D01*
X211844498Y-66734919D01*
X211721584Y-66817048D01*
X211721580Y-66817051D01*
X211700451Y-66838181D01*
X211639128Y-66871666D01*
X211612770Y-66874500D01*
X204310452Y-66874500D01*
X204243413Y-66854815D01*
X204222771Y-66838181D01*
X203553305Y-66168715D01*
X203519820Y-66107392D01*
X203524804Y-66037700D01*
X203566676Y-65981767D01*
X203604506Y-65964082D01*
X203604215Y-65963302D01*
X203746328Y-65910297D01*
X203746327Y-65910297D01*
X203746331Y-65910296D01*
X203861546Y-65824046D01*
X203947796Y-65708831D01*
X203998091Y-65573983D01*
X204004500Y-65514373D01*
X204004499Y-64613763D01*
X207995500Y-64613763D01*
X207995500Y-64811236D01*
X208026389Y-65006263D01*
X208065175Y-65125632D01*
X208087409Y-65194061D01*
X208177056Y-65370001D01*
X208177058Y-65370004D01*
X208293115Y-65529746D01*
X208432753Y-65669384D01*
X208566968Y-65766895D01*
X208592499Y-65785444D01*
X208768439Y-65875091D01*
X208893637Y-65915770D01*
X208956236Y-65936110D01*
X209151264Y-65967000D01*
X209151269Y-65967000D01*
X209348736Y-65967000D01*
X209543763Y-65936110D01*
X209580898Y-65924044D01*
X209731561Y-65875091D01*
X209907501Y-65785444D01*
X210012955Y-65708828D01*
X210067246Y-65669384D01*
X210067248Y-65669381D01*
X210067252Y-65669379D01*
X210206879Y-65529752D01*
X210206881Y-65529748D01*
X210206884Y-65529746D01*
X210260829Y-65455495D01*
X210322944Y-65370001D01*
X210412591Y-65194061D01*
X210473610Y-65006263D01*
X210487010Y-64921658D01*
X210504500Y-64811236D01*
X210504500Y-64613763D01*
X210473610Y-64418736D01*
X210439307Y-64313162D01*
X210412591Y-64230939D01*
X210322944Y-64054999D01*
X210290706Y-64010627D01*
X210206884Y-63895253D01*
X210067246Y-63755615D01*
X209907504Y-63639558D01*
X209907503Y-63639557D01*
X209907501Y-63639556D01*
X209731561Y-63549909D01*
X209731558Y-63549908D01*
X209543763Y-63488889D01*
X209348736Y-63458000D01*
X209348731Y-63458000D01*
X209151269Y-63458000D01*
X209151264Y-63458000D01*
X208956236Y-63488889D01*
X208768441Y-63549908D01*
X208768439Y-63549908D01*
X208768439Y-63549909D01*
X208738042Y-63565397D01*
X208592495Y-63639558D01*
X208432753Y-63755615D01*
X208293115Y-63895253D01*
X208177058Y-64054995D01*
X208087408Y-64230941D01*
X208026389Y-64418736D01*
X207995500Y-64613763D01*
X204004499Y-64613763D01*
X204004499Y-63910628D01*
X203998091Y-63851017D01*
X203995664Y-63844511D01*
X203947797Y-63716171D01*
X203947793Y-63716164D01*
X203861547Y-63600955D01*
X203861544Y-63600952D01*
X203746335Y-63514706D01*
X203746328Y-63514702D01*
X203611482Y-63464408D01*
X203611483Y-63464408D01*
X203551883Y-63458001D01*
X203551881Y-63458000D01*
X203551873Y-63458000D01*
X203551864Y-63458000D01*
X201948129Y-63458000D01*
X201948123Y-63458001D01*
X201888516Y-63464408D01*
X201753671Y-63514702D01*
X201753664Y-63514706D01*
X201638455Y-63600952D01*
X201638452Y-63600955D01*
X201552206Y-63716164D01*
X201552202Y-63716171D01*
X201501908Y-63851017D01*
X201497153Y-63895248D01*
X201495501Y-63910623D01*
X201495500Y-63910635D01*
X201495500Y-65514370D01*
X201495501Y-65514376D01*
X201501908Y-65573983D01*
X201552202Y-65708828D01*
X201552206Y-65708835D01*
X201638452Y-65824044D01*
X201638455Y-65824047D01*
X201753664Y-65910293D01*
X201753671Y-65910297D01*
X201790529Y-65924044D01*
X201888517Y-65960591D01*
X201948127Y-65967000D01*
X202000500Y-65966999D01*
X202067538Y-65986682D01*
X202113293Y-66039486D01*
X202124500Y-66090999D01*
X202124500Y-66188393D01*
X202124500Y-66311607D01*
X202133146Y-66355075D01*
X202148537Y-66432452D01*
X202157555Y-66454223D01*
X202160908Y-66462319D01*
X202160909Y-66462321D01*
X202195685Y-66546281D01*
X202195687Y-66546284D01*
X202195688Y-66546286D01*
X202220176Y-66582933D01*
X202229914Y-66597507D01*
X202229915Y-66597509D01*
X202264141Y-66648733D01*
X202355586Y-66740178D01*
X202355608Y-66740198D01*
X203514139Y-67898729D01*
X203514142Y-67898733D01*
X203564063Y-67948654D01*
X203597547Y-68009978D01*
X203595204Y-68042727D01*
X203593631Y-68064716D01*
X203646739Y-68044908D01*
X203703036Y-68054030D01*
X203703711Y-68054309D01*
X203703715Y-68054312D01*
X203740704Y-68069633D01*
X203817548Y-68101463D01*
X203877400Y-68113368D01*
X203938391Y-68125499D01*
X203938392Y-68125500D01*
X203938393Y-68125500D01*
X203938394Y-68125500D01*
X208263507Y-68125500D01*
X208330546Y-68145185D01*
X208376301Y-68197989D01*
X208386245Y-68267147D01*
X208357220Y-68330703D01*
X208351188Y-68337181D01*
X208293119Y-68395249D01*
X208293115Y-68395253D01*
X208177058Y-68554995D01*
X208087408Y-68730941D01*
X208026389Y-68918736D01*
X207995500Y-69113763D01*
X207995500Y-69311236D01*
X208026389Y-69506263D01*
X208068204Y-69634954D01*
X208087409Y-69694061D01*
X208177056Y-69870001D01*
X208177058Y-69870004D01*
X208293115Y-70029746D01*
X208432753Y-70169384D01*
X208544402Y-70250500D01*
X208592499Y-70285444D01*
X208768439Y-70375091D01*
X208893637Y-70415770D01*
X208956236Y-70436110D01*
X209151264Y-70467000D01*
X209151269Y-70467000D01*
X209348736Y-70467000D01*
X209488039Y-70444935D01*
X209543763Y-70436110D01*
X209697709Y-70386089D01*
X209767547Y-70384095D01*
X209827380Y-70420175D01*
X209858209Y-70482876D01*
X209850245Y-70552290D01*
X209823706Y-70591702D01*
X191877229Y-88538181D01*
X191815906Y-88571666D01*
X191789548Y-88574500D01*
X141438389Y-88574500D01*
X141317553Y-88598535D01*
X141317541Y-88598539D01*
X141272346Y-88617259D01*
X141272328Y-88617267D01*
X141270397Y-88618067D01*
X141203715Y-88645688D01*
X141190587Y-88654459D01*
X141181415Y-88658633D01*
X141156394Y-88662194D01*
X141132274Y-88669747D01*
X141112383Y-88668459D01*
X141112243Y-88668480D01*
X141112168Y-88668446D01*
X141111890Y-88668428D01*
X140401287Y-88563152D01*
X140337856Y-88533855D01*
X140300333Y-88474916D01*
X140300633Y-88405047D01*
X140331776Y-88352812D01*
X145087821Y-83596768D01*
X145149142Y-83563285D01*
X145218834Y-83568269D01*
X145274767Y-83610141D01*
X145299184Y-83675605D01*
X145299500Y-83684451D01*
X145299500Y-85037870D01*
X145299501Y-85037876D01*
X145305908Y-85097483D01*
X145356202Y-85232328D01*
X145356206Y-85232335D01*
X145442452Y-85347544D01*
X145442455Y-85347547D01*
X145557664Y-85433793D01*
X145557671Y-85433797D01*
X145692517Y-85484091D01*
X145692516Y-85484091D01*
X145699444Y-85484835D01*
X145752127Y-85490500D01*
X147347872Y-85490499D01*
X147407483Y-85484091D01*
X147542331Y-85433796D01*
X147657546Y-85347546D01*
X147743796Y-85232331D01*
X147794091Y-85097483D01*
X147800500Y-85037873D01*
X147800499Y-84974265D01*
X147820183Y-84907229D01*
X147872986Y-84861473D01*
X147942144Y-84851529D01*
X148005700Y-84880553D01*
X148024816Y-84901381D01*
X148123980Y-85037865D01*
X148136172Y-85054646D01*
X148275354Y-85193828D01*
X148434595Y-85309524D01*
X148509214Y-85347544D01*
X148609970Y-85398882D01*
X148609972Y-85398882D01*
X148609975Y-85398884D01*
X148710317Y-85431487D01*
X148797173Y-85459709D01*
X148991578Y-85490500D01*
X148991583Y-85490500D01*
X149188422Y-85490500D01*
X149382826Y-85459709D01*
X149462574Y-85433797D01*
X149570025Y-85398884D01*
X149745405Y-85309524D01*
X149904646Y-85193828D01*
X150043828Y-85054646D01*
X150159524Y-84895405D01*
X150248884Y-84720025D01*
X150249515Y-84718787D01*
X150297489Y-84667990D01*
X150365310Y-84651195D01*
X150431445Y-84673732D01*
X150470485Y-84718787D01*
X150560474Y-84895403D01*
X150595234Y-84943246D01*
X150676172Y-85054646D01*
X150815354Y-85193828D01*
X150974595Y-85309524D01*
X151049214Y-85347544D01*
X151149970Y-85398882D01*
X151149972Y-85398882D01*
X151149975Y-85398884D01*
X151250317Y-85431487D01*
X151337173Y-85459709D01*
X151531578Y-85490500D01*
X151531583Y-85490500D01*
X151728422Y-85490500D01*
X151922826Y-85459709D01*
X152002574Y-85433797D01*
X152110025Y-85398884D01*
X152285405Y-85309524D01*
X152444646Y-85193828D01*
X152583828Y-85054646D01*
X152699524Y-84895405D01*
X152788884Y-84720025D01*
X152789515Y-84718787D01*
X152837489Y-84667990D01*
X152905310Y-84651195D01*
X152971445Y-84673732D01*
X153010485Y-84718787D01*
X153100474Y-84895403D01*
X153135234Y-84943246D01*
X153216172Y-85054646D01*
X153355354Y-85193828D01*
X153514595Y-85309524D01*
X153589214Y-85347544D01*
X153689970Y-85398882D01*
X153689972Y-85398882D01*
X153689975Y-85398884D01*
X153790317Y-85431487D01*
X153877173Y-85459709D01*
X154071578Y-85490500D01*
X154071583Y-85490500D01*
X154268422Y-85490500D01*
X154462826Y-85459709D01*
X154542574Y-85433797D01*
X154650025Y-85398884D01*
X154825405Y-85309524D01*
X154984646Y-85193828D01*
X155123828Y-85054646D01*
X155239524Y-84895405D01*
X155328884Y-84720025D01*
X155329515Y-84718787D01*
X155377489Y-84667990D01*
X155445310Y-84651195D01*
X155511445Y-84673732D01*
X155550485Y-84718787D01*
X155640474Y-84895403D01*
X155675234Y-84943246D01*
X155756172Y-85054646D01*
X155895354Y-85193828D01*
X156054595Y-85309524D01*
X156129214Y-85347544D01*
X156229970Y-85398882D01*
X156229972Y-85398882D01*
X156229975Y-85398884D01*
X156330317Y-85431487D01*
X156417173Y-85459709D01*
X156611578Y-85490500D01*
X156611583Y-85490500D01*
X156808422Y-85490500D01*
X157002826Y-85459709D01*
X157082574Y-85433797D01*
X157190025Y-85398884D01*
X157365405Y-85309524D01*
X157524646Y-85193828D01*
X157663828Y-85054646D01*
X157779524Y-84895405D01*
X157868884Y-84720025D01*
X157869515Y-84718787D01*
X157917489Y-84667990D01*
X157985310Y-84651195D01*
X158051445Y-84673732D01*
X158090485Y-84718787D01*
X158180474Y-84895403D01*
X158215234Y-84943246D01*
X158296172Y-85054646D01*
X158435354Y-85193828D01*
X158594595Y-85309524D01*
X158669214Y-85347544D01*
X158769970Y-85398882D01*
X158769972Y-85398882D01*
X158769975Y-85398884D01*
X158870317Y-85431487D01*
X158957173Y-85459709D01*
X159151578Y-85490500D01*
X159151583Y-85490500D01*
X159348422Y-85490500D01*
X159542826Y-85459709D01*
X159622574Y-85433797D01*
X159730025Y-85398884D01*
X159905405Y-85309524D01*
X160064646Y-85193828D01*
X160203828Y-85054646D01*
X160319524Y-84895405D01*
X160408884Y-84720025D01*
X160469709Y-84532826D01*
X160480548Y-84464392D01*
X160500500Y-84338422D01*
X160500500Y-84141577D01*
X160469709Y-83947173D01*
X160408882Y-83759970D01*
X160324651Y-83594658D01*
X160319524Y-83584595D01*
X160203828Y-83425354D01*
X160064646Y-83286172D01*
X159905405Y-83170476D01*
X159884814Y-83159984D01*
X159834019Y-83112010D01*
X159817224Y-83044189D01*
X159839761Y-82978054D01*
X159894476Y-82934603D01*
X159941110Y-82925500D01*
X181561607Y-82925500D01*
X181622029Y-82913481D01*
X181682452Y-82901463D01*
X181715792Y-82887652D01*
X181796286Y-82854312D01*
X181847509Y-82820084D01*
X181898733Y-82785858D01*
X181985858Y-82698733D01*
X181985858Y-82698731D01*
X181996066Y-82688524D01*
X181996067Y-82688521D01*
X182699602Y-81984986D01*
X188430001Y-81984986D01*
X188440494Y-82087697D01*
X188495641Y-82254119D01*
X188495643Y-82254124D01*
X188587684Y-82403345D01*
X188711654Y-82527315D01*
X188860875Y-82619356D01*
X188860880Y-82619358D01*
X189027302Y-82674505D01*
X189027309Y-82674506D01*
X189130019Y-82684999D01*
X189179999Y-82684998D01*
X189180000Y-82684998D01*
X189180000Y-81710000D01*
X188430001Y-81710000D01*
X188430001Y-81984986D01*
X182699602Y-81984986D01*
X183749576Y-80935013D01*
X188430000Y-80935013D01*
X188430000Y-81210000D01*
X189180000Y-81210000D01*
X189180000Y-80235000D01*
X189179999Y-80234999D01*
X189130029Y-80235000D01*
X189130011Y-80235001D01*
X189027302Y-80245494D01*
X188860880Y-80300641D01*
X188860875Y-80300643D01*
X188711654Y-80392684D01*
X188587684Y-80516654D01*
X188495643Y-80665875D01*
X188495641Y-80665880D01*
X188440494Y-80832302D01*
X188440493Y-80832309D01*
X188430000Y-80935013D01*
X183749576Y-80935013D01*
X185822772Y-78861819D01*
X185884095Y-78828334D01*
X185910453Y-78825500D01*
X187594786Y-78825500D01*
X187661825Y-78845185D01*
X187697888Y-78880609D01*
X187763443Y-78978720D01*
X187906281Y-79121558D01*
X188074237Y-79233782D01*
X188074241Y-79233784D01*
X188074244Y-79233786D01*
X188260873Y-79311091D01*
X188398930Y-79338552D01*
X188458992Y-79350499D01*
X188458996Y-79350500D01*
X188458997Y-79350500D01*
X188661004Y-79350500D01*
X188661005Y-79350499D01*
X188859127Y-79311091D01*
X189045756Y-79233786D01*
X189126562Y-79179792D01*
X189193234Y-79158917D01*
X189260614Y-79177401D01*
X189264340Y-79179795D01*
X189344479Y-79233343D01*
X189344486Y-79233347D01*
X189531016Y-79310609D01*
X189531025Y-79310612D01*
X189580000Y-79320353D01*
X189580000Y-78480330D01*
X189599745Y-78500075D01*
X189685255Y-78549444D01*
X189780630Y-78575000D01*
X189879370Y-78575000D01*
X189974745Y-78549444D01*
X190060255Y-78500075D01*
X190074501Y-78485829D01*
X190074501Y-78650106D01*
X190079358Y-78697643D01*
X190080000Y-78710245D01*
X190080000Y-79320352D01*
X190128974Y-79310612D01*
X190128983Y-79310609D01*
X190320730Y-79231186D01*
X190325652Y-79230656D01*
X190329738Y-79227857D01*
X190360049Y-79226958D01*
X190390199Y-79223717D01*
X190395980Y-79225893D01*
X190399577Y-79225787D01*
X190427963Y-79237934D01*
X190432102Y-79239492D01*
X190432684Y-79239842D01*
X190505609Y-79284823D01*
X190509721Y-79286185D01*
X190519420Y-79292020D01*
X190538824Y-79313116D01*
X190560340Y-79332059D01*
X190562218Y-79338552D01*
X190566719Y-79343445D01*
X190571382Y-79370219D01*
X190579500Y-79398275D01*
X190579500Y-80372770D01*
X190559815Y-80439809D01*
X190543181Y-80460451D01*
X190487288Y-80516343D01*
X190487283Y-80516349D01*
X190485241Y-80519661D01*
X190483247Y-80521453D01*
X190482807Y-80522011D01*
X190482711Y-80521935D01*
X190433291Y-80566383D01*
X190364328Y-80577602D01*
X190300247Y-80549755D01*
X190274168Y-80519656D01*
X190272319Y-80516659D01*
X190272316Y-80516655D01*
X190148345Y-80392684D01*
X189999124Y-80300643D01*
X189999119Y-80300641D01*
X189832697Y-80245494D01*
X189832690Y-80245493D01*
X189729986Y-80235000D01*
X189680000Y-80235000D01*
X189680000Y-82684999D01*
X189729972Y-82684999D01*
X189729986Y-82684998D01*
X189832697Y-82674505D01*
X189999119Y-82619358D01*
X189999124Y-82619356D01*
X190148345Y-82527315D01*
X190272318Y-82403342D01*
X190274165Y-82400348D01*
X190275969Y-82398724D01*
X190276798Y-82397677D01*
X190276976Y-82397818D01*
X190326110Y-82353621D01*
X190395073Y-82342396D01*
X190459156Y-82370236D01*
X190485243Y-82400341D01*
X190487288Y-82403656D01*
X190611344Y-82527712D01*
X190760666Y-82619814D01*
X190927203Y-82674999D01*
X191029991Y-82685500D01*
X191630008Y-82685499D01*
X191630016Y-82685498D01*
X191630019Y-82685498D01*
X191686302Y-82679748D01*
X191732797Y-82674999D01*
X191899334Y-82619814D01*
X192048656Y-82527712D01*
X192172712Y-82403656D01*
X192264814Y-82254334D01*
X192319999Y-82087797D01*
X192330500Y-81985009D01*
X192330499Y-80934992D01*
X192319999Y-80832203D01*
X192264814Y-80665666D01*
X192172712Y-80516344D01*
X192116819Y-80460451D01*
X192083334Y-80399128D01*
X192080500Y-80372770D01*
X192080500Y-78877000D01*
X192086794Y-78837996D01*
X192090935Y-78825500D01*
X192115000Y-78752877D01*
X192125500Y-78650099D01*
X192125499Y-77749902D01*
X192123065Y-77726079D01*
X192115000Y-77647123D01*
X192114999Y-77647120D01*
X192114523Y-77645684D01*
X192059823Y-77480609D01*
X192059819Y-77480603D01*
X192059818Y-77480600D01*
X191967734Y-77331310D01*
X191967731Y-77331306D01*
X191843693Y-77207268D01*
X191843689Y-77207265D01*
X191694399Y-77115181D01*
X191694393Y-77115178D01*
X191694391Y-77115177D01*
X191616565Y-77089388D01*
X191527878Y-77060000D01*
X191425100Y-77049500D01*
X190774908Y-77049500D01*
X190774890Y-77049501D01*
X190672123Y-77059999D01*
X190672120Y-77060000D01*
X190505611Y-77115176D01*
X190505602Y-77115181D01*
X190433276Y-77159791D01*
X190365883Y-77178231D01*
X190320728Y-77168813D01*
X190128984Y-77089390D01*
X190128977Y-77089388D01*
X190080000Y-77079645D01*
X190080000Y-77689746D01*
X190079358Y-77702349D01*
X190074500Y-77749894D01*
X190074500Y-77749901D01*
X190074500Y-77914170D01*
X190060255Y-77899925D01*
X189974745Y-77850556D01*
X189879370Y-77825000D01*
X189780630Y-77825000D01*
X189685255Y-77850556D01*
X189599745Y-77899925D01*
X189580000Y-77919670D01*
X189580000Y-77079646D01*
X189579999Y-77079645D01*
X189531022Y-77089388D01*
X189531015Y-77089390D01*
X189344481Y-77166654D01*
X189344479Y-77166655D01*
X189264337Y-77220204D01*
X189197660Y-77241081D01*
X189130280Y-77222596D01*
X189126558Y-77220204D01*
X189045754Y-77166212D01*
X188859127Y-77088909D01*
X188859119Y-77088907D01*
X188661007Y-77049500D01*
X188661003Y-77049500D01*
X188458997Y-77049500D01*
X188458992Y-77049500D01*
X188260880Y-77088907D01*
X188260872Y-77088909D01*
X188074247Y-77166212D01*
X188074237Y-77166217D01*
X187906281Y-77278441D01*
X187763443Y-77421279D01*
X187697888Y-77519391D01*
X187644276Y-77564196D01*
X187594786Y-77574500D01*
X185667741Y-77574500D01*
X185667721Y-77574499D01*
X185661607Y-77574499D01*
X185538394Y-77574499D01*
X185437597Y-77594548D01*
X185437592Y-77594548D01*
X185417550Y-77598536D01*
X185417548Y-77598537D01*
X185389256Y-77610256D01*
X185389255Y-77610256D01*
X185303721Y-77645684D01*
X185303708Y-77645691D01*
X185201267Y-77714141D01*
X185201263Y-77714144D01*
X181277229Y-81638181D01*
X181215906Y-81671666D01*
X181189548Y-81674500D01*
X168709451Y-81674500D01*
X168642412Y-81654815D01*
X168596657Y-81602011D01*
X168586713Y-81532853D01*
X168615738Y-81469297D01*
X168621770Y-81462819D01*
X171701641Y-78382948D01*
X174822434Y-75262154D01*
X174883755Y-75228671D01*
X174885846Y-75228235D01*
X174918913Y-75221658D01*
X175055495Y-75165084D01*
X175178416Y-75082951D01*
X175282951Y-74978416D01*
X175365084Y-74855495D01*
X175421658Y-74718913D01*
X175450500Y-74573918D01*
X175450500Y-74426082D01*
X175450500Y-74426079D01*
X175421659Y-74281092D01*
X175421658Y-74281091D01*
X175421658Y-74281087D01*
X175406505Y-74244505D01*
X175365087Y-74144511D01*
X175365080Y-74144498D01*
X175282951Y-74021584D01*
X175282948Y-74021580D01*
X175178419Y-73917051D01*
X175178415Y-73917048D01*
X175055501Y-73834919D01*
X175055488Y-73834912D01*
X174918917Y-73778343D01*
X174918907Y-73778340D01*
X174773920Y-73749500D01*
X174773918Y-73749500D01*
X174626082Y-73749500D01*
X174626080Y-73749500D01*
X174481092Y-73778340D01*
X174481082Y-73778343D01*
X174344511Y-73834912D01*
X174344498Y-73834919D01*
X174221584Y-73917048D01*
X174221580Y-73917051D01*
X174117051Y-74021580D01*
X174117048Y-74021584D01*
X174034919Y-74144498D01*
X174034914Y-74144508D01*
X173979280Y-74278821D01*
X173935439Y-74333224D01*
X173869145Y-74355289D01*
X173830525Y-74350560D01*
X172738100Y-74037159D01*
X172679088Y-73999751D01*
X172649668Y-73936377D01*
X172659182Y-73867158D01*
X172662938Y-73859510D01*
X172665080Y-73855499D01*
X172665084Y-73855495D01*
X172721658Y-73718913D01*
X172750500Y-73573918D01*
X172750500Y-73426082D01*
X172750500Y-73426079D01*
X172721659Y-73281092D01*
X172721658Y-73281091D01*
X172721658Y-73281087D01*
X172694226Y-73214859D01*
X172665087Y-73144511D01*
X172665080Y-73144498D01*
X172582951Y-73021584D01*
X172582948Y-73021580D01*
X172478419Y-72917051D01*
X172478415Y-72917048D01*
X172355501Y-72834919D01*
X172355488Y-72834912D01*
X172218917Y-72778343D01*
X172218907Y-72778340D01*
X172073920Y-72749500D01*
X172073918Y-72749500D01*
X171926082Y-72749500D01*
X171926080Y-72749500D01*
X171781092Y-72778340D01*
X171781082Y-72778343D01*
X171644511Y-72834912D01*
X171644498Y-72834919D01*
X171521584Y-72917048D01*
X171521580Y-72917051D01*
X171417051Y-73021580D01*
X171417048Y-73021584D01*
X171334919Y-73144498D01*
X171334912Y-73144511D01*
X171278342Y-73281084D01*
X171278340Y-73281090D01*
X171271779Y-73314077D01*
X171263013Y-73330833D01*
X171258994Y-73349311D01*
X171240250Y-73374349D01*
X171239393Y-73375988D01*
X171237843Y-73377565D01*
X171111400Y-73504008D01*
X171050077Y-73537493D01*
X170989525Y-73535519D01*
X170980866Y-73533035D01*
X170864147Y-73499550D01*
X169847145Y-73207787D01*
X169788133Y-73170379D01*
X169758713Y-73107005D01*
X169768227Y-73037786D01*
X169813652Y-72984698D01*
X169833890Y-72974033D01*
X169855488Y-72965087D01*
X169855488Y-72965086D01*
X169855495Y-72965084D01*
X169978416Y-72882951D01*
X170082951Y-72778416D01*
X170165084Y-72655495D01*
X170221658Y-72518913D01*
X170243053Y-72411356D01*
X170250500Y-72373920D01*
X170250500Y-72226079D01*
X170221659Y-72081092D01*
X170221658Y-72081091D01*
X170221658Y-72081087D01*
X170220071Y-72077256D01*
X170165087Y-71944511D01*
X170165080Y-71944498D01*
X170082951Y-71821584D01*
X170082948Y-71821580D01*
X169978419Y-71717051D01*
X169978415Y-71717048D01*
X169855501Y-71634919D01*
X169855488Y-71634912D01*
X169718917Y-71578343D01*
X169718907Y-71578340D01*
X169573920Y-71549500D01*
X169573918Y-71549500D01*
X169426082Y-71549500D01*
X169426080Y-71549500D01*
X169281092Y-71578340D01*
X169281082Y-71578343D01*
X169144511Y-71634912D01*
X169144498Y-71634919D01*
X169021584Y-71717048D01*
X169021580Y-71717051D01*
X168917051Y-71821580D01*
X168917048Y-71821584D01*
X168834919Y-71944498D01*
X168834912Y-71944511D01*
X168778342Y-72081084D01*
X168778340Y-72081090D01*
X168771779Y-72114077D01*
X168739393Y-72175988D01*
X168737843Y-72177565D01*
X168236241Y-72679167D01*
X168174918Y-72712652D01*
X168114366Y-72710678D01*
X167960592Y-72666562D01*
X167663591Y-72581357D01*
X167604580Y-72543949D01*
X167575160Y-72480575D01*
X167584674Y-72411356D01*
X167610102Y-72374487D01*
X168022435Y-71962154D01*
X168083756Y-71928671D01*
X168085858Y-71928232D01*
X168118913Y-71921658D01*
X168255495Y-71865084D01*
X168378416Y-71782951D01*
X168482951Y-71678416D01*
X168565084Y-71555495D01*
X168621658Y-71418913D01*
X168642712Y-71313072D01*
X168650500Y-71273920D01*
X168650500Y-71126079D01*
X168621659Y-70981092D01*
X168621658Y-70981089D01*
X168621658Y-70981087D01*
X168621656Y-70981082D01*
X168565087Y-70844511D01*
X168565080Y-70844498D01*
X168482951Y-70721584D01*
X168482948Y-70721580D01*
X168378419Y-70617051D01*
X168378415Y-70617048D01*
X168255501Y-70534919D01*
X168255488Y-70534912D01*
X168118917Y-70478343D01*
X168118907Y-70478340D01*
X167973920Y-70449500D01*
X167973918Y-70449500D01*
X167826082Y-70449500D01*
X167826080Y-70449500D01*
X167681092Y-70478340D01*
X167681082Y-70478343D01*
X167544511Y-70534912D01*
X167544498Y-70534919D01*
X167421584Y-70617048D01*
X167421580Y-70617051D01*
X167317051Y-70721580D01*
X167317048Y-70721584D01*
X167234919Y-70844498D01*
X167234912Y-70844511D01*
X167178342Y-70981084D01*
X167178341Y-70981089D01*
X167171779Y-71014077D01*
X167139393Y-71075987D01*
X167137843Y-71077564D01*
X166138151Y-72077256D01*
X166076828Y-72110741D01*
X166016276Y-72108767D01*
X165919791Y-72081087D01*
X164854196Y-71775383D01*
X164795185Y-71737976D01*
X164785287Y-71725080D01*
X164782950Y-71721582D01*
X164678419Y-71617051D01*
X164678415Y-71617048D01*
X164555501Y-71534919D01*
X164555488Y-71534912D01*
X164418917Y-71478343D01*
X164418907Y-71478340D01*
X164273920Y-71449500D01*
X164273918Y-71449500D01*
X164126082Y-71449500D01*
X164126080Y-71449500D01*
X163981088Y-71478341D01*
X163981085Y-71478342D01*
X163954686Y-71489276D01*
X163885216Y-71496742D01*
X163873043Y-71493905D01*
X163340305Y-71341070D01*
X163281294Y-71303662D01*
X163251874Y-71240288D01*
X163250500Y-71221878D01*
X163250500Y-71126079D01*
X163221659Y-70981092D01*
X163221658Y-70981089D01*
X163221658Y-70981087D01*
X163221656Y-70981082D01*
X163165087Y-70844511D01*
X163165080Y-70844498D01*
X163082951Y-70721584D01*
X163082948Y-70721580D01*
X162978419Y-70617051D01*
X162978415Y-70617048D01*
X162855501Y-70534919D01*
X162855488Y-70534912D01*
X162718917Y-70478343D01*
X162718907Y-70478340D01*
X162573920Y-70449500D01*
X162573918Y-70449500D01*
X162426082Y-70449500D01*
X162426080Y-70449500D01*
X162281092Y-70478340D01*
X162281082Y-70478343D01*
X162144511Y-70534912D01*
X162144498Y-70534919D01*
X162021584Y-70617048D01*
X162021580Y-70617051D01*
X161917051Y-70721580D01*
X161917048Y-70721584D01*
X161834919Y-70844498D01*
X161834912Y-70844511D01*
X161778342Y-70981084D01*
X161778340Y-70981092D01*
X161763000Y-71058210D01*
X161730615Y-71120121D01*
X161729064Y-71121699D01*
X158887584Y-73963181D01*
X158826261Y-73996666D01*
X158799903Y-73999500D01*
X132089767Y-73999500D01*
X132022728Y-73979815D01*
X132020876Y-73978602D01*
X131955501Y-73934919D01*
X131955488Y-73934912D01*
X131818917Y-73878343D01*
X131818907Y-73878340D01*
X131673920Y-73849500D01*
X131673918Y-73849500D01*
X131526082Y-73849500D01*
X131526080Y-73849500D01*
X131381092Y-73878340D01*
X131381082Y-73878343D01*
X131244511Y-73934912D01*
X131244498Y-73934919D01*
X131121584Y-74017048D01*
X131121580Y-74017051D01*
X131017051Y-74121580D01*
X131017048Y-74121584D01*
X130934919Y-74244498D01*
X130934912Y-74244511D01*
X130878343Y-74381082D01*
X130878340Y-74381092D01*
X130849500Y-74526079D01*
X130849500Y-74526082D01*
X130849500Y-74673918D01*
X130849500Y-74673920D01*
X130849499Y-74673920D01*
X130878340Y-74818907D01*
X130878343Y-74818917D01*
X130934912Y-74955488D01*
X130934919Y-74955501D01*
X131017048Y-75078415D01*
X131017051Y-75078419D01*
X131121583Y-75182951D01*
X131196230Y-75232828D01*
X131241035Y-75286440D01*
X131249742Y-75355765D01*
X131219588Y-75418792D01*
X131215021Y-75423611D01*
X131117048Y-75521584D01*
X131034919Y-75644498D01*
X131034912Y-75644511D01*
X130978343Y-75781082D01*
X130978340Y-75781092D01*
X130949500Y-75926079D01*
X130949500Y-75926082D01*
X130949500Y-76073918D01*
X130949500Y-76073920D01*
X130949499Y-76073920D01*
X130978340Y-76218907D01*
X130978343Y-76218917D01*
X131034912Y-76355488D01*
X131034919Y-76355501D01*
X131117048Y-76478415D01*
X131117051Y-76478419D01*
X131221580Y-76582948D01*
X131221584Y-76582951D01*
X131344498Y-76665080D01*
X131344511Y-76665087D01*
X131469960Y-76717049D01*
X131481087Y-76721658D01*
X131481091Y-76721658D01*
X131481092Y-76721659D01*
X131626079Y-76750500D01*
X131626082Y-76750500D01*
X131773920Y-76750500D01*
X131887312Y-76727944D01*
X131918913Y-76721658D01*
X132055495Y-76665084D01*
X132120876Y-76621398D01*
X132187553Y-76600520D01*
X132189767Y-76600500D01*
X137538770Y-76600500D01*
X137605809Y-76620185D01*
X137651564Y-76672989D01*
X137661508Y-76742147D01*
X137632483Y-76805703D01*
X137626451Y-76812181D01*
X137617051Y-76821580D01*
X137617048Y-76821584D01*
X137534919Y-76944498D01*
X137534912Y-76944511D01*
X137478343Y-77081082D01*
X137478340Y-77081092D01*
X137449500Y-77226079D01*
X137449500Y-77226082D01*
X137449500Y-77373918D01*
X137449500Y-77373920D01*
X137449499Y-77373920D01*
X137478340Y-77518907D01*
X137478343Y-77518917D01*
X137534912Y-77655488D01*
X137534919Y-77655501D01*
X137617048Y-77778415D01*
X137617051Y-77778419D01*
X137650951Y-77812319D01*
X137684436Y-77873642D01*
X137679452Y-77943334D01*
X137650951Y-77987681D01*
X137617051Y-78021580D01*
X137617048Y-78021584D01*
X137534919Y-78144498D01*
X137534912Y-78144511D01*
X137478343Y-78281082D01*
X137478340Y-78281092D01*
X137449500Y-78426079D01*
X137449500Y-78426082D01*
X137449500Y-78573918D01*
X137449500Y-78573920D01*
X137449499Y-78573920D01*
X137478340Y-78718907D01*
X137478343Y-78718917D01*
X137534912Y-78855488D01*
X137534919Y-78855501D01*
X137617048Y-78978415D01*
X137617051Y-78978419D01*
X137721580Y-79082948D01*
X137721586Y-79082953D01*
X137742457Y-79096899D01*
X137787261Y-79150511D01*
X137795968Y-79219836D01*
X137765813Y-79282864D01*
X137742457Y-79303101D01*
X137721586Y-79317046D01*
X137721580Y-79317051D01*
X137617051Y-79421580D01*
X137617048Y-79421584D01*
X137534919Y-79544498D01*
X137534912Y-79544511D01*
X137478343Y-79681082D01*
X137478340Y-79681092D01*
X137449500Y-79826079D01*
X137449500Y-79826082D01*
X137449500Y-79973918D01*
X137449500Y-79973920D01*
X137449499Y-79973920D01*
X137478340Y-80118907D01*
X137478343Y-80118917D01*
X137534912Y-80255488D01*
X137534919Y-80255501D01*
X137617048Y-80378415D01*
X137617051Y-80378419D01*
X137700951Y-80462319D01*
X137734436Y-80523642D01*
X137729452Y-80593334D01*
X137700951Y-80637681D01*
X137617051Y-80721580D01*
X137617048Y-80721584D01*
X137534919Y-80844498D01*
X137534912Y-80844511D01*
X137478343Y-80981082D01*
X137478340Y-80981092D01*
X137449500Y-81126079D01*
X137449500Y-81126082D01*
X137449500Y-81273918D01*
X137449500Y-81273920D01*
X137449499Y-81273920D01*
X137478340Y-81418907D01*
X137478343Y-81418917D01*
X137534912Y-81555488D01*
X137534919Y-81555501D01*
X137617048Y-81678415D01*
X137617051Y-81678419D01*
X137721580Y-81782948D01*
X137721584Y-81782951D01*
X137844498Y-81865080D01*
X137844511Y-81865087D01*
X137981082Y-81921656D01*
X137981087Y-81921658D01*
X137981091Y-81921658D01*
X137981092Y-81921659D01*
X138126079Y-81950500D01*
X138126082Y-81950500D01*
X138273920Y-81950500D01*
X138371462Y-81931096D01*
X138418913Y-81921658D01*
X138555495Y-81865084D01*
X138583462Y-81846396D01*
X138650137Y-81825520D01*
X138652351Y-81825500D01*
X144790547Y-81825500D01*
X144857586Y-81845185D01*
X144903341Y-81897989D01*
X144913285Y-81967147D01*
X144884260Y-82030703D01*
X144878228Y-82037181D01*
X133051729Y-93863681D01*
X132990406Y-93897166D01*
X132964048Y-93900000D01*
X115219308Y-93900000D01*
X115152269Y-93880315D01*
X115106514Y-93827511D01*
X115096570Y-93758353D01*
X115125595Y-93694797D01*
X115131627Y-93688319D01*
X117705273Y-91114672D01*
X117705272Y-91114672D01*
X117705276Y-91114669D01*
X117776465Y-91008127D01*
X117825501Y-90889744D01*
X117834264Y-90845689D01*
X117850500Y-90764069D01*
X117850500Y-78920807D01*
X117870185Y-78853768D01*
X117886819Y-78833126D01*
X119433126Y-77286819D01*
X119494449Y-77253334D01*
X119520807Y-77250500D01*
X124579192Y-77250500D01*
X124646231Y-77270185D01*
X124666873Y-77286819D01*
X125347398Y-77967344D01*
X125375149Y-78013643D01*
X125376011Y-78013286D01*
X125434912Y-78155488D01*
X125434919Y-78155501D01*
X125517048Y-78278415D01*
X125517051Y-78278419D01*
X125621580Y-78382948D01*
X125621584Y-78382951D01*
X125744498Y-78465080D01*
X125744511Y-78465087D01*
X125881082Y-78521656D01*
X125881087Y-78521658D01*
X125881091Y-78521658D01*
X125881092Y-78521659D01*
X126026079Y-78550500D01*
X126026082Y-78550500D01*
X126173920Y-78550500D01*
X126271462Y-78531096D01*
X126318913Y-78521658D01*
X126424547Y-78477902D01*
X126455488Y-78465087D01*
X126455488Y-78465086D01*
X126455495Y-78465084D01*
X126578416Y-78382951D01*
X126682951Y-78278416D01*
X126765084Y-78155495D01*
X126821658Y-78018913D01*
X126845327Y-77899925D01*
X126850500Y-77873920D01*
X126850500Y-77726079D01*
X126821659Y-77581092D01*
X126821658Y-77581091D01*
X126821658Y-77581087D01*
X126796103Y-77519391D01*
X126765087Y-77444511D01*
X126765080Y-77444498D01*
X126682951Y-77321584D01*
X126682948Y-77321580D01*
X126578419Y-77217051D01*
X126578415Y-77217048D01*
X126455501Y-77134919D01*
X126455488Y-77134912D01*
X126313286Y-77076011D01*
X126313643Y-77075149D01*
X126267344Y-77047398D01*
X125314674Y-76094727D01*
X125314673Y-76094726D01*
X125314669Y-76094723D01*
X125208127Y-76023535D01*
X125208122Y-76023533D01*
X125089744Y-75974499D01*
X125089738Y-75974497D01*
X124964071Y-75949500D01*
X124964069Y-75949500D01*
X119135931Y-75949500D01*
X119135929Y-75949500D01*
X119010261Y-75974497D01*
X119010255Y-75974499D01*
X118891875Y-76023533D01*
X118891866Y-76023538D01*
X118785331Y-76094723D01*
X118785327Y-76094726D01*
X116694727Y-78185325D01*
X116694721Y-78185332D01*
X116639341Y-78268215D01*
X116639342Y-78268216D01*
X116623534Y-78291874D01*
X116574499Y-78410255D01*
X116574497Y-78410261D01*
X116549500Y-78535928D01*
X116549500Y-90379192D01*
X116529815Y-90446231D01*
X116513181Y-90466873D01*
X112994722Y-93985331D01*
X112994720Y-93985333D01*
X112964708Y-94030253D01*
X112964706Y-94030256D01*
X112923538Y-94091867D01*
X112923533Y-94091875D01*
X112874499Y-94210255D01*
X112874497Y-94210261D01*
X112849500Y-94335928D01*
X112849500Y-94335931D01*
X112849500Y-113264069D01*
X112849500Y-113264071D01*
X112849499Y-113264071D01*
X112874497Y-113389738D01*
X112874499Y-113389744D01*
X112923535Y-113508127D01*
X112994723Y-113614669D01*
X112994726Y-113614673D01*
X112994727Y-113614674D01*
X113847398Y-114467344D01*
X113875149Y-114513643D01*
X113876011Y-114513286D01*
X113934912Y-114655488D01*
X113934919Y-114655501D01*
X114017048Y-114778415D01*
X114017051Y-114778419D01*
X114121580Y-114882948D01*
X114121584Y-114882951D01*
X114244498Y-114965080D01*
X114244511Y-114965087D01*
X114386715Y-115023989D01*
X114386357Y-115024853D01*
X114432655Y-115052601D01*
X116113181Y-116733127D01*
X116146666Y-116794450D01*
X116149500Y-116820808D01*
X116149500Y-123964069D01*
X116160583Y-124019786D01*
X116160941Y-124021583D01*
X116160941Y-124021585D01*
X116174497Y-124089736D01*
X116174499Y-124089744D01*
X116221994Y-124204408D01*
X116223535Y-124208127D01*
X116291600Y-124309995D01*
X116294726Y-124314673D01*
X122085324Y-130105271D01*
X122085331Y-130105277D01*
X122191871Y-130176464D01*
X122191870Y-130176464D01*
X122226544Y-130190826D01*
X122310256Y-130225501D01*
X122310260Y-130225501D01*
X122310261Y-130225502D01*
X122435928Y-130250500D01*
X124235053Y-130250500D01*
X124302092Y-130270185D01*
X124347847Y-130322989D01*
X124357791Y-130392147D01*
X124328766Y-130455703D01*
X124282508Y-130489059D01*
X124259572Y-130498560D01*
X124259569Y-130498561D01*
X124259561Y-130498565D01*
X124069929Y-130608049D01*
X123896201Y-130741355D01*
X123896194Y-130741361D01*
X123741361Y-130896194D01*
X123741355Y-130896201D01*
X123608049Y-131069929D01*
X123498565Y-131259561D01*
X123498560Y-131259573D01*
X123414758Y-131461884D01*
X123358084Y-131673399D01*
X123358082Y-131673410D01*
X123329500Y-131890502D01*
X123329500Y-132109497D01*
X123351623Y-132277533D01*
X123358083Y-132326598D01*
X123358084Y-132326600D01*
X123408403Y-132514399D01*
X123414759Y-132538117D01*
X123498560Y-132740428D01*
X123498562Y-132740433D01*
X123498565Y-132740438D01*
X123608049Y-132930070D01*
X123741355Y-133103798D01*
X123741361Y-133103805D01*
X123896194Y-133258638D01*
X123896201Y-133258644D01*
X124069929Y-133391950D01*
X124259561Y-133501434D01*
X124259563Y-133501434D01*
X124259572Y-133501440D01*
X124461883Y-133585241D01*
X124673402Y-133641917D01*
X124890510Y-133670500D01*
X124890517Y-133670500D01*
X125109483Y-133670500D01*
X125109490Y-133670500D01*
X125326598Y-133641917D01*
X125538117Y-133585241D01*
X125740428Y-133501440D01*
X125930071Y-133391950D01*
X126103800Y-133258643D01*
X126258643Y-133103800D01*
X126391950Y-132930071D01*
X126501440Y-132740428D01*
X126585241Y-132538117D01*
X126641917Y-132326598D01*
X126670500Y-132109490D01*
X126670500Y-131890510D01*
X126641917Y-131673402D01*
X126585241Y-131461883D01*
X126501440Y-131259572D01*
X126500945Y-131258715D01*
X126391950Y-131069929D01*
X126258644Y-130896201D01*
X126258638Y-130896194D01*
X126103805Y-130741361D01*
X126103798Y-130741355D01*
X125930070Y-130608049D01*
X125740438Y-130498565D01*
X125740433Y-130498562D01*
X125740428Y-130498560D01*
X125717492Y-130489059D01*
X125663091Y-130445220D01*
X125641026Y-130378925D01*
X125658305Y-130311226D01*
X125709443Y-130263616D01*
X125764947Y-130250500D01*
X129235053Y-130250500D01*
X129302092Y-130270185D01*
X129347847Y-130322989D01*
X129357791Y-130392147D01*
X129328766Y-130455703D01*
X129282508Y-130489059D01*
X129259572Y-130498560D01*
X129259569Y-130498561D01*
X129259561Y-130498565D01*
X129069929Y-130608049D01*
X128896201Y-130741355D01*
X128896194Y-130741361D01*
X128741361Y-130896194D01*
X128741355Y-130896201D01*
X128608049Y-131069929D01*
X128498565Y-131259561D01*
X128498560Y-131259573D01*
X128414758Y-131461884D01*
X128358084Y-131673399D01*
X128358082Y-131673410D01*
X128329500Y-131890502D01*
X128329500Y-132109497D01*
X128351623Y-132277533D01*
X128358083Y-132326598D01*
X128358084Y-132326600D01*
X128408403Y-132514399D01*
X128414759Y-132538117D01*
X128498560Y-132740428D01*
X128498562Y-132740433D01*
X128498565Y-132740438D01*
X128608049Y-132930070D01*
X128741355Y-133103798D01*
X128741361Y-133103805D01*
X128896194Y-133258638D01*
X128896201Y-133258644D01*
X129069929Y-133391950D01*
X129259561Y-133501434D01*
X129259563Y-133501434D01*
X129259572Y-133501440D01*
X129461883Y-133585241D01*
X129673402Y-133641917D01*
X129890510Y-133670500D01*
X129890517Y-133670500D01*
X130109483Y-133670500D01*
X130109490Y-133670500D01*
X130326598Y-133641917D01*
X130538117Y-133585241D01*
X130740428Y-133501440D01*
X130930071Y-133391950D01*
X131103800Y-133258643D01*
X131258643Y-133103800D01*
X131391950Y-132930071D01*
X131501440Y-132740428D01*
X131585241Y-132538117D01*
X131641917Y-132326598D01*
X131670500Y-132109490D01*
X131670500Y-131890510D01*
X131641917Y-131673402D01*
X131585241Y-131461883D01*
X131501440Y-131259572D01*
X131500945Y-131258715D01*
X131391950Y-131069929D01*
X131258644Y-130896201D01*
X131258638Y-130896194D01*
X131103805Y-130741361D01*
X131103798Y-130741355D01*
X130930070Y-130608049D01*
X130853756Y-130563989D01*
X130853735Y-130563977D01*
X130740428Y-130498560D01*
X130711429Y-130486548D01*
X130705682Y-130483421D01*
X130685394Y-130463193D01*
X130663091Y-130445220D01*
X130660966Y-130438837D01*
X130656204Y-130434089D01*
X130650073Y-130406107D01*
X130641026Y-130378925D01*
X130642689Y-130372407D01*
X130641250Y-130365838D01*
X130651219Y-130338985D01*
X130658305Y-130311226D01*
X130663228Y-130306642D01*
X130665569Y-130300338D01*
X130688475Y-130283136D01*
X130709443Y-130263616D01*
X130716780Y-130261882D01*
X130721440Y-130258383D01*
X130736125Y-130257310D01*
X130764947Y-130250500D01*
X131364071Y-130250500D01*
X131448615Y-130233682D01*
X131489744Y-130225501D01*
X131608127Y-130176465D01*
X131714669Y-130105277D01*
X133113127Y-128706819D01*
X133174450Y-128673334D01*
X133200808Y-128670500D01*
X140156399Y-128670500D01*
X140223438Y-128690185D01*
X140256717Y-128721615D01*
X140301717Y-128783552D01*
X140344519Y-128842464D01*
X140485036Y-128982981D01*
X140645806Y-129099787D01*
X140802832Y-129179796D01*
X140853627Y-129227769D01*
X140870422Y-129295590D01*
X140847885Y-129361725D01*
X140802832Y-129400764D01*
X140646066Y-129480641D01*
X140608783Y-129507729D01*
X140608782Y-129507730D01*
X141171558Y-130070504D01*
X141111419Y-130086619D01*
X140995580Y-130153498D01*
X140900998Y-130248080D01*
X140834119Y-130363919D01*
X140818004Y-130424057D01*
X140255230Y-129861282D01*
X140255229Y-129861283D01*
X140228143Y-129898564D01*
X140137957Y-130075562D01*
X140076575Y-130264476D01*
X140076575Y-130264479D01*
X140045500Y-130460678D01*
X140045500Y-130659321D01*
X140076575Y-130855520D01*
X140076575Y-130855523D01*
X140137957Y-131044437D01*
X140228141Y-131221432D01*
X140255230Y-131258715D01*
X140255231Y-131258716D01*
X140818004Y-130695942D01*
X140834119Y-130756081D01*
X140900998Y-130871920D01*
X140995580Y-130966502D01*
X141111419Y-131033381D01*
X141171557Y-131049494D01*
X140608783Y-131612268D01*
X140608783Y-131612269D01*
X140646067Y-131639358D01*
X140802831Y-131719234D01*
X140853627Y-131767209D01*
X140870422Y-131835030D01*
X140847884Y-131901165D01*
X140802831Y-131940204D01*
X140645805Y-132020213D01*
X140485033Y-132137021D01*
X140344521Y-132277533D01*
X140227713Y-132438305D01*
X140137494Y-132615367D01*
X140137493Y-132615370D01*
X140076087Y-132804362D01*
X140045000Y-133000639D01*
X140045000Y-133199360D01*
X140076087Y-133395637D01*
X140137493Y-133584629D01*
X140137494Y-133584632D01*
X140206810Y-133720670D01*
X140227713Y-133761694D01*
X140344519Y-133922464D01*
X140485036Y-134062981D01*
X140645806Y-134179787D01*
X140732649Y-134224035D01*
X140822867Y-134270005D01*
X140822870Y-134270006D01*
X140917366Y-134300709D01*
X141011864Y-134331413D01*
X141208139Y-134362500D01*
X141208140Y-134362500D01*
X141406860Y-134362500D01*
X141406861Y-134362500D01*
X141603136Y-134331413D01*
X141792132Y-134270005D01*
X141969194Y-134179787D01*
X142129964Y-134062981D01*
X142270481Y-133922464D01*
X142387287Y-133761694D01*
X142477505Y-133584632D01*
X142538913Y-133395636D01*
X142570000Y-133199361D01*
X142570000Y-133000639D01*
X142538913Y-132804364D01*
X142477505Y-132615368D01*
X142477505Y-132615367D01*
X142387286Y-132438305D01*
X142270481Y-132277536D01*
X142129964Y-132137019D01*
X141969194Y-132020213D01*
X141812167Y-131940203D01*
X141761372Y-131892229D01*
X141744577Y-131824408D01*
X141767114Y-131758273D01*
X141812169Y-131719234D01*
X141968922Y-131639364D01*
X142006216Y-131612268D01*
X141443442Y-131049494D01*
X141503581Y-131033381D01*
X141619420Y-130966502D01*
X141714002Y-130871920D01*
X141780881Y-130756081D01*
X141796995Y-130695942D01*
X142359768Y-131258715D01*
X142386862Y-131221425D01*
X142477042Y-131044437D01*
X142538424Y-130855523D01*
X142538424Y-130855520D01*
X142569500Y-130659321D01*
X142569500Y-130460678D01*
X142538424Y-130264479D01*
X142538424Y-130264476D01*
X142477042Y-130075562D01*
X142386858Y-129898567D01*
X142359768Y-129861283D01*
X141796994Y-130424057D01*
X141780881Y-130363919D01*
X141714002Y-130248080D01*
X141619420Y-130153498D01*
X141503581Y-130086619D01*
X141443442Y-130070504D01*
X142006216Y-129507731D01*
X142006215Y-129507730D01*
X141968932Y-129480641D01*
X141812168Y-129400765D01*
X141761372Y-129352790D01*
X141744577Y-129284969D01*
X141767115Y-129218834D01*
X141812167Y-129179796D01*
X141969194Y-129099787D01*
X142129964Y-128982981D01*
X142270481Y-128842464D01*
X142387287Y-128681694D01*
X142477505Y-128504632D01*
X142538913Y-128315636D01*
X142570000Y-128119361D01*
X142570000Y-127920639D01*
X142538913Y-127724364D01*
X142477505Y-127535368D01*
X142477505Y-127535367D01*
X142393734Y-127370959D01*
X142387287Y-127358306D01*
X142270481Y-127197536D01*
X142129964Y-127057019D01*
X141969194Y-126940213D01*
X141812718Y-126860484D01*
X141761923Y-126812510D01*
X141745128Y-126744689D01*
X141767665Y-126678554D01*
X141812718Y-126639515D01*
X141969194Y-126559787D01*
X142129964Y-126442981D01*
X142270481Y-126302464D01*
X142387287Y-126141694D01*
X142477505Y-125964632D01*
X142538913Y-125775636D01*
X142570000Y-125579361D01*
X142570000Y-125380639D01*
X142538913Y-125184364D01*
X142497812Y-125057868D01*
X142477506Y-124995370D01*
X142477505Y-124995367D01*
X142418874Y-124880298D01*
X142387287Y-124818306D01*
X142270481Y-124657536D01*
X142129964Y-124517019D01*
X141969194Y-124400213D01*
X141812718Y-124320484D01*
X141761923Y-124272510D01*
X141745128Y-124204689D01*
X141767665Y-124138554D01*
X141812718Y-124099515D01*
X141969194Y-124019787D01*
X142129964Y-123902981D01*
X142270481Y-123762464D01*
X142387287Y-123601694D01*
X142477505Y-123424632D01*
X142538913Y-123235636D01*
X142570000Y-123039361D01*
X142570000Y-122840639D01*
X142538913Y-122644364D01*
X142477505Y-122455368D01*
X142477505Y-122455367D01*
X142411893Y-122326598D01*
X142387287Y-122278306D01*
X142270481Y-122117536D01*
X142129964Y-121977019D01*
X141969194Y-121860213D01*
X141812718Y-121780484D01*
X141761923Y-121732510D01*
X141745128Y-121664689D01*
X141767665Y-121598554D01*
X141812718Y-121559515D01*
X141969194Y-121479787D01*
X142129964Y-121362981D01*
X142270481Y-121222464D01*
X142387287Y-121061694D01*
X142477505Y-120884632D01*
X142538913Y-120695636D01*
X142570000Y-120499361D01*
X142570000Y-120300639D01*
X142538913Y-120104364D01*
X142490992Y-119956878D01*
X142477506Y-119915370D01*
X142477505Y-119915367D01*
X142401424Y-119766051D01*
X142387287Y-119738306D01*
X142270481Y-119577536D01*
X142129964Y-119437019D01*
X141969194Y-119320213D01*
X141812718Y-119240484D01*
X141761923Y-119192510D01*
X141745128Y-119124689D01*
X141767665Y-119058554D01*
X141812718Y-119019515D01*
X141969194Y-118939787D01*
X142129964Y-118822981D01*
X142270481Y-118682464D01*
X142387287Y-118521694D01*
X142477505Y-118344632D01*
X142538913Y-118155636D01*
X142570000Y-117959361D01*
X142570000Y-117760639D01*
X142538913Y-117564364D01*
X142477505Y-117375368D01*
X142477505Y-117375367D01*
X142387286Y-117198305D01*
X142270481Y-117037536D01*
X142129964Y-116897019D01*
X141969194Y-116780213D01*
X141812718Y-116700484D01*
X141761923Y-116652510D01*
X141745128Y-116584689D01*
X141767665Y-116518554D01*
X141812718Y-116479515D01*
X141969194Y-116399787D01*
X142129964Y-116282981D01*
X142270481Y-116142464D01*
X142387287Y-115981694D01*
X142477505Y-115804632D01*
X142538913Y-115615636D01*
X142570000Y-115419361D01*
X142570000Y-115220639D01*
X142538913Y-115024364D01*
X142477505Y-114835368D01*
X142477505Y-114835367D01*
X142387286Y-114658305D01*
X142385249Y-114655501D01*
X142270481Y-114497536D01*
X142129964Y-114357019D01*
X141969194Y-114240213D01*
X141812718Y-114160484D01*
X141761923Y-114112510D01*
X141745128Y-114044689D01*
X141767665Y-113978554D01*
X141812718Y-113939515D01*
X141969194Y-113859787D01*
X142129964Y-113742981D01*
X142270481Y-113602464D01*
X142387287Y-113441694D01*
X142477505Y-113264632D01*
X142538913Y-113075636D01*
X142570000Y-112879361D01*
X142570000Y-112680639D01*
X142538913Y-112484364D01*
X142477505Y-112295368D01*
X142477505Y-112295367D01*
X142387286Y-112118305D01*
X142270481Y-111957536D01*
X142129964Y-111817019D01*
X141969194Y-111700213D01*
X141812718Y-111620484D01*
X141761923Y-111572510D01*
X141745128Y-111504689D01*
X141767665Y-111438554D01*
X141812718Y-111399515D01*
X141969194Y-111319787D01*
X142129964Y-111202981D01*
X142270481Y-111062464D01*
X142387287Y-110901694D01*
X142477505Y-110724632D01*
X142538913Y-110535636D01*
X142570000Y-110339361D01*
X142570000Y-110140639D01*
X142538913Y-109944364D01*
X142477505Y-109755368D01*
X142477505Y-109755367D01*
X142405763Y-109614568D01*
X142387287Y-109578306D01*
X142270481Y-109417536D01*
X142129964Y-109277019D01*
X141969194Y-109160213D01*
X141812718Y-109080484D01*
X141761923Y-109032510D01*
X141745128Y-108964689D01*
X141767665Y-108898554D01*
X141812718Y-108859515D01*
X141969194Y-108779787D01*
X142129964Y-108662981D01*
X142270481Y-108522464D01*
X142387287Y-108361694D01*
X142477505Y-108184632D01*
X142538913Y-107995636D01*
X142570000Y-107799361D01*
X142570000Y-107600639D01*
X142538913Y-107404364D01*
X142489449Y-107252127D01*
X142477506Y-107215370D01*
X142477505Y-107215367D01*
X142407175Y-107077338D01*
X142387287Y-107038306D01*
X142270481Y-106877536D01*
X142129964Y-106737019D01*
X141969194Y-106620213D01*
X141812718Y-106540484D01*
X141761923Y-106492510D01*
X141745128Y-106424689D01*
X141767665Y-106358554D01*
X141812718Y-106319515D01*
X141969194Y-106239787D01*
X142129964Y-106122981D01*
X142270481Y-105982464D01*
X142387287Y-105821694D01*
X142477505Y-105644632D01*
X142538913Y-105455636D01*
X142570000Y-105259361D01*
X142570000Y-105060639D01*
X142538913Y-104864364D01*
X142477505Y-104675368D01*
X142477505Y-104675367D01*
X142415824Y-104554313D01*
X142387287Y-104498306D01*
X142270481Y-104337536D01*
X142129964Y-104197019D01*
X141969194Y-104080213D01*
X141812718Y-104000484D01*
X141761923Y-103952510D01*
X141745128Y-103884689D01*
X141767665Y-103818554D01*
X141812718Y-103779515D01*
X141969194Y-103699787D01*
X142129964Y-103582981D01*
X142270481Y-103442464D01*
X142387287Y-103281694D01*
X142477505Y-103104632D01*
X142538913Y-102915636D01*
X142570000Y-102719361D01*
X142570000Y-102520639D01*
X142538913Y-102324364D01*
X142503679Y-102215925D01*
X142477506Y-102135370D01*
X142477505Y-102135367D01*
X142387286Y-101958305D01*
X142376161Y-101942993D01*
X142270481Y-101797536D01*
X142129964Y-101657019D01*
X141969194Y-101540213D01*
X141812718Y-101460484D01*
X141761923Y-101412510D01*
X141745128Y-101344689D01*
X141767665Y-101278554D01*
X141812718Y-101239515D01*
X141969194Y-101159787D01*
X142129964Y-101042981D01*
X142270481Y-100902464D01*
X142376447Y-100756613D01*
X142431777Y-100713949D01*
X142476765Y-100705500D01*
X144781608Y-100705500D01*
X144781608Y-100705499D01*
X144872558Y-100687409D01*
X144902452Y-100681463D01*
X144935792Y-100667652D01*
X145016286Y-100634312D01*
X145074369Y-100595501D01*
X145118733Y-100565858D01*
X145205858Y-100478733D01*
X145205858Y-100478731D01*
X145216066Y-100468524D01*
X145216067Y-100468521D01*
X148243950Y-97440639D01*
X162905000Y-97440639D01*
X162905000Y-97639360D01*
X162936087Y-97835637D01*
X162997493Y-98024629D01*
X162997494Y-98024632D01*
X163087713Y-98201694D01*
X163204519Y-98362464D01*
X163345036Y-98502981D01*
X163505806Y-98619787D01*
X163624332Y-98680179D01*
X163662280Y-98699515D01*
X163713076Y-98747490D01*
X163729871Y-98815311D01*
X163707333Y-98881446D01*
X163662280Y-98920485D01*
X163505805Y-99000213D01*
X163345033Y-99117021D01*
X163204521Y-99257533D01*
X163087713Y-99418305D01*
X162997494Y-99595367D01*
X162997493Y-99595370D01*
X162936087Y-99784362D01*
X162936087Y-99784364D01*
X162905000Y-99980639D01*
X162905000Y-100179361D01*
X162914316Y-100238181D01*
X162936087Y-100375637D01*
X162997493Y-100564629D01*
X162997494Y-100564632D01*
X163069271Y-100705500D01*
X163087713Y-100741694D01*
X163204519Y-100902464D01*
X163345036Y-101042981D01*
X163505806Y-101159787D01*
X163569999Y-101192495D01*
X163662280Y-101239515D01*
X163713076Y-101287490D01*
X163729871Y-101355311D01*
X163707333Y-101421446D01*
X163662280Y-101460485D01*
X163505805Y-101540213D01*
X163345033Y-101657021D01*
X163204521Y-101797533D01*
X163087713Y-101958305D01*
X162997494Y-102135367D01*
X162997493Y-102135370D01*
X162936087Y-102324362D01*
X162934415Y-102334919D01*
X162905000Y-102520639D01*
X162905000Y-102719361D01*
X162914777Y-102781092D01*
X162936087Y-102915637D01*
X162997493Y-103104629D01*
X162997494Y-103104632D01*
X163055721Y-103218907D01*
X163087713Y-103281694D01*
X163204519Y-103442464D01*
X163345036Y-103582981D01*
X163505806Y-103699787D01*
X163615125Y-103755488D01*
X163662280Y-103779515D01*
X163713076Y-103827490D01*
X163729871Y-103895311D01*
X163707333Y-103961446D01*
X163662280Y-104000485D01*
X163505805Y-104080213D01*
X163345033Y-104197021D01*
X163204521Y-104337533D01*
X163087713Y-104498305D01*
X162997494Y-104675367D01*
X162997493Y-104675370D01*
X162936087Y-104864362D01*
X162905000Y-105060639D01*
X162905000Y-105259360D01*
X162936087Y-105455637D01*
X162997493Y-105644629D01*
X162997494Y-105644632D01*
X163060578Y-105768439D01*
X163087713Y-105821694D01*
X163204519Y-105982464D01*
X163345036Y-106122981D01*
X163505806Y-106239787D01*
X163528341Y-106251269D01*
X163662280Y-106319515D01*
X163713076Y-106367490D01*
X163729871Y-106435311D01*
X163707333Y-106501446D01*
X163662280Y-106540485D01*
X163505805Y-106620213D01*
X163345033Y-106737021D01*
X163204521Y-106877533D01*
X163087713Y-107038305D01*
X162997494Y-107215367D01*
X162997493Y-107215370D01*
X162936087Y-107404362D01*
X162905000Y-107600639D01*
X162905000Y-107799360D01*
X162936087Y-107995637D01*
X162997493Y-108184629D01*
X162997494Y-108184632D01*
X163087713Y-108361694D01*
X163204519Y-108522464D01*
X163345036Y-108662981D01*
X163505806Y-108779787D01*
X163624332Y-108840179D01*
X163662280Y-108859515D01*
X163713076Y-108907490D01*
X163729871Y-108975311D01*
X163707333Y-109041446D01*
X163662280Y-109080485D01*
X163505805Y-109160213D01*
X163345033Y-109277021D01*
X163204521Y-109417533D01*
X163087713Y-109578305D01*
X162997494Y-109755367D01*
X162997493Y-109755370D01*
X162936087Y-109944362D01*
X162905000Y-110140639D01*
X162905000Y-110339360D01*
X162936087Y-110535637D01*
X162997493Y-110724629D01*
X162997494Y-110724632D01*
X163077213Y-110881087D01*
X163087713Y-110901694D01*
X163204519Y-111062464D01*
X163345036Y-111202981D01*
X163505806Y-111319787D01*
X163624332Y-111380179D01*
X163662280Y-111399515D01*
X163713076Y-111447490D01*
X163729871Y-111515311D01*
X163707333Y-111581446D01*
X163662280Y-111620485D01*
X163505805Y-111700213D01*
X163345033Y-111817021D01*
X163204521Y-111957533D01*
X163087713Y-112118305D01*
X162997494Y-112295367D01*
X162997493Y-112295370D01*
X162936087Y-112484362D01*
X162905000Y-112680639D01*
X162905000Y-112879360D01*
X162936087Y-113075637D01*
X162997493Y-113264629D01*
X162997494Y-113264632D01*
X163061240Y-113389738D01*
X163087713Y-113441694D01*
X163204519Y-113602464D01*
X163345036Y-113742981D01*
X163505806Y-113859787D01*
X163624332Y-113920179D01*
X163662280Y-113939515D01*
X163713076Y-113987490D01*
X163729871Y-114055311D01*
X163707333Y-114121446D01*
X163662280Y-114160485D01*
X163505805Y-114240213D01*
X163345033Y-114357021D01*
X163204521Y-114497533D01*
X163087713Y-114658305D01*
X162997494Y-114835367D01*
X162997493Y-114835370D01*
X162936087Y-115024362D01*
X162905000Y-115220639D01*
X162905000Y-115419360D01*
X162936087Y-115615637D01*
X162997493Y-115804629D01*
X162997494Y-115804632D01*
X163087713Y-115981694D01*
X163204519Y-116142464D01*
X163345036Y-116282981D01*
X163505806Y-116399787D01*
X163624332Y-116460179D01*
X163662280Y-116479515D01*
X163713076Y-116527490D01*
X163729871Y-116595311D01*
X163707333Y-116661446D01*
X163662280Y-116700485D01*
X163505805Y-116780213D01*
X163345033Y-116897021D01*
X163204521Y-117037533D01*
X163087713Y-117198305D01*
X162997494Y-117375367D01*
X162997493Y-117375370D01*
X162936087Y-117564362D01*
X162905000Y-117760639D01*
X162905000Y-117959360D01*
X162936087Y-118155637D01*
X162997493Y-118344629D01*
X162997494Y-118344632D01*
X163057097Y-118461607D01*
X163087713Y-118521694D01*
X163204519Y-118682464D01*
X163345036Y-118822981D01*
X163505806Y-118939787D01*
X163624332Y-119000179D01*
X163662280Y-119019515D01*
X163713076Y-119067490D01*
X163729871Y-119135311D01*
X163707333Y-119201446D01*
X163662280Y-119240485D01*
X163505805Y-119320213D01*
X163345033Y-119437021D01*
X163204521Y-119577533D01*
X163087713Y-119738305D01*
X162997494Y-119915367D01*
X162997493Y-119915370D01*
X162936087Y-120104362D01*
X162905000Y-120300639D01*
X162905000Y-120499360D01*
X162936087Y-120695637D01*
X162997493Y-120884629D01*
X162997494Y-120884632D01*
X163063147Y-121013481D01*
X163087713Y-121061694D01*
X163204519Y-121222464D01*
X163345036Y-121362981D01*
X163505806Y-121479787D01*
X163662832Y-121559796D01*
X163713627Y-121607769D01*
X163730422Y-121675590D01*
X163707885Y-121741725D01*
X163662832Y-121780764D01*
X163506066Y-121860641D01*
X163468783Y-121887729D01*
X163468782Y-121887730D01*
X164031558Y-122450504D01*
X163971419Y-122466619D01*
X163855580Y-122533498D01*
X163760998Y-122628080D01*
X163694119Y-122743919D01*
X163678004Y-122804057D01*
X163115230Y-122241282D01*
X163115229Y-122241283D01*
X163088143Y-122278564D01*
X162997957Y-122455562D01*
X162936575Y-122644476D01*
X162936575Y-122644479D01*
X162905500Y-122840678D01*
X162905500Y-123039321D01*
X162936575Y-123235520D01*
X162936575Y-123235523D01*
X162997957Y-123424437D01*
X163088141Y-123601432D01*
X163115230Y-123638715D01*
X163115231Y-123638716D01*
X163678004Y-123075942D01*
X163694119Y-123136081D01*
X163760998Y-123251920D01*
X163855580Y-123346502D01*
X163971419Y-123413381D01*
X164031557Y-123429494D01*
X163468783Y-123992268D01*
X163468783Y-123992269D01*
X163506067Y-124019358D01*
X163662831Y-124099234D01*
X163713627Y-124147209D01*
X163730422Y-124215030D01*
X163707884Y-124281165D01*
X163662831Y-124320204D01*
X163505805Y-124400213D01*
X163345033Y-124517021D01*
X163204521Y-124657533D01*
X163087713Y-124818305D01*
X162997494Y-124995367D01*
X162997493Y-124995370D01*
X162936087Y-125184362D01*
X162905000Y-125380639D01*
X162905000Y-125579360D01*
X162936087Y-125775637D01*
X162997493Y-125964629D01*
X162997494Y-125964632D01*
X163028074Y-126024647D01*
X163087713Y-126141694D01*
X163204519Y-126302464D01*
X163345036Y-126442981D01*
X163505806Y-126559787D01*
X163624332Y-126620179D01*
X163662280Y-126639515D01*
X163713076Y-126687490D01*
X163729871Y-126755311D01*
X163707333Y-126821446D01*
X163662280Y-126860485D01*
X163505805Y-126940213D01*
X163345033Y-127057021D01*
X163204521Y-127197533D01*
X163087713Y-127358305D01*
X162997494Y-127535367D01*
X162997493Y-127535370D01*
X162936087Y-127724362D01*
X162905000Y-127920639D01*
X162905000Y-128119360D01*
X162936087Y-128315637D01*
X162997493Y-128504629D01*
X162997494Y-128504632D01*
X163082009Y-128670500D01*
X163087713Y-128681694D01*
X163204519Y-128842464D01*
X163345036Y-128982981D01*
X163505806Y-129099787D01*
X163662832Y-129179796D01*
X163713627Y-129227769D01*
X163730422Y-129295590D01*
X163707885Y-129361725D01*
X163662832Y-129400764D01*
X163506066Y-129480641D01*
X163468783Y-129507729D01*
X163468782Y-129507730D01*
X164031558Y-130070504D01*
X163971419Y-130086619D01*
X163855580Y-130153498D01*
X163760998Y-130248080D01*
X163694119Y-130363919D01*
X163678004Y-130424057D01*
X163115230Y-129861282D01*
X163115229Y-129861283D01*
X163088143Y-129898564D01*
X162997957Y-130075562D01*
X162936575Y-130264476D01*
X162936575Y-130264479D01*
X162905500Y-130460678D01*
X162905500Y-130659321D01*
X162936575Y-130855520D01*
X162936575Y-130855523D01*
X162997957Y-131044437D01*
X163088141Y-131221432D01*
X163115230Y-131258715D01*
X163115231Y-131258716D01*
X163678004Y-130695942D01*
X163694119Y-130756081D01*
X163760998Y-130871920D01*
X163855580Y-130966502D01*
X163971419Y-131033381D01*
X164031557Y-131049494D01*
X163468783Y-131612268D01*
X163468783Y-131612269D01*
X163506067Y-131639358D01*
X163662831Y-131719234D01*
X163713627Y-131767209D01*
X163730422Y-131835030D01*
X163707884Y-131901165D01*
X163662831Y-131940204D01*
X163505805Y-132020213D01*
X163345033Y-132137021D01*
X163204521Y-132277533D01*
X163087713Y-132438305D01*
X162997494Y-132615367D01*
X162997493Y-132615370D01*
X162936087Y-132804362D01*
X162905000Y-133000639D01*
X162905000Y-133199360D01*
X162936087Y-133395637D01*
X162997493Y-133584629D01*
X162997494Y-133584632D01*
X163066810Y-133720670D01*
X163087713Y-133761694D01*
X163204519Y-133922464D01*
X163345036Y-134062981D01*
X163505806Y-134179787D01*
X163592649Y-134224035D01*
X163682867Y-134270005D01*
X163682870Y-134270006D01*
X163777366Y-134300709D01*
X163871864Y-134331413D01*
X164068139Y-134362500D01*
X164068140Y-134362500D01*
X164266860Y-134362500D01*
X164266861Y-134362500D01*
X164463136Y-134331413D01*
X164652132Y-134270005D01*
X164829194Y-134179787D01*
X164989964Y-134062981D01*
X165130481Y-133922464D01*
X165247287Y-133761694D01*
X165337505Y-133584632D01*
X165398913Y-133395636D01*
X165430000Y-133199361D01*
X165430000Y-133000639D01*
X165398913Y-132804364D01*
X165337505Y-132615368D01*
X165337505Y-132615367D01*
X165247286Y-132438305D01*
X165130481Y-132277536D01*
X164989964Y-132137019D01*
X164829194Y-132020213D01*
X164672167Y-131940203D01*
X164621372Y-131892229D01*
X164620944Y-131890502D01*
X174229500Y-131890502D01*
X174229500Y-132109497D01*
X174251623Y-132277533D01*
X174258083Y-132326598D01*
X174258084Y-132326600D01*
X174308403Y-132514399D01*
X174314759Y-132538117D01*
X174398560Y-132740428D01*
X174398562Y-132740433D01*
X174398565Y-132740438D01*
X174508049Y-132930070D01*
X174641355Y-133103798D01*
X174641361Y-133103805D01*
X174796194Y-133258638D01*
X174796201Y-133258644D01*
X174969929Y-133391950D01*
X175159561Y-133501434D01*
X175159563Y-133501434D01*
X175159572Y-133501440D01*
X175361883Y-133585241D01*
X175573402Y-133641917D01*
X175790510Y-133670500D01*
X175790517Y-133670500D01*
X176009483Y-133670500D01*
X176009490Y-133670500D01*
X176226598Y-133641917D01*
X176438117Y-133585241D01*
X176640428Y-133501440D01*
X176830071Y-133391950D01*
X177003800Y-133258643D01*
X177158643Y-133103800D01*
X177291950Y-132930071D01*
X177401440Y-132740428D01*
X177485241Y-132538117D01*
X177541917Y-132326598D01*
X177570500Y-132109490D01*
X177570500Y-131890510D01*
X177570499Y-131890502D01*
X179229500Y-131890502D01*
X179229500Y-132109497D01*
X179251623Y-132277533D01*
X179258083Y-132326598D01*
X179258084Y-132326600D01*
X179308403Y-132514399D01*
X179314759Y-132538117D01*
X179398560Y-132740428D01*
X179398562Y-132740433D01*
X179398565Y-132740438D01*
X179508049Y-132930070D01*
X179641355Y-133103798D01*
X179641361Y-133103805D01*
X179796194Y-133258638D01*
X179796201Y-133258644D01*
X179969929Y-133391950D01*
X180159561Y-133501434D01*
X180159563Y-133501434D01*
X180159572Y-133501440D01*
X180361883Y-133585241D01*
X180573402Y-133641917D01*
X180790510Y-133670500D01*
X180790517Y-133670500D01*
X181009483Y-133670500D01*
X181009490Y-133670500D01*
X181226598Y-133641917D01*
X181438117Y-133585241D01*
X181640428Y-133501440D01*
X181830071Y-133391950D01*
X182003800Y-133258643D01*
X182158643Y-133103800D01*
X182291950Y-132930071D01*
X182401440Y-132740428D01*
X182485241Y-132538117D01*
X182541917Y-132326598D01*
X182570500Y-132109490D01*
X182570500Y-131890510D01*
X182541917Y-131673402D01*
X182485241Y-131461883D01*
X182401440Y-131259572D01*
X182400945Y-131258715D01*
X182291950Y-131069929D01*
X182158644Y-130896201D01*
X182158638Y-130896194D01*
X182003805Y-130741361D01*
X182003798Y-130741355D01*
X181830070Y-130608049D01*
X181640438Y-130498565D01*
X181640433Y-130498562D01*
X181640428Y-130498560D01*
X181438117Y-130414759D01*
X181438118Y-130414759D01*
X181438115Y-130414758D01*
X181332357Y-130386421D01*
X181226598Y-130358083D01*
X181190314Y-130353306D01*
X181009497Y-130329500D01*
X181009490Y-130329500D01*
X180790510Y-130329500D01*
X180790502Y-130329500D01*
X180583853Y-130356707D01*
X180573402Y-130358083D01*
X180551622Y-130363919D01*
X180361884Y-130414758D01*
X180251026Y-130460678D01*
X180159572Y-130498560D01*
X180159569Y-130498561D01*
X180159561Y-130498565D01*
X179969929Y-130608049D01*
X179796201Y-130741355D01*
X179796194Y-130741361D01*
X179641361Y-130896194D01*
X179641355Y-130896201D01*
X179508049Y-131069929D01*
X179398565Y-131259561D01*
X179398560Y-131259573D01*
X179314758Y-131461884D01*
X179258084Y-131673399D01*
X179258082Y-131673410D01*
X179229500Y-131890502D01*
X177570499Y-131890502D01*
X177541917Y-131673402D01*
X177485241Y-131461883D01*
X177401440Y-131259572D01*
X177400945Y-131258715D01*
X177291950Y-131069929D01*
X177158644Y-130896201D01*
X177158638Y-130896194D01*
X177003805Y-130741361D01*
X177003798Y-130741355D01*
X176830070Y-130608049D01*
X176640438Y-130498565D01*
X176640433Y-130498562D01*
X176640428Y-130498560D01*
X176438117Y-130414759D01*
X176438118Y-130414759D01*
X176438115Y-130414758D01*
X176332357Y-130386421D01*
X176226598Y-130358083D01*
X176190314Y-130353306D01*
X176009497Y-130329500D01*
X176009490Y-130329500D01*
X175790510Y-130329500D01*
X175790502Y-130329500D01*
X175583853Y-130356707D01*
X175573402Y-130358083D01*
X175551622Y-130363919D01*
X175361884Y-130414758D01*
X175251026Y-130460678D01*
X175159572Y-130498560D01*
X175159569Y-130498561D01*
X175159561Y-130498565D01*
X174969929Y-130608049D01*
X174796201Y-130741355D01*
X174796194Y-130741361D01*
X174641361Y-130896194D01*
X174641355Y-130896201D01*
X174508049Y-131069929D01*
X174398565Y-131259561D01*
X174398560Y-131259573D01*
X174314758Y-131461884D01*
X174258084Y-131673399D01*
X174258082Y-131673410D01*
X174229500Y-131890502D01*
X164620944Y-131890502D01*
X164604577Y-131824408D01*
X164627115Y-131758273D01*
X164672169Y-131719234D01*
X164828922Y-131639364D01*
X164866216Y-131612268D01*
X164303442Y-131049494D01*
X164363581Y-131033381D01*
X164479420Y-130966502D01*
X164574002Y-130871920D01*
X164640881Y-130756081D01*
X164656995Y-130695942D01*
X165219768Y-131258715D01*
X165246862Y-131221425D01*
X165337042Y-131044437D01*
X165398424Y-130855523D01*
X165398424Y-130855520D01*
X165429500Y-130659321D01*
X165429500Y-130460678D01*
X165398424Y-130264479D01*
X165398424Y-130264476D01*
X165337042Y-130075562D01*
X165246858Y-129898567D01*
X165219768Y-129861283D01*
X164656994Y-130424057D01*
X164640881Y-130363919D01*
X164574002Y-130248080D01*
X164479420Y-130153498D01*
X164363581Y-130086619D01*
X164303442Y-130070504D01*
X164866216Y-129507731D01*
X164866215Y-129507730D01*
X164828932Y-129480641D01*
X164672168Y-129400765D01*
X164621372Y-129352790D01*
X164604577Y-129284969D01*
X164627115Y-129218834D01*
X164672167Y-129179796D01*
X164829194Y-129099787D01*
X164989964Y-128982981D01*
X165130481Y-128842464D01*
X165247287Y-128681694D01*
X165337505Y-128504632D01*
X165398913Y-128315636D01*
X165430000Y-128119361D01*
X165430000Y-127920639D01*
X165398913Y-127724364D01*
X165337505Y-127535368D01*
X165337505Y-127535367D01*
X165253734Y-127370959D01*
X165247287Y-127358306D01*
X165130481Y-127197536D01*
X164989964Y-127057019D01*
X164829194Y-126940213D01*
X164671518Y-126859873D01*
X164670331Y-126859235D01*
X164666827Y-126855778D01*
X176199500Y-126855778D01*
X176199500Y-127144221D01*
X176199501Y-127144238D01*
X176237149Y-127430206D01*
X176237150Y-127430211D01*
X176237151Y-127430217D01*
X176279456Y-127588102D01*
X176311809Y-127708844D01*
X176311814Y-127708860D01*
X176422191Y-127975336D01*
X176422199Y-127975352D01*
X176566420Y-128225148D01*
X176566431Y-128225164D01*
X176742024Y-128454002D01*
X176742030Y-128454009D01*
X176945990Y-128657969D01*
X176945997Y-128657975D01*
X176987974Y-128690185D01*
X177174844Y-128833575D01*
X177174851Y-128833579D01*
X177424647Y-128977800D01*
X177424663Y-128977808D01*
X177691139Y-129088185D01*
X177691145Y-129088186D01*
X177691155Y-129088191D01*
X177969783Y-129162849D01*
X178255772Y-129200500D01*
X178255779Y-129200500D01*
X178544221Y-129200500D01*
X178544228Y-129200500D01*
X178830217Y-129162849D01*
X179108845Y-129088191D01*
X179108857Y-129088185D01*
X179108860Y-129088185D01*
X179375336Y-128977808D01*
X179375339Y-128977806D01*
X179375345Y-128977804D01*
X179625156Y-128833575D01*
X179854004Y-128657974D01*
X180057974Y-128454004D01*
X180233575Y-128225156D01*
X180377804Y-127975345D01*
X180488191Y-127708845D01*
X180562849Y-127430217D01*
X180600500Y-127144228D01*
X180600500Y-126855772D01*
X180562849Y-126569783D01*
X180488191Y-126291155D01*
X180488186Y-126291145D01*
X180488185Y-126291139D01*
X180377808Y-126024663D01*
X180377800Y-126024647D01*
X180233579Y-125774851D01*
X180233575Y-125774844D01*
X180057974Y-125545996D01*
X180057969Y-125545990D01*
X179854009Y-125342030D01*
X179854002Y-125342024D01*
X179625164Y-125166431D01*
X179625162Y-125166429D01*
X179625156Y-125166425D01*
X179625151Y-125166422D01*
X179625148Y-125166420D01*
X179375352Y-125022199D01*
X179375336Y-125022191D01*
X179108860Y-124911814D01*
X179108848Y-124911810D01*
X179108845Y-124911809D01*
X178830217Y-124837151D01*
X178830211Y-124837150D01*
X178830206Y-124837149D01*
X178544238Y-124799501D01*
X178544233Y-124799500D01*
X178544228Y-124799500D01*
X178255772Y-124799500D01*
X178255766Y-124799500D01*
X178255761Y-124799501D01*
X177969793Y-124837149D01*
X177969786Y-124837150D01*
X177969783Y-124837151D01*
X177901300Y-124855501D01*
X177691155Y-124911809D01*
X177691139Y-124911814D01*
X177424663Y-125022191D01*
X177424647Y-125022199D01*
X177174851Y-125166420D01*
X177174835Y-125166431D01*
X176945997Y-125342024D01*
X176945990Y-125342030D01*
X176742030Y-125545990D01*
X176742024Y-125545997D01*
X176566431Y-125774835D01*
X176566420Y-125774851D01*
X176422199Y-126024647D01*
X176422191Y-126024663D01*
X176311814Y-126291139D01*
X176311809Y-126291155D01*
X176239830Y-126559787D01*
X176237152Y-126569780D01*
X176237149Y-126569793D01*
X176199501Y-126855761D01*
X176199500Y-126855778D01*
X164666827Y-126855778D01*
X164646385Y-126835613D01*
X164621923Y-126812510D01*
X164621586Y-126811150D01*
X164620590Y-126810168D01*
X164613211Y-126777333D01*
X164605128Y-126744689D01*
X164605579Y-126743365D01*
X164605272Y-126741998D01*
X164616816Y-126710390D01*
X164627665Y-126678554D01*
X164628804Y-126677566D01*
X164629242Y-126676368D01*
X164636886Y-126670563D01*
X164672718Y-126639515D01*
X164829194Y-126559787D01*
X164989964Y-126442981D01*
X165130481Y-126302464D01*
X165247287Y-126141694D01*
X165337505Y-125964632D01*
X165398913Y-125775636D01*
X165430000Y-125579361D01*
X165430000Y-125380639D01*
X165398913Y-125184364D01*
X165357812Y-125057868D01*
X165337506Y-124995370D01*
X165337505Y-124995367D01*
X165278874Y-124880298D01*
X165247287Y-124818306D01*
X165130481Y-124657536D01*
X164989964Y-124517019D01*
X164829194Y-124400213D01*
X164672167Y-124320203D01*
X164621372Y-124272229D01*
X164604577Y-124204408D01*
X164627114Y-124138273D01*
X164672169Y-124099234D01*
X164828922Y-124019364D01*
X164866216Y-123992268D01*
X164303442Y-123429494D01*
X164363581Y-123413381D01*
X164479420Y-123346502D01*
X164574002Y-123251920D01*
X164640881Y-123136081D01*
X164656995Y-123075942D01*
X165219768Y-123638715D01*
X165246862Y-123601425D01*
X165337042Y-123424437D01*
X165398424Y-123235523D01*
X165398424Y-123235520D01*
X165429500Y-123039321D01*
X165429500Y-122840678D01*
X165398424Y-122644479D01*
X165398424Y-122644476D01*
X165337042Y-122455562D01*
X165246858Y-122278567D01*
X165219768Y-122241283D01*
X164656994Y-122804057D01*
X164640881Y-122743919D01*
X164574002Y-122628080D01*
X164479420Y-122533498D01*
X164363581Y-122466619D01*
X164303441Y-122450504D01*
X164863444Y-121890502D01*
X176729500Y-121890502D01*
X176729500Y-122109497D01*
X176753306Y-122290314D01*
X176758083Y-122326598D01*
X176758084Y-122326600D01*
X176792638Y-122455562D01*
X176814759Y-122538117D01*
X176898560Y-122740428D01*
X176898562Y-122740433D01*
X176898565Y-122740438D01*
X177008049Y-122930070D01*
X177141355Y-123103798D01*
X177141361Y-123103805D01*
X177296194Y-123258638D01*
X177296201Y-123258644D01*
X177469929Y-123391950D01*
X177659561Y-123501434D01*
X177659563Y-123501434D01*
X177659572Y-123501440D01*
X177861883Y-123585241D01*
X178073402Y-123641917D01*
X178290510Y-123670500D01*
X178290517Y-123670500D01*
X178509483Y-123670500D01*
X178509490Y-123670500D01*
X178726598Y-123641917D01*
X178938117Y-123585241D01*
X179140428Y-123501440D01*
X179330071Y-123391950D01*
X179503800Y-123258643D01*
X179658643Y-123103800D01*
X179791950Y-122930071D01*
X179901440Y-122740428D01*
X179985241Y-122538117D01*
X180041917Y-122326598D01*
X180070500Y-122109490D01*
X180070500Y-121890510D01*
X180041917Y-121673402D01*
X179985241Y-121461883D01*
X179901440Y-121259572D01*
X179791950Y-121069929D01*
X179658643Y-120896200D01*
X179658638Y-120896194D01*
X179503805Y-120741361D01*
X179503798Y-120741355D01*
X179330070Y-120608049D01*
X179140438Y-120498565D01*
X179140433Y-120498562D01*
X179140428Y-120498560D01*
X178938117Y-120414759D01*
X178938118Y-120414759D01*
X178938115Y-120414758D01*
X178832357Y-120386421D01*
X178726598Y-120358083D01*
X178690314Y-120353306D01*
X178509497Y-120329500D01*
X178509490Y-120329500D01*
X178290510Y-120329500D01*
X178290502Y-120329500D01*
X178083853Y-120356707D01*
X178073402Y-120358083D01*
X178028699Y-120370060D01*
X177861884Y-120414758D01*
X177743374Y-120463847D01*
X177659572Y-120498560D01*
X177659569Y-120498561D01*
X177659561Y-120498565D01*
X177469929Y-120608049D01*
X177296201Y-120741355D01*
X177296194Y-120741361D01*
X177141361Y-120896194D01*
X177141355Y-120896201D01*
X177008049Y-121069929D01*
X176898565Y-121259561D01*
X176898560Y-121259573D01*
X176814758Y-121461884D01*
X176785788Y-121570005D01*
X176758083Y-121673402D01*
X176756707Y-121683853D01*
X176729500Y-121890502D01*
X164863444Y-121890502D01*
X164866216Y-121887730D01*
X164828932Y-121860641D01*
X164672168Y-121780765D01*
X164621372Y-121732790D01*
X164604577Y-121664969D01*
X164627115Y-121598834D01*
X164672167Y-121559796D01*
X164829194Y-121479787D01*
X164989964Y-121362981D01*
X165130481Y-121222464D01*
X165247287Y-121061694D01*
X165337505Y-120884632D01*
X165398913Y-120695636D01*
X165430000Y-120499361D01*
X165430000Y-120300639D01*
X165398913Y-120104364D01*
X165350992Y-119956878D01*
X165337506Y-119915370D01*
X165337505Y-119915367D01*
X165261424Y-119766051D01*
X165247287Y-119738306D01*
X165130481Y-119577536D01*
X164989964Y-119437019D01*
X164829194Y-119320213D01*
X164672718Y-119240484D01*
X164621923Y-119192510D01*
X164605128Y-119124689D01*
X164627665Y-119058554D01*
X164672718Y-119019515D01*
X164829194Y-118939787D01*
X164989964Y-118822981D01*
X165130481Y-118682464D01*
X165247287Y-118521694D01*
X165337505Y-118344632D01*
X165398913Y-118155636D01*
X165430000Y-117959361D01*
X165430000Y-117760639D01*
X165398913Y-117564364D01*
X165337505Y-117375368D01*
X165337505Y-117375367D01*
X165247286Y-117198305D01*
X165130481Y-117037536D01*
X164989964Y-116897019D01*
X164829194Y-116780213D01*
X164672718Y-116700484D01*
X164621923Y-116652510D01*
X164605128Y-116584689D01*
X164627665Y-116518554D01*
X164672718Y-116479515D01*
X164829194Y-116399787D01*
X164989964Y-116282981D01*
X165130481Y-116142464D01*
X165247287Y-115981694D01*
X165337505Y-115804632D01*
X165398913Y-115615636D01*
X165430000Y-115419361D01*
X165430000Y-115220639D01*
X165398913Y-115024364D01*
X165337505Y-114835368D01*
X165337505Y-114835367D01*
X165247286Y-114658305D01*
X165245249Y-114655501D01*
X165130481Y-114497536D01*
X164989964Y-114357019D01*
X164829194Y-114240213D01*
X164672718Y-114160484D01*
X164621923Y-114112510D01*
X164605128Y-114044689D01*
X164627665Y-113978554D01*
X164672718Y-113939515D01*
X164829194Y-113859787D01*
X164989964Y-113742981D01*
X165130481Y-113602464D01*
X165247287Y-113441694D01*
X165337505Y-113264632D01*
X165398913Y-113075636D01*
X165430000Y-112879361D01*
X165430000Y-112680639D01*
X165398913Y-112484364D01*
X165337505Y-112295368D01*
X165337505Y-112295367D01*
X165247286Y-112118305D01*
X165130481Y-111957536D01*
X164989964Y-111817019D01*
X164829194Y-111700213D01*
X164672718Y-111620484D01*
X164621923Y-111572510D01*
X164605128Y-111504689D01*
X164627665Y-111438554D01*
X164672718Y-111399515D01*
X164829194Y-111319787D01*
X164989964Y-111202981D01*
X165130481Y-111062464D01*
X165247287Y-110901694D01*
X165337505Y-110724632D01*
X165398913Y-110535636D01*
X165430000Y-110339361D01*
X165430000Y-110140639D01*
X165398913Y-109944364D01*
X165337505Y-109755368D01*
X165337505Y-109755367D01*
X165265763Y-109614568D01*
X165247287Y-109578306D01*
X165130481Y-109417536D01*
X164989964Y-109277019D01*
X164829194Y-109160213D01*
X164672718Y-109080484D01*
X164621923Y-109032510D01*
X164605128Y-108964689D01*
X164627665Y-108898554D01*
X164672718Y-108859515D01*
X164829194Y-108779787D01*
X164989964Y-108662981D01*
X165130481Y-108522464D01*
X165247287Y-108361694D01*
X165337505Y-108184632D01*
X165398913Y-107995636D01*
X165430000Y-107799361D01*
X165430000Y-107600639D01*
X165398913Y-107404364D01*
X165367240Y-107306884D01*
X165360820Y-107287124D01*
X165349452Y-107252135D01*
X178499500Y-107252135D01*
X178499500Y-109347870D01*
X178499501Y-109347876D01*
X178505908Y-109407483D01*
X178556202Y-109542328D01*
X178556206Y-109542335D01*
X178642452Y-109657544D01*
X178642455Y-109657547D01*
X178757664Y-109743793D01*
X178757671Y-109743797D01*
X178892517Y-109794091D01*
X178892516Y-109794091D01*
X178899444Y-109794835D01*
X178952127Y-109800500D01*
X181047872Y-109800499D01*
X181107483Y-109794091D01*
X181242331Y-109743796D01*
X181357546Y-109657546D01*
X181443796Y-109542331D01*
X181494091Y-109407483D01*
X181500500Y-109347873D01*
X181500499Y-108181947D01*
X186100000Y-108181947D01*
X186100000Y-108418052D01*
X186136934Y-108651247D01*
X186209897Y-108875802D01*
X186317087Y-109086174D01*
X186377338Y-109169104D01*
X186377340Y-109169105D01*
X187117037Y-108429408D01*
X187134075Y-108492993D01*
X187199901Y-108607007D01*
X187292993Y-108700099D01*
X187407007Y-108765925D01*
X187470590Y-108782962D01*
X186730893Y-109522658D01*
X186813828Y-109582914D01*
X187024197Y-109690102D01*
X187248752Y-109763065D01*
X187248751Y-109763065D01*
X187481948Y-109800000D01*
X187718052Y-109800000D01*
X187951247Y-109763065D01*
X188175802Y-109690102D01*
X188386163Y-109582918D01*
X188386169Y-109582914D01*
X188469104Y-109522658D01*
X188469105Y-109522658D01*
X187729408Y-108782962D01*
X187792993Y-108765925D01*
X187907007Y-108700099D01*
X188000099Y-108607007D01*
X188065925Y-108492993D01*
X188082962Y-108429409D01*
X188822658Y-109169105D01*
X188822658Y-109169104D01*
X188882914Y-109086169D01*
X188882918Y-109086163D01*
X188990102Y-108875802D01*
X189063065Y-108651247D01*
X189100000Y-108418052D01*
X189100000Y-108181947D01*
X189063065Y-107948752D01*
X188990102Y-107724197D01*
X188882914Y-107513828D01*
X188822658Y-107430894D01*
X188822658Y-107430893D01*
X188082962Y-108170590D01*
X188065925Y-108107007D01*
X188000099Y-107992993D01*
X187907007Y-107899901D01*
X187792993Y-107834075D01*
X187729409Y-107817037D01*
X188469105Y-107077340D01*
X188469104Y-107077338D01*
X188386174Y-107017087D01*
X188175802Y-106909897D01*
X187951247Y-106836934D01*
X187951248Y-106836934D01*
X187718052Y-106800000D01*
X187481948Y-106800000D01*
X187248752Y-106836934D01*
X187024197Y-106909897D01*
X186813830Y-107017084D01*
X186730894Y-107077340D01*
X187470591Y-107817037D01*
X187407007Y-107834075D01*
X187292993Y-107899901D01*
X187199901Y-107992993D01*
X187134075Y-108107007D01*
X187117037Y-108170591D01*
X186377340Y-107430894D01*
X186317084Y-107513830D01*
X186209897Y-107724197D01*
X186136934Y-107948752D01*
X186100000Y-108181947D01*
X181500499Y-108181947D01*
X181500499Y-107252128D01*
X181494091Y-107192517D01*
X181494090Y-107192514D01*
X181484922Y-107167931D01*
X181443797Y-107057671D01*
X181443793Y-107057664D01*
X181357547Y-106942455D01*
X181357544Y-106942452D01*
X181242335Y-106856206D01*
X181242328Y-106856202D01*
X181107482Y-106805908D01*
X181107483Y-106805908D01*
X181047883Y-106799501D01*
X181047881Y-106799500D01*
X181047873Y-106799500D01*
X181047864Y-106799500D01*
X178952129Y-106799500D01*
X178952123Y-106799501D01*
X178892516Y-106805908D01*
X178757671Y-106856202D01*
X178757664Y-106856206D01*
X178642455Y-106942452D01*
X178642452Y-106942455D01*
X178556206Y-107057664D01*
X178556202Y-107057671D01*
X178505908Y-107192517D01*
X178499501Y-107252116D01*
X178499501Y-107252123D01*
X178499500Y-107252135D01*
X165349452Y-107252135D01*
X165337506Y-107215370D01*
X165337505Y-107215367D01*
X165267175Y-107077338D01*
X165247287Y-107038306D01*
X165130481Y-106877536D01*
X164989964Y-106737019D01*
X164829194Y-106620213D01*
X164672718Y-106540484D01*
X164621923Y-106492510D01*
X164605128Y-106424689D01*
X164627665Y-106358554D01*
X164672718Y-106319515D01*
X164829194Y-106239787D01*
X164951037Y-106151263D01*
X195995500Y-106151263D01*
X195995500Y-106348736D01*
X196026389Y-106543763D01*
X196087408Y-106731558D01*
X196087409Y-106731561D01*
X196170615Y-106894859D01*
X196177058Y-106907504D01*
X196293115Y-107067246D01*
X196432753Y-107206884D01*
X196570387Y-107306879D01*
X196592499Y-107322944D01*
X196768439Y-107412591D01*
X196890340Y-107452199D01*
X196956236Y-107473610D01*
X197151264Y-107504500D01*
X197151269Y-107504500D01*
X197348736Y-107504500D01*
X197543763Y-107473610D01*
X197731561Y-107412591D01*
X197907501Y-107322944D01*
X198004973Y-107252127D01*
X198067246Y-107206884D01*
X198067248Y-107206881D01*
X198067252Y-107206879D01*
X198206879Y-107067252D01*
X198206881Y-107067248D01*
X198206884Y-107067246D01*
X198290974Y-106951504D01*
X198322944Y-106907501D01*
X198412591Y-106731561D01*
X198473610Y-106543763D01*
X198475791Y-106529995D01*
X198504500Y-106348736D01*
X198504500Y-106151263D01*
X202495500Y-106151263D01*
X202495500Y-106348736D01*
X202526389Y-106543763D01*
X202587408Y-106731558D01*
X202587409Y-106731561D01*
X202670615Y-106894859D01*
X202677058Y-106907504D01*
X202793115Y-107067246D01*
X202932753Y-107206884D01*
X203070387Y-107306879D01*
X203092499Y-107322944D01*
X203268439Y-107412591D01*
X203390340Y-107452199D01*
X203456236Y-107473610D01*
X203651264Y-107504500D01*
X203651269Y-107504500D01*
X203848736Y-107504500D01*
X204043763Y-107473610D01*
X204231561Y-107412591D01*
X204407501Y-107322944D01*
X204504973Y-107252127D01*
X204567246Y-107206884D01*
X204567248Y-107206881D01*
X204567252Y-107206879D01*
X204706879Y-107067252D01*
X204706881Y-107067248D01*
X204706884Y-107067246D01*
X204790974Y-106951504D01*
X204822944Y-106907501D01*
X204912591Y-106731561D01*
X204973610Y-106543763D01*
X204975791Y-106529995D01*
X205004500Y-106348736D01*
X205004500Y-106151263D01*
X204973610Y-105956236D01*
X204945083Y-105868439D01*
X204912591Y-105768439D01*
X204822944Y-105592499D01*
X204815486Y-105582234D01*
X204706884Y-105432753D01*
X204567246Y-105293115D01*
X204407504Y-105177058D01*
X204407503Y-105177057D01*
X204407501Y-105177056D01*
X204231561Y-105087409D01*
X204231558Y-105087408D01*
X204043763Y-105026389D01*
X203848736Y-104995500D01*
X203848731Y-104995500D01*
X203651269Y-104995500D01*
X203651264Y-104995500D01*
X203456236Y-105026389D01*
X203268441Y-105087408D01*
X203092495Y-105177058D01*
X202932753Y-105293115D01*
X202793115Y-105432753D01*
X202677058Y-105592495D01*
X202587408Y-105768441D01*
X202526389Y-105956236D01*
X202495500Y-106151263D01*
X198504500Y-106151263D01*
X198473610Y-105956236D01*
X198445083Y-105868439D01*
X198412591Y-105768439D01*
X198322944Y-105592499D01*
X198315486Y-105582234D01*
X198206884Y-105432753D01*
X198067246Y-105293115D01*
X197907504Y-105177058D01*
X197907503Y-105177057D01*
X197907501Y-105177056D01*
X197731561Y-105087409D01*
X197731558Y-105087408D01*
X197543763Y-105026389D01*
X197348736Y-104995500D01*
X197348731Y-104995500D01*
X197151269Y-104995500D01*
X197151264Y-104995500D01*
X196956236Y-105026389D01*
X196768441Y-105087408D01*
X196592495Y-105177058D01*
X196432753Y-105293115D01*
X196293115Y-105432753D01*
X196177058Y-105592495D01*
X196087408Y-105768441D01*
X196026389Y-105956236D01*
X195995500Y-106151263D01*
X164951037Y-106151263D01*
X164989964Y-106122981D01*
X165130481Y-105982464D01*
X165247287Y-105821694D01*
X165337505Y-105644632D01*
X165398913Y-105455636D01*
X165430000Y-105259361D01*
X165430000Y-105060639D01*
X165398913Y-104864364D01*
X165337505Y-104675368D01*
X165337505Y-104675367D01*
X165275824Y-104554313D01*
X165247287Y-104498306D01*
X165130481Y-104337536D01*
X164989964Y-104197019D01*
X164829194Y-104080213D01*
X164672718Y-104000484D01*
X164621923Y-103952510D01*
X164605128Y-103884689D01*
X164627665Y-103818554D01*
X164672718Y-103779515D01*
X164829194Y-103699787D01*
X164989964Y-103582981D01*
X165130481Y-103442464D01*
X165247287Y-103281694D01*
X165337505Y-103104632D01*
X165398913Y-102915636D01*
X165430000Y-102719361D01*
X165430000Y-102520639D01*
X165398913Y-102324364D01*
X165363679Y-102215925D01*
X165337506Y-102135370D01*
X165337505Y-102135367D01*
X165247286Y-101958305D01*
X165236161Y-101942993D01*
X165130481Y-101797536D01*
X164989964Y-101657019D01*
X164829194Y-101540213D01*
X164672718Y-101460484D01*
X164621923Y-101412510D01*
X164605128Y-101344689D01*
X164627665Y-101278554D01*
X164672718Y-101239515D01*
X164829194Y-101159787D01*
X164989964Y-101042981D01*
X165130481Y-100902464D01*
X165247287Y-100741694D01*
X165337505Y-100564632D01*
X165398913Y-100375636D01*
X165430000Y-100179361D01*
X165430000Y-99980639D01*
X165398913Y-99784364D01*
X165337505Y-99595368D01*
X165337505Y-99595367D01*
X165261424Y-99446051D01*
X165247287Y-99418306D01*
X165130481Y-99257536D01*
X164989964Y-99117019D01*
X164829194Y-99000213D01*
X164672718Y-98920484D01*
X164621923Y-98872510D01*
X164605128Y-98804689D01*
X164627665Y-98738554D01*
X164672718Y-98699515D01*
X164829194Y-98619787D01*
X164989964Y-98502981D01*
X165130481Y-98362464D01*
X165247287Y-98201694D01*
X165337505Y-98024632D01*
X165398913Y-97835636D01*
X165430000Y-97639361D01*
X165430000Y-97440639D01*
X165398913Y-97244364D01*
X165337505Y-97055368D01*
X165337505Y-97055367D01*
X165276659Y-96935952D01*
X165247287Y-96878306D01*
X165130481Y-96717536D01*
X164989964Y-96577019D01*
X164829194Y-96460213D01*
X164672167Y-96380203D01*
X164621372Y-96332229D01*
X164604577Y-96264408D01*
X164627114Y-96198273D01*
X164672169Y-96159234D01*
X164828922Y-96079364D01*
X164866216Y-96052268D01*
X164303442Y-95489494D01*
X164363581Y-95473381D01*
X164479420Y-95406502D01*
X164574002Y-95311920D01*
X164640881Y-95196081D01*
X164656995Y-95135942D01*
X165219768Y-95698715D01*
X165246862Y-95661425D01*
X165337042Y-95484437D01*
X165398424Y-95295523D01*
X165398424Y-95295520D01*
X165429500Y-95099321D01*
X165429500Y-94900678D01*
X165398424Y-94704479D01*
X165398424Y-94704476D01*
X165337042Y-94515562D01*
X165246858Y-94338567D01*
X165219768Y-94301283D01*
X164656994Y-94864057D01*
X164640881Y-94803919D01*
X164574002Y-94688080D01*
X164479420Y-94593498D01*
X164363581Y-94526619D01*
X164303442Y-94510504D01*
X164866216Y-93947731D01*
X164866215Y-93947730D01*
X164828932Y-93920641D01*
X164651937Y-93830457D01*
X164463022Y-93769075D01*
X164266821Y-93738000D01*
X164068179Y-93738000D01*
X163871979Y-93769075D01*
X163871976Y-93769075D01*
X163683062Y-93830457D01*
X163506064Y-93920643D01*
X163468783Y-93947729D01*
X163468782Y-93947730D01*
X164031558Y-94510504D01*
X163971419Y-94526619D01*
X163855580Y-94593498D01*
X163760998Y-94688080D01*
X163694119Y-94803919D01*
X163678004Y-94864057D01*
X163115230Y-94301282D01*
X163115229Y-94301283D01*
X163088143Y-94338564D01*
X162997957Y-94515562D01*
X162936575Y-94704476D01*
X162936575Y-94704479D01*
X162905500Y-94900678D01*
X162905500Y-95099321D01*
X162936575Y-95295520D01*
X162936575Y-95295523D01*
X162997957Y-95484437D01*
X163088141Y-95661432D01*
X163115230Y-95698715D01*
X163115231Y-95698716D01*
X163678004Y-95135942D01*
X163694119Y-95196081D01*
X163760998Y-95311920D01*
X163855580Y-95406502D01*
X163971419Y-95473381D01*
X164031557Y-95489494D01*
X163468783Y-96052268D01*
X163468783Y-96052269D01*
X163506067Y-96079358D01*
X163662831Y-96159234D01*
X163713627Y-96207209D01*
X163730422Y-96275030D01*
X163707884Y-96341165D01*
X163662831Y-96380204D01*
X163505805Y-96460213D01*
X163345033Y-96577021D01*
X163204521Y-96717533D01*
X163087713Y-96878305D01*
X162997494Y-97055367D01*
X162997493Y-97055370D01*
X162936087Y-97244362D01*
X162905000Y-97440639D01*
X148243950Y-97440639D01*
X153622772Y-92061819D01*
X153684095Y-92028334D01*
X153710453Y-92025500D01*
X181689548Y-92025500D01*
X181756587Y-92045185D01*
X181777229Y-92061819D01*
X194114139Y-104398729D01*
X194114142Y-104398733D01*
X194201267Y-104485858D01*
X194278190Y-104537256D01*
X194283990Y-104541132D01*
X194283993Y-104541134D01*
X194303710Y-104554309D01*
X194303712Y-104554310D01*
X194303715Y-104554312D01*
X194370396Y-104581931D01*
X194370398Y-104581933D01*
X194410640Y-104598601D01*
X194417548Y-104601463D01*
X194477971Y-104613481D01*
X194538393Y-104625500D01*
X201561607Y-104625500D01*
X201622029Y-104613481D01*
X201682452Y-104601463D01*
X201715792Y-104587652D01*
X201796286Y-104554312D01*
X201851948Y-104517119D01*
X201898733Y-104485858D01*
X201985858Y-104398733D01*
X201985858Y-104398731D01*
X201996066Y-104388524D01*
X201996067Y-104388521D01*
X203372495Y-103012094D01*
X203433814Y-102978612D01*
X203479567Y-102977305D01*
X203571982Y-102991942D01*
X203651265Y-103004500D01*
X203651269Y-103004500D01*
X203848736Y-103004500D01*
X204043763Y-102973610D01*
X204080898Y-102961544D01*
X204231561Y-102912591D01*
X204407501Y-102822944D01*
X204513288Y-102746086D01*
X204567246Y-102706884D01*
X204567248Y-102706881D01*
X204567252Y-102706879D01*
X204706879Y-102567252D01*
X204706881Y-102567248D01*
X204706884Y-102567246D01*
X204757779Y-102497192D01*
X204822944Y-102407501D01*
X204912591Y-102231561D01*
X204973610Y-102043763D01*
X204977306Y-102020427D01*
X205004500Y-101848736D01*
X205004500Y-101651263D01*
X204973610Y-101456236D01*
X204945083Y-101368439D01*
X204912591Y-101268439D01*
X204822944Y-101092499D01*
X204790706Y-101048127D01*
X204706884Y-100932753D01*
X204567246Y-100793115D01*
X204407504Y-100677058D01*
X204407503Y-100677057D01*
X204407501Y-100677056D01*
X204231561Y-100587409D01*
X204231558Y-100587408D01*
X204043763Y-100526389D01*
X203848736Y-100495500D01*
X203848731Y-100495500D01*
X203651269Y-100495500D01*
X203651264Y-100495500D01*
X203456236Y-100526389D01*
X203268441Y-100587408D01*
X203268439Y-100587408D01*
X203268439Y-100587409D01*
X203209792Y-100617291D01*
X203092495Y-100677058D01*
X202932753Y-100793115D01*
X202793115Y-100932753D01*
X202677058Y-101092495D01*
X202587408Y-101268441D01*
X202526389Y-101456236D01*
X202495500Y-101651263D01*
X202495500Y-101848736D01*
X202522693Y-102020427D01*
X202513738Y-102089721D01*
X202487901Y-102127506D01*
X201277229Y-103338181D01*
X201215906Y-103371666D01*
X201189548Y-103374500D01*
X194910452Y-103374500D01*
X194843413Y-103354815D01*
X194822771Y-103338181D01*
X192432745Y-100948155D01*
X195996000Y-100948155D01*
X195996000Y-101500000D01*
X196816988Y-101500000D01*
X196784075Y-101557007D01*
X196750000Y-101684174D01*
X196750000Y-101815826D01*
X196784075Y-101942993D01*
X196816988Y-102000000D01*
X195996000Y-102000000D01*
X195996000Y-102551844D01*
X196002401Y-102611372D01*
X196002403Y-102611379D01*
X196052645Y-102746086D01*
X196052649Y-102746093D01*
X196138809Y-102861187D01*
X196138812Y-102861190D01*
X196253906Y-102947350D01*
X196253913Y-102947354D01*
X196388620Y-102997596D01*
X196388627Y-102997598D01*
X196448155Y-103003999D01*
X196448172Y-103004000D01*
X197000000Y-103004000D01*
X197000000Y-102183012D01*
X197057007Y-102215925D01*
X197184174Y-102250000D01*
X197315826Y-102250000D01*
X197442993Y-102215925D01*
X197500000Y-102183012D01*
X197500000Y-103004000D01*
X198051828Y-103004000D01*
X198051844Y-103003999D01*
X198111372Y-102997598D01*
X198111379Y-102997596D01*
X198246086Y-102947354D01*
X198246093Y-102947350D01*
X198361187Y-102861190D01*
X198361190Y-102861187D01*
X198447350Y-102746093D01*
X198447354Y-102746086D01*
X198497596Y-102611379D01*
X198497598Y-102611372D01*
X198503999Y-102551844D01*
X198504000Y-102551827D01*
X198504000Y-102000000D01*
X197683012Y-102000000D01*
X197715925Y-101942993D01*
X197750000Y-101815826D01*
X197750000Y-101684174D01*
X197715925Y-101557007D01*
X197683012Y-101500000D01*
X198504000Y-101500000D01*
X198504000Y-100948172D01*
X198503999Y-100948155D01*
X198497598Y-100888627D01*
X198497596Y-100888620D01*
X198447354Y-100753913D01*
X198447350Y-100753906D01*
X198361190Y-100638812D01*
X198361187Y-100638809D01*
X198246093Y-100552649D01*
X198246086Y-100552645D01*
X198111379Y-100502403D01*
X198111372Y-100502401D01*
X198051844Y-100496000D01*
X197500000Y-100496000D01*
X197500000Y-101316988D01*
X197442993Y-101284075D01*
X197315826Y-101250000D01*
X197184174Y-101250000D01*
X197057007Y-101284075D01*
X197000000Y-101316988D01*
X197000000Y-100496000D01*
X196448155Y-100496000D01*
X196388627Y-100502401D01*
X196388620Y-100502403D01*
X196253913Y-100552645D01*
X196253906Y-100552649D01*
X196138812Y-100638809D01*
X196138809Y-100638812D01*
X196052649Y-100753906D01*
X196052645Y-100753913D01*
X196002403Y-100888620D01*
X196002401Y-100888627D01*
X195996000Y-100948155D01*
X192432745Y-100948155D01*
X182493274Y-91008684D01*
X182485860Y-91001270D01*
X182485858Y-91001267D01*
X182398733Y-90914142D01*
X182343514Y-90877246D01*
X182336990Y-90872886D01*
X182336987Y-90872884D01*
X182296290Y-90845690D01*
X182296286Y-90845688D01*
X182296279Y-90845685D01*
X182213885Y-90811557D01*
X182182452Y-90798537D01*
X182122029Y-90786518D01*
X182117423Y-90785601D01*
X182117420Y-90785601D01*
X182061610Y-90774500D01*
X182061607Y-90774500D01*
X182061606Y-90774500D01*
X153338394Y-90774500D01*
X153338389Y-90774500D01*
X153217553Y-90798535D01*
X153217541Y-90798539D01*
X153186114Y-90811557D01*
X153170397Y-90818067D01*
X153103719Y-90845685D01*
X153103717Y-90845686D01*
X153001266Y-90914141D01*
X153001263Y-90914144D01*
X144497229Y-99418181D01*
X144435906Y-99451666D01*
X144409548Y-99454500D01*
X142476765Y-99454500D01*
X142409726Y-99434815D01*
X142376447Y-99403386D01*
X142270481Y-99257536D01*
X142129964Y-99117019D01*
X141969194Y-99000213D01*
X141812718Y-98920484D01*
X141761923Y-98872510D01*
X141745128Y-98804689D01*
X141767665Y-98738554D01*
X141812718Y-98699515D01*
X141969194Y-98619787D01*
X142129964Y-98502981D01*
X142270481Y-98362464D01*
X142387287Y-98201694D01*
X142477505Y-98024632D01*
X142538913Y-97835636D01*
X142570000Y-97639361D01*
X142570000Y-97440639D01*
X142538913Y-97244364D01*
X142477505Y-97055368D01*
X142477505Y-97055367D01*
X142416659Y-96935952D01*
X142387287Y-96878306D01*
X142270481Y-96717536D01*
X142129964Y-96577019D01*
X142005810Y-96486816D01*
X141963146Y-96431487D01*
X141957167Y-96361874D01*
X141989773Y-96300079D01*
X142050612Y-96265721D01*
X142078696Y-96262499D01*
X142117372Y-96262499D01*
X142176983Y-96256091D01*
X142311831Y-96205796D01*
X142427046Y-96119546D01*
X142513296Y-96004331D01*
X142563591Y-95869483D01*
X142570000Y-95809873D01*
X142569999Y-94190128D01*
X142563591Y-94130517D01*
X142549178Y-94091875D01*
X142513297Y-93995671D01*
X142513293Y-93995664D01*
X142427047Y-93880455D01*
X142427044Y-93880452D01*
X142311835Y-93794206D01*
X142311828Y-93794202D01*
X142176982Y-93743908D01*
X142176983Y-93743908D01*
X142117383Y-93737501D01*
X142117381Y-93737500D01*
X142117373Y-93737500D01*
X142117364Y-93737500D01*
X140497629Y-93737500D01*
X140497623Y-93737501D01*
X140438016Y-93743908D01*
X140303171Y-93794202D01*
X140303164Y-93794206D01*
X140187955Y-93880452D01*
X140187952Y-93880455D01*
X140101706Y-93995664D01*
X140101702Y-93995671D01*
X140051408Y-94130517D01*
X140045001Y-94190116D01*
X140045001Y-94190123D01*
X140045000Y-94190135D01*
X140045000Y-94250500D01*
X140025315Y-94317539D01*
X139972511Y-94363294D01*
X139921000Y-94374500D01*
X138938388Y-94374500D01*
X138817555Y-94398535D01*
X138817547Y-94398537D01*
X138703716Y-94445687D01*
X138624622Y-94498537D01*
X138624621Y-94498538D01*
X138601263Y-94514144D01*
X138601262Y-94514145D01*
X138211681Y-94903727D01*
X138150358Y-94937212D01*
X138080666Y-94932228D01*
X138024733Y-94890356D01*
X138000316Y-94824892D01*
X138000000Y-94816046D01*
X138000000Y-93900000D01*
X137983952Y-93900000D01*
X137916913Y-93880315D01*
X137871158Y-93827511D01*
X137861214Y-93758353D01*
X137890239Y-93694797D01*
X137896271Y-93688319D01*
X141722772Y-89861819D01*
X141784095Y-89828334D01*
X141810453Y-89825500D01*
X192161607Y-89825500D01*
X192222029Y-89813481D01*
X192282452Y-89801463D01*
X192315792Y-89787652D01*
X192396286Y-89754312D01*
X192447509Y-89720084D01*
X192498733Y-89685858D01*
X192585858Y-89598733D01*
X192585859Y-89598731D01*
X192592925Y-89591665D01*
X192592927Y-89591661D01*
X208651556Y-73533033D01*
X208712876Y-73499550D01*
X208782568Y-73504534D01*
X208838501Y-73546406D01*
X208862918Y-73611870D01*
X208848807Y-73678765D01*
X205499999Y-79999999D01*
X205499999Y-80000001D01*
X205599802Y-106982800D01*
X205597717Y-107005908D01*
X204697462Y-111851833D01*
X204688626Y-111880069D01*
X199128033Y-124236942D01*
X199106775Y-124269394D01*
X196560130Y-127075259D01*
X196537496Y-127094826D01*
X182412051Y-136591897D01*
X182386404Y-136605098D01*
X180021161Y-137492064D01*
X179977400Y-137499959D01*
X124223763Y-137400042D01*
X124177933Y-137391173D01*
X119216269Y-135406507D01*
X119186172Y-135389240D01*
X107886115Y-126596550D01*
X107872324Y-126584049D01*
X106526830Y-125166420D01*
X106423802Y-125057868D01*
X106401157Y-125024472D01*
X100414631Y-112053665D01*
X100406325Y-112029284D01*
X100403158Y-112015402D01*
X100400052Y-111987480D01*
X100414039Y-107007449D01*
X100433912Y-106940466D01*
X100486845Y-106894859D01*
X100556031Y-106885110D01*
X100619505Y-106914313D01*
X100648524Y-106951504D01*
X100677056Y-107007502D01*
X100793115Y-107167246D01*
X100932753Y-107306884D01*
X101078249Y-107412591D01*
X101092499Y-107422944D01*
X101268439Y-107512591D01*
X101393637Y-107553270D01*
X101456236Y-107573610D01*
X101651264Y-107604500D01*
X101651269Y-107604500D01*
X101848736Y-107604500D01*
X102043763Y-107573610D01*
X102231561Y-107512591D01*
X102407501Y-107422944D01*
X102497192Y-107357779D01*
X102567246Y-107306884D01*
X102567248Y-107306881D01*
X102567252Y-107306879D01*
X102706879Y-107167252D01*
X102706881Y-107167248D01*
X102706884Y-107167246D01*
X102772205Y-107077338D01*
X102822944Y-107007501D01*
X102912591Y-106831561D01*
X102973610Y-106643763D01*
X102977340Y-106620213D01*
X103004500Y-106448736D01*
X103004500Y-106251263D01*
X106995500Y-106251263D01*
X106995500Y-106448736D01*
X107026389Y-106643763D01*
X107056691Y-106737021D01*
X107087409Y-106831561D01*
X107177030Y-107007449D01*
X107177058Y-107007504D01*
X107293115Y-107167246D01*
X107432753Y-107306884D01*
X107578249Y-107412591D01*
X107592499Y-107422944D01*
X107768439Y-107512591D01*
X107893637Y-107553270D01*
X107956236Y-107573610D01*
X108151264Y-107604500D01*
X108151269Y-107604500D01*
X108348736Y-107604500D01*
X108543763Y-107573610D01*
X108731561Y-107512591D01*
X108907501Y-107422944D01*
X108997192Y-107357779D01*
X109067246Y-107306884D01*
X109067248Y-107306881D01*
X109067252Y-107306879D01*
X109206879Y-107167252D01*
X109206881Y-107167248D01*
X109206884Y-107167246D01*
X109272205Y-107077338D01*
X109322944Y-107007501D01*
X109412591Y-106831561D01*
X109473610Y-106643763D01*
X109477340Y-106620213D01*
X109504500Y-106448736D01*
X109504500Y-106251263D01*
X109473610Y-106056236D01*
X109441118Y-105956236D01*
X109412591Y-105868439D01*
X109322944Y-105692499D01*
X109288165Y-105644629D01*
X109206884Y-105532753D01*
X109067246Y-105393115D01*
X108907504Y-105277058D01*
X108907503Y-105277057D01*
X108907501Y-105277056D01*
X108731561Y-105187409D01*
X108699698Y-105177056D01*
X108543763Y-105126389D01*
X108348736Y-105095500D01*
X108348731Y-105095500D01*
X108151269Y-105095500D01*
X108151264Y-105095500D01*
X107956236Y-105126389D01*
X107768441Y-105187408D01*
X107592495Y-105277058D01*
X107432753Y-105393115D01*
X107293115Y-105532753D01*
X107177058Y-105692495D01*
X107087408Y-105868441D01*
X107026389Y-106056236D01*
X106995500Y-106251263D01*
X103004500Y-106251263D01*
X102973610Y-106056236D01*
X102941118Y-105956236D01*
X102912591Y-105868439D01*
X102822944Y-105692499D01*
X102788165Y-105644629D01*
X102706884Y-105532753D01*
X102567246Y-105393115D01*
X102407504Y-105277058D01*
X102407503Y-105277057D01*
X102407501Y-105277056D01*
X102231561Y-105187409D01*
X102199698Y-105177056D01*
X102043763Y-105126389D01*
X101848736Y-105095500D01*
X101848731Y-105095500D01*
X101651269Y-105095500D01*
X101651264Y-105095500D01*
X101456236Y-105126389D01*
X101268441Y-105187408D01*
X101092495Y-105277058D01*
X100932753Y-105393115D01*
X100793115Y-105532753D01*
X100677056Y-105692497D01*
X100652238Y-105741205D01*
X100604263Y-105792000D01*
X100536442Y-105808795D01*
X100470307Y-105786257D01*
X100426857Y-105731541D01*
X100417754Y-105684561D01*
X100417867Y-105644632D01*
X100425161Y-103047266D01*
X100445034Y-102980283D01*
X100497967Y-102934676D01*
X100567153Y-102924927D01*
X100630627Y-102954130D01*
X100636842Y-102959934D01*
X100638455Y-102961547D01*
X100753664Y-103047793D01*
X100753671Y-103047797D01*
X100888517Y-103098091D01*
X100888516Y-103098091D01*
X100895444Y-103098835D01*
X100948127Y-103104500D01*
X102551872Y-103104499D01*
X102611483Y-103098091D01*
X102746331Y-103047796D01*
X102861546Y-102961546D01*
X102947796Y-102846331D01*
X102998091Y-102711483D01*
X103004500Y-102651873D01*
X103004499Y-101751263D01*
X106995500Y-101751263D01*
X106995500Y-101948736D01*
X107026389Y-102143763D01*
X107070117Y-102278342D01*
X107087409Y-102331561D01*
X107130968Y-102417049D01*
X107177058Y-102507504D01*
X107293115Y-102667246D01*
X107432753Y-102806884D01*
X107578249Y-102912591D01*
X107592499Y-102922944D01*
X107768439Y-103012591D01*
X107893637Y-103053270D01*
X107956236Y-103073610D01*
X108151264Y-103104500D01*
X108151269Y-103104500D01*
X108348736Y-103104500D01*
X108543763Y-103073610D01*
X108731561Y-103012591D01*
X108907501Y-102922944D01*
X109012955Y-102846328D01*
X109067246Y-102806884D01*
X109067248Y-102806881D01*
X109067252Y-102806879D01*
X109206879Y-102667252D01*
X109206881Y-102667248D01*
X109206884Y-102667246D01*
X109257779Y-102597192D01*
X109322944Y-102507501D01*
X109412591Y-102331561D01*
X109473610Y-102143763D01*
X109476185Y-102127506D01*
X109504500Y-101948736D01*
X109504500Y-101751263D01*
X109473610Y-101556236D01*
X109429372Y-101420087D01*
X109412591Y-101368439D01*
X109322944Y-101192499D01*
X109282736Y-101137157D01*
X109206884Y-101032753D01*
X109067246Y-100893115D01*
X108907504Y-100777058D01*
X108907503Y-100777057D01*
X108907501Y-100777056D01*
X108731561Y-100687409D01*
X108699698Y-100677056D01*
X108543763Y-100626389D01*
X108348736Y-100595500D01*
X108348731Y-100595500D01*
X108151269Y-100595500D01*
X108151264Y-100595500D01*
X107956236Y-100626389D01*
X107768441Y-100687408D01*
X107592495Y-100777058D01*
X107432753Y-100893115D01*
X107293115Y-101032753D01*
X107177058Y-101192495D01*
X107087408Y-101368441D01*
X107026389Y-101556236D01*
X106995500Y-101751263D01*
X103004499Y-101751263D01*
X103004499Y-101048128D01*
X102998091Y-100988517D01*
X102983043Y-100948172D01*
X102947797Y-100853671D01*
X102947793Y-100853664D01*
X102861547Y-100738455D01*
X102861544Y-100738452D01*
X102746335Y-100652206D01*
X102746328Y-100652202D01*
X102611482Y-100601908D01*
X102611483Y-100601908D01*
X102551883Y-100595501D01*
X102551881Y-100595500D01*
X102551873Y-100595500D01*
X102551864Y-100595500D01*
X100948129Y-100595500D01*
X100948123Y-100595501D01*
X100888516Y-100601908D01*
X100753671Y-100652202D01*
X100753664Y-100652206D01*
X100631355Y-100743768D01*
X100629357Y-100741099D01*
X100582211Y-100766817D01*
X100512521Y-100761802D01*
X100456606Y-100719906D01*
X100432218Y-100654431D01*
X100431907Y-100645323D01*
X100496668Y-77586334D01*
X100516540Y-77519354D01*
X100569473Y-77473747D01*
X100638659Y-77463998D01*
X100702133Y-77493201D01*
X100708348Y-77499005D01*
X103063181Y-79853838D01*
X103096666Y-79915161D01*
X103099500Y-79941519D01*
X103099500Y-88831006D01*
X103099500Y-88968994D01*
X103099500Y-88968996D01*
X103099499Y-88968996D01*
X103126418Y-89104322D01*
X103126421Y-89104332D01*
X103179222Y-89231807D01*
X103255887Y-89346545D01*
X103255888Y-89346546D01*
X106455886Y-92546542D01*
X106553458Y-92644114D01*
X106553459Y-92644115D01*
X106668184Y-92720772D01*
X106668185Y-92720772D01*
X106668189Y-92720775D01*
X106709248Y-92737782D01*
X106795671Y-92773580D01*
X106822591Y-92778934D01*
X106921026Y-92798514D01*
X106931006Y-92800500D01*
X106931007Y-92800500D01*
X107225501Y-92800500D01*
X107292540Y-92820185D01*
X107338295Y-92872989D01*
X107349501Y-92924500D01*
X107349501Y-92997876D01*
X107355908Y-93057483D01*
X107406202Y-93192328D01*
X107406206Y-93192335D01*
X107492452Y-93307544D01*
X107492455Y-93307547D01*
X107607664Y-93393793D01*
X107607671Y-93393797D01*
X107742517Y-93444091D01*
X107742516Y-93444091D01*
X107749444Y-93444835D01*
X107802127Y-93450500D01*
X109597872Y-93450499D01*
X109657483Y-93444091D01*
X109792331Y-93393796D01*
X109907546Y-93307546D01*
X109993796Y-93192331D01*
X110044091Y-93057483D01*
X110050500Y-92997873D01*
X110050499Y-91202128D01*
X110044091Y-91142517D01*
X110033705Y-91114672D01*
X109993797Y-91007671D01*
X109993793Y-91007664D01*
X109907547Y-90892455D01*
X109907544Y-90892452D01*
X109792335Y-90806206D01*
X109792328Y-90806202D01*
X109660917Y-90757189D01*
X109604983Y-90715318D01*
X109580566Y-90649853D01*
X109595418Y-90581580D01*
X109616563Y-90553332D01*
X109730104Y-90439792D01*
X109855051Y-90267816D01*
X109951557Y-90078412D01*
X110017246Y-89876243D01*
X110050500Y-89666287D01*
X110050500Y-89453713D01*
X110017246Y-89243757D01*
X109951557Y-89041588D01*
X109855051Y-88852184D01*
X109855049Y-88852181D01*
X109855048Y-88852179D01*
X109730109Y-88680213D01*
X109579786Y-88529890D01*
X109407820Y-88404951D01*
X109218414Y-88308444D01*
X109218413Y-88308443D01*
X109218412Y-88308443D01*
X109016243Y-88242754D01*
X109016241Y-88242753D01*
X109016240Y-88242753D01*
X108854957Y-88217208D01*
X108806287Y-88209500D01*
X108593713Y-88209500D01*
X108545042Y-88217208D01*
X108383760Y-88242753D01*
X108181585Y-88308444D01*
X107992179Y-88404951D01*
X107820213Y-88529890D01*
X107669890Y-88680213D01*
X107544951Y-88852179D01*
X107448444Y-89041585D01*
X107382753Y-89243760D01*
X107349500Y-89453713D01*
X107349500Y-89666286D01*
X107382753Y-89876239D01*
X107448444Y-90078414D01*
X107544951Y-90267820D01*
X107669890Y-90439786D01*
X107783430Y-90553326D01*
X107816915Y-90614649D01*
X107811931Y-90684341D01*
X107770059Y-90740274D01*
X107739083Y-90757189D01*
X107607669Y-90806203D01*
X107607664Y-90806206D01*
X107492455Y-90892452D01*
X107492452Y-90892455D01*
X107406206Y-91007664D01*
X107406202Y-91007671D01*
X107355908Y-91142516D01*
X107352283Y-91176234D01*
X107325543Y-91240785D01*
X107268150Y-91280631D01*
X107198325Y-91283123D01*
X107141313Y-91250657D01*
X104536819Y-88646162D01*
X104503334Y-88584839D01*
X104500500Y-88558481D01*
X104500500Y-79531004D01*
X104473581Y-79395677D01*
X104473580Y-79395676D01*
X104473580Y-79395672D01*
X104442382Y-79320352D01*
X104420778Y-79268195D01*
X104420774Y-79268188D01*
X104400559Y-79237934D01*
X104389684Y-79221658D01*
X104344114Y-79153457D01*
X104344112Y-79153454D01*
X104344109Y-79153451D01*
X94487235Y-69296578D01*
X94404420Y-69213763D01*
X95495500Y-69213763D01*
X95495500Y-69411236D01*
X95526389Y-69606263D01*
X95580512Y-69772835D01*
X95587409Y-69794061D01*
X95677056Y-69970001D01*
X95677058Y-69970004D01*
X95793115Y-70129746D01*
X95932753Y-70269384D01*
X96078249Y-70375091D01*
X96092499Y-70385444D01*
X96268439Y-70475091D01*
X96393637Y-70515770D01*
X96456236Y-70536110D01*
X96651264Y-70567000D01*
X96651269Y-70567000D01*
X96848736Y-70567000D01*
X97043763Y-70536110D01*
X97231561Y-70475091D01*
X97407501Y-70385444D01*
X97497192Y-70320279D01*
X97567246Y-70269384D01*
X97567248Y-70269381D01*
X97567252Y-70269379D01*
X97706879Y-70129752D01*
X97706881Y-70129748D01*
X97706884Y-70129746D01*
X97757779Y-70059692D01*
X97822944Y-69970001D01*
X97912591Y-69794061D01*
X97973610Y-69606263D01*
X98004500Y-69411236D01*
X98004500Y-69213763D01*
X101995500Y-69213763D01*
X101995500Y-69411236D01*
X102026389Y-69606263D01*
X102080512Y-69772835D01*
X102087409Y-69794061D01*
X102177056Y-69970001D01*
X102177058Y-69970004D01*
X102293115Y-70129746D01*
X102432753Y-70269384D01*
X102578249Y-70375091D01*
X102592499Y-70385444D01*
X102768439Y-70475091D01*
X102893637Y-70515770D01*
X102956236Y-70536110D01*
X103151264Y-70567000D01*
X103151269Y-70567000D01*
X103348736Y-70567000D01*
X103543763Y-70536110D01*
X103731561Y-70475091D01*
X103907501Y-70385444D01*
X103997192Y-70320279D01*
X104067246Y-70269384D01*
X104067248Y-70269381D01*
X104067252Y-70269379D01*
X104206879Y-70129752D01*
X104206881Y-70129748D01*
X104206884Y-70129746D01*
X104257779Y-70059692D01*
X104322944Y-69970001D01*
X104412591Y-69794061D01*
X104473610Y-69606263D01*
X104504500Y-69411236D01*
X104504500Y-69213763D01*
X104473610Y-69018736D01*
X104446412Y-68935029D01*
X104436784Y-68905397D01*
X104435543Y-68901577D01*
X145299500Y-68901577D01*
X145299500Y-69098422D01*
X145330290Y-69292826D01*
X145391117Y-69480029D01*
X145455437Y-69606263D01*
X145480476Y-69655405D01*
X145596172Y-69814646D01*
X145735354Y-69953828D01*
X145894595Y-70069524D01*
X145977455Y-70111743D01*
X146069970Y-70158882D01*
X146069972Y-70158882D01*
X146069975Y-70158884D01*
X146170317Y-70191487D01*
X146257173Y-70219709D01*
X146451578Y-70250500D01*
X146451583Y-70250500D01*
X146648422Y-70250500D01*
X146842826Y-70219709D01*
X146854490Y-70215919D01*
X147030025Y-70158884D01*
X147205405Y-70069524D01*
X147364646Y-69953828D01*
X147503828Y-69814646D01*
X147619524Y-69655405D01*
X147708884Y-69480025D01*
X147709515Y-69478787D01*
X147757489Y-69427990D01*
X147825310Y-69411195D01*
X147891445Y-69433732D01*
X147930485Y-69478787D01*
X148020474Y-69655403D01*
X148023964Y-69660206D01*
X148136172Y-69814646D01*
X148275354Y-69953828D01*
X148434595Y-70069524D01*
X148517455Y-70111743D01*
X148609970Y-70158882D01*
X148609972Y-70158882D01*
X148609975Y-70158884D01*
X148710317Y-70191487D01*
X148797173Y-70219709D01*
X148991578Y-70250500D01*
X148991583Y-70250500D01*
X149188422Y-70250500D01*
X149382826Y-70219709D01*
X149394490Y-70215919D01*
X149570025Y-70158884D01*
X149745405Y-70069524D01*
X149904646Y-69953828D01*
X150043828Y-69814646D01*
X150159524Y-69655405D01*
X150248884Y-69480025D01*
X150249515Y-69478787D01*
X150297489Y-69427990D01*
X150365310Y-69411195D01*
X150431445Y-69433732D01*
X150470485Y-69478787D01*
X150560474Y-69655403D01*
X150563964Y-69660206D01*
X150676172Y-69814646D01*
X150815354Y-69953828D01*
X150974595Y-70069524D01*
X151057455Y-70111743D01*
X151149970Y-70158882D01*
X151149972Y-70158882D01*
X151149975Y-70158884D01*
X151250317Y-70191487D01*
X151337173Y-70219709D01*
X151531578Y-70250500D01*
X151531583Y-70250500D01*
X151728422Y-70250500D01*
X151922826Y-70219709D01*
X151934490Y-70215919D01*
X152110025Y-70158884D01*
X152285405Y-70069524D01*
X152444646Y-69953828D01*
X152583828Y-69814646D01*
X152699524Y-69655405D01*
X152788884Y-69480025D01*
X152789515Y-69478787D01*
X152837489Y-69427990D01*
X152905310Y-69411195D01*
X152971445Y-69433732D01*
X153010485Y-69478787D01*
X153100474Y-69655403D01*
X153103964Y-69660206D01*
X153216172Y-69814646D01*
X153355354Y-69953828D01*
X153514595Y-70069524D01*
X153597455Y-70111743D01*
X153689970Y-70158882D01*
X153689972Y-70158882D01*
X153689975Y-70158884D01*
X153790317Y-70191487D01*
X153877173Y-70219709D01*
X154071578Y-70250500D01*
X154071583Y-70250500D01*
X154268422Y-70250500D01*
X154462826Y-70219709D01*
X154474490Y-70215919D01*
X154650025Y-70158884D01*
X154825405Y-70069524D01*
X154984646Y-69953828D01*
X155123828Y-69814646D01*
X155239524Y-69655405D01*
X155328884Y-69480025D01*
X155329515Y-69478787D01*
X155377489Y-69427990D01*
X155445310Y-69411195D01*
X155511445Y-69433732D01*
X155550485Y-69478787D01*
X155640474Y-69655403D01*
X155643964Y-69660206D01*
X155756172Y-69814646D01*
X155895354Y-69953828D01*
X156054595Y-70069524D01*
X156137455Y-70111743D01*
X156229970Y-70158882D01*
X156229972Y-70158882D01*
X156229975Y-70158884D01*
X156330317Y-70191487D01*
X156417173Y-70219709D01*
X156611578Y-70250500D01*
X156611583Y-70250500D01*
X156808422Y-70250500D01*
X157002826Y-70219709D01*
X157014490Y-70215919D01*
X157190025Y-70158884D01*
X157365405Y-70069524D01*
X157524646Y-69953828D01*
X157663828Y-69814646D01*
X157779524Y-69655405D01*
X157868884Y-69480025D01*
X157869515Y-69478787D01*
X157917489Y-69427990D01*
X157985310Y-69411195D01*
X158051445Y-69433732D01*
X158090485Y-69478787D01*
X158180474Y-69655403D01*
X158183964Y-69660206D01*
X158296172Y-69814646D01*
X158435354Y-69953828D01*
X158594595Y-70069524D01*
X158677455Y-70111743D01*
X158769970Y-70158882D01*
X158769972Y-70158882D01*
X158769975Y-70158884D01*
X158870317Y-70191487D01*
X158957173Y-70219709D01*
X159151578Y-70250500D01*
X159151583Y-70250500D01*
X159348422Y-70250500D01*
X159542826Y-70219709D01*
X159554490Y-70215919D01*
X159730025Y-70158884D01*
X159905405Y-70069524D01*
X160064646Y-69953828D01*
X160203828Y-69814646D01*
X160319524Y-69655405D01*
X160408884Y-69480025D01*
X160469709Y-69292826D01*
X160479762Y-69229353D01*
X160498070Y-69113763D01*
X201495500Y-69113763D01*
X201495500Y-69311236D01*
X201526389Y-69506263D01*
X201568204Y-69634954D01*
X201587409Y-69694061D01*
X201677056Y-69870001D01*
X201677058Y-69870004D01*
X201793115Y-70029746D01*
X201932753Y-70169384D01*
X202044402Y-70250500D01*
X202092499Y-70285444D01*
X202268439Y-70375091D01*
X202393637Y-70415770D01*
X202456236Y-70436110D01*
X202651264Y-70467000D01*
X202651269Y-70467000D01*
X202848736Y-70467000D01*
X203043763Y-70436110D01*
X203231561Y-70375091D01*
X203407501Y-70285444D01*
X203503195Y-70215919D01*
X203567246Y-70169384D01*
X203567248Y-70169381D01*
X203567252Y-70169379D01*
X203706879Y-70029752D01*
X203706881Y-70029748D01*
X203706884Y-70029746D01*
X203762043Y-69953825D01*
X203822944Y-69870001D01*
X203912591Y-69694061D01*
X203973610Y-69506263D01*
X203985098Y-69433732D01*
X204004500Y-69311236D01*
X204004500Y-69113763D01*
X203973610Y-68918736D01*
X203929543Y-68783112D01*
X203912591Y-68730939D01*
X203822944Y-68554999D01*
X203782324Y-68499090D01*
X203706884Y-68395253D01*
X203567904Y-68256273D01*
X203534419Y-68194950D01*
X203538333Y-68140210D01*
X203507332Y-68151773D01*
X203485226Y-68160018D01*
X203485224Y-68160017D01*
X203485224Y-68160018D01*
X203447325Y-68151773D01*
X203416953Y-68145166D01*
X203411593Y-68142063D01*
X203407506Y-68139558D01*
X203317973Y-68093939D01*
X203231561Y-68049909D01*
X203220060Y-68046172D01*
X203043763Y-67988889D01*
X202848736Y-67958000D01*
X202848731Y-67958000D01*
X202651269Y-67958000D01*
X202651264Y-67958000D01*
X202456236Y-67988889D01*
X202268441Y-68049908D01*
X202092495Y-68139558D01*
X201932753Y-68255615D01*
X201793115Y-68395253D01*
X201677058Y-68554995D01*
X201587408Y-68730941D01*
X201526389Y-68918736D01*
X201495500Y-69113763D01*
X160498070Y-69113763D01*
X160500500Y-69098422D01*
X160500500Y-68901577D01*
X160469709Y-68707173D01*
X160420263Y-68554995D01*
X160408884Y-68519975D01*
X160408882Y-68519972D01*
X160408882Y-68519970D01*
X160345333Y-68395248D01*
X160319524Y-68344595D01*
X160203828Y-68185354D01*
X160064646Y-68046172D01*
X159905405Y-67930476D01*
X159897364Y-67926379D01*
X159730029Y-67841117D01*
X159542826Y-67780290D01*
X159348422Y-67749500D01*
X159348417Y-67749500D01*
X159151583Y-67749500D01*
X159151578Y-67749500D01*
X158957173Y-67780290D01*
X158769970Y-67841117D01*
X158594594Y-67930476D01*
X158517400Y-67986562D01*
X158435354Y-68046172D01*
X158435352Y-68046174D01*
X158435351Y-68046174D01*
X158296174Y-68185351D01*
X158296174Y-68185352D01*
X158296172Y-68185354D01*
X158281051Y-68206166D01*
X158180476Y-68344594D01*
X158090485Y-68521213D01*
X158042511Y-68572009D01*
X157974690Y-68588804D01*
X157908555Y-68566267D01*
X157869515Y-68521213D01*
X157805333Y-68395248D01*
X157779524Y-68344595D01*
X157663828Y-68185354D01*
X157524646Y-68046172D01*
X157365405Y-67930476D01*
X157357364Y-67926379D01*
X157190029Y-67841117D01*
X157002826Y-67780290D01*
X156808422Y-67749500D01*
X156808417Y-67749500D01*
X156611583Y-67749500D01*
X156611578Y-67749500D01*
X156417173Y-67780290D01*
X156229970Y-67841117D01*
X156054594Y-67930476D01*
X155977400Y-67986562D01*
X155895354Y-68046172D01*
X155895352Y-68046174D01*
X155895351Y-68046174D01*
X155756174Y-68185351D01*
X155756174Y-68185352D01*
X155756172Y-68185354D01*
X155741051Y-68206166D01*
X155640476Y-68344594D01*
X155550485Y-68521213D01*
X155502511Y-68572009D01*
X155434690Y-68588804D01*
X155368555Y-68566267D01*
X155329515Y-68521213D01*
X155265333Y-68395248D01*
X155239524Y-68344595D01*
X155123828Y-68185354D01*
X154984646Y-68046172D01*
X154825405Y-67930476D01*
X154817364Y-67926379D01*
X154650029Y-67841117D01*
X154462826Y-67780290D01*
X154268422Y-67749500D01*
X154268417Y-67749500D01*
X154071583Y-67749500D01*
X154071578Y-67749500D01*
X153877173Y-67780290D01*
X153689970Y-67841117D01*
X153514594Y-67930476D01*
X153437400Y-67986562D01*
X153355354Y-68046172D01*
X153355352Y-68046174D01*
X153355351Y-68046174D01*
X153216174Y-68185351D01*
X153216174Y-68185352D01*
X153216172Y-68185354D01*
X153201051Y-68206166D01*
X153100476Y-68344594D01*
X153010485Y-68521213D01*
X152962511Y-68572009D01*
X152894690Y-68588804D01*
X152828555Y-68566267D01*
X152789515Y-68521213D01*
X152725333Y-68395248D01*
X152699524Y-68344595D01*
X152583828Y-68185354D01*
X152444646Y-68046172D01*
X152285405Y-67930476D01*
X152277364Y-67926379D01*
X152110029Y-67841117D01*
X151922826Y-67780290D01*
X151728422Y-67749500D01*
X151728417Y-67749500D01*
X151531583Y-67749500D01*
X151531578Y-67749500D01*
X151337173Y-67780290D01*
X151149970Y-67841117D01*
X150974594Y-67930476D01*
X150897400Y-67986562D01*
X150815354Y-68046172D01*
X150815352Y-68046174D01*
X150815351Y-68046174D01*
X150676174Y-68185351D01*
X150676174Y-68185352D01*
X150676172Y-68185354D01*
X150661051Y-68206166D01*
X150560476Y-68344594D01*
X150470485Y-68521213D01*
X150422511Y-68572009D01*
X150354690Y-68588804D01*
X150288555Y-68566267D01*
X150249515Y-68521213D01*
X150185333Y-68395248D01*
X150159524Y-68344595D01*
X150043828Y-68185354D01*
X149904646Y-68046172D01*
X149745405Y-67930476D01*
X149737364Y-67926379D01*
X149570029Y-67841117D01*
X149382826Y-67780290D01*
X149188422Y-67749500D01*
X149188417Y-67749500D01*
X148991583Y-67749500D01*
X148991578Y-67749500D01*
X148797173Y-67780290D01*
X148609970Y-67841117D01*
X148434594Y-67930476D01*
X148357400Y-67986562D01*
X148275354Y-68046172D01*
X148275352Y-68046174D01*
X148275351Y-68046174D01*
X148136174Y-68185351D01*
X148136174Y-68185352D01*
X148136172Y-68185354D01*
X148121051Y-68206166D01*
X148020476Y-68344594D01*
X147930485Y-68521213D01*
X147882511Y-68572009D01*
X147814690Y-68588804D01*
X147748555Y-68566267D01*
X147709515Y-68521213D01*
X147645333Y-68395248D01*
X147619524Y-68344595D01*
X147503828Y-68185354D01*
X147364646Y-68046172D01*
X147205405Y-67930476D01*
X147197364Y-67926379D01*
X147030029Y-67841117D01*
X146842826Y-67780290D01*
X146648422Y-67749500D01*
X146648417Y-67749500D01*
X146451583Y-67749500D01*
X146451578Y-67749500D01*
X146257173Y-67780290D01*
X146069970Y-67841117D01*
X145894594Y-67930476D01*
X145817400Y-67986562D01*
X145735354Y-68046172D01*
X145735352Y-68046174D01*
X145735351Y-68046174D01*
X145596174Y-68185351D01*
X145596174Y-68185352D01*
X145596172Y-68185354D01*
X145581051Y-68206166D01*
X145480476Y-68344594D01*
X145391117Y-68519970D01*
X145330290Y-68707173D01*
X145299500Y-68901577D01*
X104435543Y-68901577D01*
X104412591Y-68830939D01*
X104322944Y-68654999D01*
X104262649Y-68572009D01*
X104206884Y-68495253D01*
X104067246Y-68355615D01*
X103907504Y-68239558D01*
X103907503Y-68239557D01*
X103907501Y-68239556D01*
X103731561Y-68149909D01*
X103717022Y-68145185D01*
X103543763Y-68088889D01*
X103348736Y-68058000D01*
X103348731Y-68058000D01*
X103151269Y-68058000D01*
X103151264Y-68058000D01*
X102956236Y-68088889D01*
X102768441Y-68149908D01*
X102592495Y-68239558D01*
X102432753Y-68355615D01*
X102293115Y-68495253D01*
X102177058Y-68654995D01*
X102087408Y-68830941D01*
X102026389Y-69018736D01*
X101995500Y-69213763D01*
X98004500Y-69213763D01*
X97973610Y-69018736D01*
X97936784Y-68905397D01*
X97912591Y-68830939D01*
X97822944Y-68654999D01*
X97762649Y-68572009D01*
X97706884Y-68495253D01*
X97567246Y-68355615D01*
X97407504Y-68239558D01*
X97407503Y-68239557D01*
X97407501Y-68239556D01*
X97231561Y-68149909D01*
X97217022Y-68145185D01*
X97043763Y-68088889D01*
X96848736Y-68058000D01*
X96848731Y-68058000D01*
X96651269Y-68058000D01*
X96651264Y-68058000D01*
X96456236Y-68088889D01*
X96268441Y-68149908D01*
X96092495Y-68239558D01*
X95932753Y-68355615D01*
X95793115Y-68495253D01*
X95677058Y-68654995D01*
X95587408Y-68830941D01*
X95526389Y-69018736D01*
X95495500Y-69213763D01*
X94404420Y-69213763D01*
X90003683Y-64813026D01*
X89976803Y-64772797D01*
X89965087Y-64744512D01*
X89965086Y-64744511D01*
X89965084Y-64744505D01*
X89920924Y-64678415D01*
X89882954Y-64621588D01*
X89882948Y-64621580D01*
X89778419Y-64517051D01*
X89778415Y-64517048D01*
X89655501Y-64434919D01*
X89655488Y-64434912D01*
X89518917Y-64378343D01*
X89518907Y-64378340D01*
X89373920Y-64349500D01*
X89373918Y-64349500D01*
X89226082Y-64349500D01*
X89226080Y-64349500D01*
X89081092Y-64378340D01*
X89081082Y-64378343D01*
X88944511Y-64434912D01*
X88944498Y-64434919D01*
X88821584Y-64517048D01*
X88821580Y-64517051D01*
X88717051Y-64621580D01*
X88717048Y-64621584D01*
X88634919Y-64744498D01*
X88634912Y-64744511D01*
X88578343Y-64881082D01*
X88578342Y-64881086D01*
X88572786Y-64909015D01*
X88540398Y-64970924D01*
X88479681Y-65005496D01*
X88452322Y-65008814D01*
X68062319Y-65198490D01*
X67995100Y-65179430D01*
X67948856Y-65127053D01*
X67938269Y-65057990D01*
X67941233Y-65042998D01*
X67997609Y-64828334D01*
X68086777Y-64488807D01*
X68122845Y-64428968D01*
X68185539Y-64398127D01*
X68254955Y-64406076D01*
X68262984Y-64409811D01*
X68268439Y-64412591D01*
X68393637Y-64453270D01*
X68456236Y-64473610D01*
X68651264Y-64504500D01*
X68651269Y-64504500D01*
X68848736Y-64504500D01*
X69043763Y-64473610D01*
X69231561Y-64412591D01*
X69407501Y-64322944D01*
X69511712Y-64247231D01*
X69567246Y-64206884D01*
X69567248Y-64206881D01*
X69567252Y-64206879D01*
X69706879Y-64067252D01*
X69706881Y-64067248D01*
X69706884Y-64067246D01*
X69791328Y-63951017D01*
X69822944Y-63907501D01*
X69912591Y-63731561D01*
X69973610Y-63543763D01*
X69975012Y-63534912D01*
X70004500Y-63348736D01*
X70004500Y-63151263D01*
X73995500Y-63151263D01*
X73995500Y-63348736D01*
X74026389Y-63543763D01*
X74084166Y-63721580D01*
X74087409Y-63731561D01*
X74177056Y-63907501D01*
X74177058Y-63907504D01*
X74293115Y-64067246D01*
X74432753Y-64206884D01*
X74540884Y-64285444D01*
X74592499Y-64322944D01*
X74768439Y-64412591D01*
X74893637Y-64453270D01*
X74956236Y-64473610D01*
X75151264Y-64504500D01*
X75151269Y-64504500D01*
X75348736Y-64504500D01*
X75543763Y-64473610D01*
X75731561Y-64412591D01*
X75907501Y-64322944D01*
X76011712Y-64247231D01*
X76067246Y-64206884D01*
X76067248Y-64206881D01*
X76067252Y-64206879D01*
X76206879Y-64067252D01*
X76248013Y-64010635D01*
X95495500Y-64010635D01*
X95495500Y-65614370D01*
X95495501Y-65614376D01*
X95501908Y-65673983D01*
X95552202Y-65808828D01*
X95552206Y-65808835D01*
X95638452Y-65924044D01*
X95638455Y-65924047D01*
X95753664Y-66010293D01*
X95753671Y-66010297D01*
X95888517Y-66060591D01*
X95888516Y-66060591D01*
X95895444Y-66061335D01*
X95948127Y-66067000D01*
X97551872Y-66066999D01*
X97611483Y-66060591D01*
X97746331Y-66010296D01*
X97861546Y-65924046D01*
X97947796Y-65808831D01*
X97998091Y-65673983D01*
X98004500Y-65614373D01*
X98004499Y-64713763D01*
X101995500Y-64713763D01*
X101995500Y-64911236D01*
X102026389Y-65106263D01*
X102048372Y-65173918D01*
X102087409Y-65294061D01*
X102169665Y-65455495D01*
X102177058Y-65470004D01*
X102293115Y-65629746D01*
X102432753Y-65769384D01*
X102578249Y-65875091D01*
X102592499Y-65885444D01*
X102768439Y-65975091D01*
X102893637Y-66015770D01*
X102956236Y-66036110D01*
X103151264Y-66067000D01*
X103151269Y-66067000D01*
X103348736Y-66067000D01*
X103543763Y-66036110D01*
X103582200Y-66023621D01*
X103731561Y-65975091D01*
X103907501Y-65885444D01*
X104012955Y-65808828D01*
X104067246Y-65769384D01*
X104067248Y-65769381D01*
X104067252Y-65769379D01*
X104206879Y-65629752D01*
X104206881Y-65629748D01*
X104206884Y-65629746D01*
X104257779Y-65559692D01*
X104322944Y-65470001D01*
X104412591Y-65294061D01*
X104473610Y-65106263D01*
X104483630Y-65042998D01*
X104504500Y-64911236D01*
X104504500Y-64713763D01*
X104473610Y-64518736D01*
X104443316Y-64425501D01*
X104412591Y-64330939D01*
X104322944Y-64154999D01*
X104259193Y-64067252D01*
X104206884Y-63995253D01*
X104067246Y-63855615D01*
X103907504Y-63739558D01*
X103907503Y-63739557D01*
X103907501Y-63739556D01*
X103731561Y-63649909D01*
X103731558Y-63649908D01*
X103543763Y-63588889D01*
X103348736Y-63558000D01*
X103348731Y-63558000D01*
X103151269Y-63558000D01*
X103151264Y-63558000D01*
X102956236Y-63588889D01*
X102768441Y-63649908D01*
X102592495Y-63739558D01*
X102432753Y-63855615D01*
X102293115Y-63995253D01*
X102177058Y-64154995D01*
X102087408Y-64330941D01*
X102026389Y-64518736D01*
X101995500Y-64713763D01*
X98004499Y-64713763D01*
X98004499Y-64010628D01*
X97998091Y-63951017D01*
X97983027Y-63910629D01*
X97947797Y-63816171D01*
X97947793Y-63816164D01*
X97861547Y-63700955D01*
X97861544Y-63700952D01*
X97746335Y-63614706D01*
X97746328Y-63614702D01*
X97611482Y-63564408D01*
X97611483Y-63564408D01*
X97551883Y-63558001D01*
X97551881Y-63558000D01*
X97551873Y-63558000D01*
X97551864Y-63558000D01*
X95948129Y-63558000D01*
X95948123Y-63558001D01*
X95888516Y-63564408D01*
X95753671Y-63614702D01*
X95753664Y-63614706D01*
X95638455Y-63700952D01*
X95638452Y-63700955D01*
X95552206Y-63816164D01*
X95552202Y-63816171D01*
X95501908Y-63951017D01*
X95498675Y-63981092D01*
X95495501Y-64010623D01*
X95495500Y-64010635D01*
X76248013Y-64010635D01*
X76322944Y-63907501D01*
X76412591Y-63731561D01*
X76473610Y-63543763D01*
X76475012Y-63534912D01*
X76504500Y-63348736D01*
X76504500Y-63151263D01*
X76473610Y-62956236D01*
X76445590Y-62870001D01*
X76412591Y-62768439D01*
X76322944Y-62592499D01*
X76295696Y-62554995D01*
X76206884Y-62432753D01*
X76067250Y-62293119D01*
X76067245Y-62293115D01*
X75951766Y-62209215D01*
X75907503Y-62177057D01*
X75833904Y-62139556D01*
X75783283Y-62113763D01*
X82495500Y-62113763D01*
X82495500Y-62311236D01*
X82526389Y-62506263D01*
X82587408Y-62694058D01*
X82587409Y-62694061D01*
X82606200Y-62730939D01*
X82677058Y-62870004D01*
X82793115Y-63029746D01*
X82932753Y-63169384D01*
X83054706Y-63257986D01*
X83092499Y-63285444D01*
X83268439Y-63375091D01*
X83393637Y-63415770D01*
X83456236Y-63436110D01*
X83651264Y-63467000D01*
X83651269Y-63467000D01*
X83848736Y-63467000D01*
X84043763Y-63436110D01*
X84053787Y-63432853D01*
X84231561Y-63375091D01*
X84407501Y-63285444D01*
X84497192Y-63220279D01*
X84567246Y-63169384D01*
X84567248Y-63169381D01*
X84567252Y-63169379D01*
X84706879Y-63029752D01*
X84706883Y-63029747D01*
X84706884Y-63029746D01*
X84787536Y-62918736D01*
X84822944Y-62870001D01*
X84912591Y-62694061D01*
X84973610Y-62506263D01*
X84985254Y-62432748D01*
X85004500Y-62311236D01*
X85004500Y-62113763D01*
X88995500Y-62113763D01*
X88995500Y-62311236D01*
X89026389Y-62506263D01*
X89087408Y-62694058D01*
X89087409Y-62694061D01*
X89106200Y-62730939D01*
X89177058Y-62870004D01*
X89293115Y-63029746D01*
X89432753Y-63169384D01*
X89554706Y-63257986D01*
X89592499Y-63285444D01*
X89768439Y-63375091D01*
X89893637Y-63415770D01*
X89956236Y-63436110D01*
X90151264Y-63467000D01*
X90151269Y-63467000D01*
X90348736Y-63467000D01*
X90543763Y-63436110D01*
X90553787Y-63432853D01*
X90731561Y-63375091D01*
X90907501Y-63285444D01*
X90997192Y-63220279D01*
X91067246Y-63169384D01*
X91067248Y-63169381D01*
X91067252Y-63169379D01*
X91206879Y-63029752D01*
X91206883Y-63029747D01*
X91206884Y-63029746D01*
X91287536Y-62918736D01*
X91322944Y-62870001D01*
X91412591Y-62694061D01*
X91473610Y-62506263D01*
X91485254Y-62432748D01*
X91504500Y-62311236D01*
X91504500Y-62113763D01*
X214495500Y-62113763D01*
X214495500Y-62311236D01*
X214526389Y-62506263D01*
X214587408Y-62694058D01*
X214587409Y-62694061D01*
X214606200Y-62730939D01*
X214677058Y-62870004D01*
X214793115Y-63029746D01*
X214932753Y-63169384D01*
X215054706Y-63257986D01*
X215092499Y-63285444D01*
X215268439Y-63375091D01*
X215393637Y-63415770D01*
X215456236Y-63436110D01*
X215651264Y-63467000D01*
X215651269Y-63467000D01*
X215848736Y-63467000D01*
X216043763Y-63436110D01*
X216053787Y-63432853D01*
X216231561Y-63375091D01*
X216407501Y-63285444D01*
X216497192Y-63220279D01*
X216567246Y-63169384D01*
X216567248Y-63169381D01*
X216567252Y-63169379D01*
X216706879Y-63029752D01*
X216706883Y-63029747D01*
X216706884Y-63029746D01*
X216787536Y-62918736D01*
X216822944Y-62870001D01*
X216912591Y-62694061D01*
X216973610Y-62506263D01*
X216985254Y-62432748D01*
X217004500Y-62311236D01*
X217004500Y-62113763D01*
X216973610Y-61918736D01*
X216926679Y-61774299D01*
X216912591Y-61730939D01*
X216822944Y-61554999D01*
X216793178Y-61514029D01*
X216706884Y-61395253D01*
X216567246Y-61255615D01*
X216407504Y-61139558D01*
X216407503Y-61139557D01*
X216407501Y-61139556D01*
X216231561Y-61049909D01*
X216231558Y-61049908D01*
X216043763Y-60988889D01*
X215848736Y-60958000D01*
X215848731Y-60958000D01*
X215651269Y-60958000D01*
X215651264Y-60958000D01*
X215456236Y-60988889D01*
X215268441Y-61049908D01*
X215092495Y-61139558D01*
X214932753Y-61255615D01*
X214793115Y-61395253D01*
X214677058Y-61554995D01*
X214587408Y-61730941D01*
X214526389Y-61918736D01*
X214495500Y-62113763D01*
X91504500Y-62113763D01*
X91473610Y-61918736D01*
X91426679Y-61774299D01*
X91412591Y-61730939D01*
X91322944Y-61554999D01*
X91293178Y-61514029D01*
X91206884Y-61395253D01*
X91067246Y-61255615D01*
X90907504Y-61139558D01*
X90907503Y-61139557D01*
X90907501Y-61139556D01*
X90731561Y-61049909D01*
X90731558Y-61049908D01*
X90543763Y-60988889D01*
X90348736Y-60958000D01*
X90348731Y-60958000D01*
X90151269Y-60958000D01*
X90151264Y-60958000D01*
X89956236Y-60988889D01*
X89768441Y-61049908D01*
X89592495Y-61139558D01*
X89432753Y-61255615D01*
X89293115Y-61395253D01*
X89177058Y-61554995D01*
X89087408Y-61730941D01*
X89026389Y-61918736D01*
X88995500Y-62113763D01*
X85004500Y-62113763D01*
X84973610Y-61918736D01*
X84926679Y-61774299D01*
X84912591Y-61730939D01*
X84822944Y-61554999D01*
X84793178Y-61514029D01*
X84706884Y-61395253D01*
X84567246Y-61255615D01*
X84407504Y-61139558D01*
X84407503Y-61139557D01*
X84407501Y-61139556D01*
X84231561Y-61049909D01*
X84231558Y-61049908D01*
X84043763Y-60988889D01*
X83848736Y-60958000D01*
X83848731Y-60958000D01*
X83651269Y-60958000D01*
X83651264Y-60958000D01*
X83456236Y-60988889D01*
X83268441Y-61049908D01*
X83092495Y-61139558D01*
X82932753Y-61255615D01*
X82793115Y-61395253D01*
X82677058Y-61554995D01*
X82587408Y-61730941D01*
X82526389Y-61918736D01*
X82495500Y-62113763D01*
X75783283Y-62113763D01*
X75731561Y-62087409D01*
X75708300Y-62079851D01*
X75543763Y-62026389D01*
X75348736Y-61995500D01*
X75348731Y-61995500D01*
X75151269Y-61995500D01*
X75151264Y-61995500D01*
X74956236Y-62026389D01*
X74768441Y-62087408D01*
X74592495Y-62177058D01*
X74432753Y-62293115D01*
X74293115Y-62432753D01*
X74177058Y-62592495D01*
X74087408Y-62768441D01*
X74026389Y-62956236D01*
X73995500Y-63151263D01*
X70004500Y-63151263D01*
X69973610Y-62956236D01*
X69945590Y-62870001D01*
X69912591Y-62768439D01*
X69822944Y-62592499D01*
X69795696Y-62554995D01*
X69706884Y-62432753D01*
X69567246Y-62293115D01*
X69407504Y-62177058D01*
X69407503Y-62177057D01*
X69407501Y-62177056D01*
X69231561Y-62087409D01*
X69116880Y-62050147D01*
X69043764Y-62026390D01*
X68881205Y-62000642D01*
X68818071Y-61970712D01*
X68781140Y-61911400D01*
X68780671Y-61846675D01*
X69240182Y-60096996D01*
X69276248Y-60037161D01*
X69338942Y-60006320D01*
X69360111Y-60004499D01*
X69551872Y-60004499D01*
X69611483Y-59998091D01*
X69746331Y-59947796D01*
X69861546Y-59861546D01*
X69947796Y-59746331D01*
X69998091Y-59611483D01*
X70004500Y-59551873D01*
X70004499Y-58651263D01*
X73995500Y-58651263D01*
X73995500Y-58848736D01*
X74026389Y-59043763D01*
X74081010Y-59211868D01*
X74087409Y-59231561D01*
X74134788Y-59324546D01*
X74177058Y-59407504D01*
X74293115Y-59567246D01*
X74432753Y-59706884D01*
X74540884Y-59785444D01*
X74592499Y-59822944D01*
X74768439Y-59912591D01*
X74893637Y-59953270D01*
X74956236Y-59973610D01*
X75151264Y-60004500D01*
X75151269Y-60004500D01*
X75348736Y-60004500D01*
X75543763Y-59973610D01*
X75731561Y-59912591D01*
X75907501Y-59822944D01*
X76012955Y-59746328D01*
X76067246Y-59706884D01*
X76067248Y-59706881D01*
X76067252Y-59706879D01*
X76206879Y-59567252D01*
X76206881Y-59567248D01*
X76206884Y-59567246D01*
X76257779Y-59497192D01*
X76322944Y-59407501D01*
X76412591Y-59231561D01*
X76473610Y-59043763D01*
X76504500Y-58848736D01*
X76504500Y-58651263D01*
X76473610Y-58456236D01*
X76435323Y-58338401D01*
X76412591Y-58268439D01*
X76322944Y-58092499D01*
X76295699Y-58054999D01*
X76206884Y-57932753D01*
X76067246Y-57793115D01*
X75907504Y-57677058D01*
X75907503Y-57677057D01*
X75907501Y-57677056D01*
X75731561Y-57587409D01*
X75731558Y-57587408D01*
X75543763Y-57526389D01*
X75348736Y-57495500D01*
X75348731Y-57495500D01*
X75151269Y-57495500D01*
X75151264Y-57495500D01*
X74956236Y-57526389D01*
X74768441Y-57587408D01*
X74592495Y-57677058D01*
X74432753Y-57793115D01*
X74293115Y-57932753D01*
X74177058Y-58092495D01*
X74087408Y-58268441D01*
X74026389Y-58456236D01*
X73995500Y-58651263D01*
X70004499Y-58651263D01*
X70004499Y-57948128D01*
X69998091Y-57888517D01*
X69984104Y-57851017D01*
X69947797Y-57753671D01*
X69947793Y-57753664D01*
X69915416Y-57710414D01*
X69890998Y-57644950D01*
X69894748Y-57604611D01*
X70077004Y-56910635D01*
X82495500Y-56910635D01*
X82495500Y-58514370D01*
X82495501Y-58514376D01*
X82501908Y-58573983D01*
X82552202Y-58708828D01*
X82552206Y-58708835D01*
X82638452Y-58824044D01*
X82638455Y-58824047D01*
X82753664Y-58910293D01*
X82753671Y-58910297D01*
X82888517Y-58960591D01*
X82888516Y-58960591D01*
X82895444Y-58961335D01*
X82948127Y-58967000D01*
X84551872Y-58966999D01*
X84611483Y-58960591D01*
X84746331Y-58910296D01*
X84861546Y-58824046D01*
X84947796Y-58708831D01*
X84998091Y-58573983D01*
X85004500Y-58514373D01*
X85004499Y-57613763D01*
X88995500Y-57613763D01*
X88995500Y-57811236D01*
X89026389Y-58006263D01*
X89087408Y-58194058D01*
X89087409Y-58194061D01*
X89106200Y-58230939D01*
X89177058Y-58370004D01*
X89293115Y-58529746D01*
X89432753Y-58669384D01*
X89566964Y-58766892D01*
X89592499Y-58785444D01*
X89768439Y-58875091D01*
X89893637Y-58915770D01*
X89956236Y-58936110D01*
X90151264Y-58967000D01*
X90151269Y-58967000D01*
X90348736Y-58967000D01*
X90543763Y-58936110D01*
X90731561Y-58875091D01*
X90907501Y-58785444D01*
X91012955Y-58708828D01*
X91067246Y-58669384D01*
X91067248Y-58669381D01*
X91067252Y-58669379D01*
X91206879Y-58529752D01*
X91206881Y-58529748D01*
X91206884Y-58529746D01*
X91287535Y-58418737D01*
X91322944Y-58370001D01*
X91412591Y-58194061D01*
X91473610Y-58006263D01*
X91482818Y-57948127D01*
X91504500Y-57811236D01*
X91504500Y-57613763D01*
X91473610Y-57418736D01*
X91453270Y-57356137D01*
X91412591Y-57230939D01*
X91322944Y-57054999D01*
X91300661Y-57024329D01*
X91268596Y-56980194D01*
X91268593Y-56980191D01*
X91218058Y-56910635D01*
X214495500Y-56910635D01*
X214495500Y-58514370D01*
X214495501Y-58514376D01*
X214501908Y-58573983D01*
X214552202Y-58708828D01*
X214552206Y-58708835D01*
X214638452Y-58824044D01*
X214638455Y-58824047D01*
X214753664Y-58910293D01*
X214753671Y-58910297D01*
X214888517Y-58960591D01*
X214888516Y-58960591D01*
X214895444Y-58961335D01*
X214948127Y-58967000D01*
X216551872Y-58966999D01*
X216611483Y-58960591D01*
X216746331Y-58910296D01*
X216861546Y-58824046D01*
X216947796Y-58708831D01*
X216998091Y-58573983D01*
X217004500Y-58514373D01*
X217004499Y-57613763D01*
X220995500Y-57613763D01*
X220995500Y-57811236D01*
X221026389Y-58006263D01*
X221087408Y-58194058D01*
X221087409Y-58194061D01*
X221106200Y-58230939D01*
X221177058Y-58370004D01*
X221293115Y-58529746D01*
X221432753Y-58669384D01*
X221566964Y-58766892D01*
X221592499Y-58785444D01*
X221768439Y-58875091D01*
X221893637Y-58915770D01*
X221956236Y-58936110D01*
X222151264Y-58967000D01*
X222151269Y-58967000D01*
X222348736Y-58967000D01*
X222543763Y-58936110D01*
X222731561Y-58875091D01*
X222907501Y-58785444D01*
X223012955Y-58708828D01*
X223067246Y-58669384D01*
X223067248Y-58669381D01*
X223067252Y-58669379D01*
X223206879Y-58529752D01*
X223206881Y-58529748D01*
X223206884Y-58529746D01*
X223287535Y-58418737D01*
X223322944Y-58370001D01*
X223412591Y-58194061D01*
X223473610Y-58006263D01*
X223482818Y-57948127D01*
X223488756Y-57910635D01*
X229495500Y-57910635D01*
X229495500Y-59514370D01*
X229495501Y-59514376D01*
X229501908Y-59573983D01*
X229552202Y-59708828D01*
X229552206Y-59708835D01*
X229638452Y-59824044D01*
X229638455Y-59824047D01*
X229753664Y-59910293D01*
X229753671Y-59910297D01*
X229888517Y-59960591D01*
X229888516Y-59960591D01*
X229895444Y-59961335D01*
X229948127Y-59967000D01*
X231551872Y-59966999D01*
X231611483Y-59960591D01*
X231746331Y-59910296D01*
X231861546Y-59824046D01*
X231947796Y-59708831D01*
X231998091Y-59573983D01*
X232004500Y-59514373D01*
X232004499Y-57910628D01*
X231998091Y-57851017D01*
X231976497Y-57793121D01*
X231947797Y-57716171D01*
X231947793Y-57716164D01*
X231861547Y-57600955D01*
X231861544Y-57600952D01*
X231746335Y-57514706D01*
X231746328Y-57514702D01*
X231611482Y-57464408D01*
X231611483Y-57464408D01*
X231551883Y-57458001D01*
X231551881Y-57458000D01*
X231551873Y-57458000D01*
X231551864Y-57458000D01*
X229948129Y-57458000D01*
X229948123Y-57458001D01*
X229888516Y-57464408D01*
X229753671Y-57514702D01*
X229753664Y-57514706D01*
X229638455Y-57600952D01*
X229638452Y-57600955D01*
X229552206Y-57716164D01*
X229552202Y-57716171D01*
X229501908Y-57851017D01*
X229497877Y-57888516D01*
X229495501Y-57910623D01*
X229495500Y-57910635D01*
X223488756Y-57910635D01*
X223492356Y-57887908D01*
X223504500Y-57811236D01*
X223504500Y-57613763D01*
X223473610Y-57418736D01*
X223453270Y-57356137D01*
X223412591Y-57230939D01*
X223322944Y-57054999D01*
X223300661Y-57024329D01*
X223206884Y-56895253D01*
X223067246Y-56755615D01*
X222907504Y-56639558D01*
X222907503Y-56639557D01*
X222907501Y-56639556D01*
X222731561Y-56549909D01*
X222722762Y-56547050D01*
X222543763Y-56488889D01*
X222348736Y-56458000D01*
X222348731Y-56458000D01*
X222151269Y-56458000D01*
X222151264Y-56458000D01*
X221956236Y-56488889D01*
X221768441Y-56549908D01*
X221592495Y-56639558D01*
X221432753Y-56755615D01*
X221293115Y-56895253D01*
X221177058Y-57054995D01*
X221087408Y-57230941D01*
X221026389Y-57418736D01*
X220995500Y-57613763D01*
X217004499Y-57613763D01*
X217004499Y-56910628D01*
X216998091Y-56851017D01*
X216962508Y-56755615D01*
X216947797Y-56716171D01*
X216947793Y-56716164D01*
X216861547Y-56600955D01*
X216861544Y-56600952D01*
X216746335Y-56514706D01*
X216746328Y-56514702D01*
X216611482Y-56464408D01*
X216611483Y-56464408D01*
X216551883Y-56458001D01*
X216551881Y-56458000D01*
X216551873Y-56458000D01*
X216551864Y-56458000D01*
X214948129Y-56458000D01*
X214948123Y-56458001D01*
X214888516Y-56464408D01*
X214753671Y-56514702D01*
X214753664Y-56514706D01*
X214638455Y-56600952D01*
X214638452Y-56600955D01*
X214552206Y-56716164D01*
X214552202Y-56716171D01*
X214501908Y-56851017D01*
X214497153Y-56895248D01*
X214495501Y-56910623D01*
X214495500Y-56910635D01*
X91218058Y-56910635D01*
X91218052Y-56910627D01*
X91206879Y-56895248D01*
X91067252Y-56755621D01*
X91067246Y-56755615D01*
X90907504Y-56639558D01*
X90907503Y-56639557D01*
X90907501Y-56639556D01*
X90731561Y-56549909D01*
X90722762Y-56547050D01*
X90543763Y-56488889D01*
X90348736Y-56458000D01*
X90348731Y-56458000D01*
X90151269Y-56458000D01*
X90151264Y-56458000D01*
X89956236Y-56488889D01*
X89768441Y-56549908D01*
X89592495Y-56639558D01*
X89432753Y-56755615D01*
X89293115Y-56895253D01*
X89177058Y-57054995D01*
X89087408Y-57230941D01*
X89026389Y-57418736D01*
X88995500Y-57613763D01*
X85004499Y-57613763D01*
X85004499Y-56910628D01*
X84998091Y-56851017D01*
X84962508Y-56755615D01*
X84947797Y-56716171D01*
X84947793Y-56716164D01*
X84861547Y-56600955D01*
X84861544Y-56600952D01*
X84746335Y-56514706D01*
X84746328Y-56514702D01*
X84611482Y-56464408D01*
X84611483Y-56464408D01*
X84551883Y-56458001D01*
X84551881Y-56458000D01*
X84551873Y-56458000D01*
X84551864Y-56458000D01*
X82948129Y-56458000D01*
X82948123Y-56458001D01*
X82888516Y-56464408D01*
X82753671Y-56514702D01*
X82753664Y-56514706D01*
X82638455Y-56600952D01*
X82638452Y-56600955D01*
X82552206Y-56716164D01*
X82552202Y-56716171D01*
X82501908Y-56851017D01*
X82497153Y-56895248D01*
X82495501Y-56910623D01*
X82495500Y-56910635D01*
X70077004Y-56910635D01*
X70475581Y-55392977D01*
X70511648Y-55333140D01*
X70574342Y-55302299D01*
X70596131Y-55300480D01*
X92580320Y-55410265D01*
X95931652Y-55427001D01*
X95931652Y-55427000D01*
X95931654Y-55427001D01*
X95964248Y-55411723D01*
X96016877Y-55400000D01*
X211480362Y-55400000D01*
X211482676Y-55400366D01*
X211483880Y-55400050D01*
X211518655Y-55406061D01*
X211520441Y-55406641D01*
X211578121Y-55446067D01*
X211582457Y-55451688D01*
X211595106Y-55469098D01*
X233321166Y-54902057D01*
X233388695Y-54919986D01*
G37*
%TD.AperFunction*%
%TA.AperFunction,Conductor*%
G36*
X140220374Y-100766729D02*
G01*
X140276307Y-100808601D01*
X140277358Y-100810025D01*
X140344519Y-100902464D01*
X140485036Y-101042981D01*
X140645806Y-101159787D01*
X140709999Y-101192495D01*
X140802280Y-101239515D01*
X140853076Y-101287490D01*
X140869871Y-101355311D01*
X140847333Y-101421446D01*
X140802280Y-101460485D01*
X140645805Y-101540213D01*
X140485033Y-101657021D01*
X140344521Y-101797533D01*
X140227713Y-101958305D01*
X140137494Y-102135367D01*
X140137493Y-102135370D01*
X140076087Y-102324362D01*
X140074415Y-102334919D01*
X140045000Y-102520639D01*
X140045000Y-102719361D01*
X140054777Y-102781092D01*
X140076087Y-102915637D01*
X140137493Y-103104629D01*
X140137494Y-103104632D01*
X140195721Y-103218907D01*
X140227713Y-103281694D01*
X140344519Y-103442464D01*
X140485036Y-103582981D01*
X140645806Y-103699787D01*
X140755125Y-103755488D01*
X140802280Y-103779515D01*
X140853076Y-103827490D01*
X140869871Y-103895311D01*
X140847333Y-103961446D01*
X140802280Y-104000485D01*
X140645805Y-104080213D01*
X140485033Y-104197021D01*
X140344521Y-104337533D01*
X140227713Y-104498305D01*
X140137494Y-104675367D01*
X140137493Y-104675370D01*
X140076087Y-104864362D01*
X140045000Y-105060639D01*
X140045000Y-105259360D01*
X140076087Y-105455637D01*
X140137493Y-105644629D01*
X140137494Y-105644632D01*
X140200578Y-105768439D01*
X140227713Y-105821694D01*
X140344519Y-105982464D01*
X140485036Y-106122981D01*
X140645806Y-106239787D01*
X140668341Y-106251269D01*
X140802280Y-106319515D01*
X140853076Y-106367490D01*
X140869871Y-106435311D01*
X140847333Y-106501446D01*
X140802280Y-106540485D01*
X140645805Y-106620213D01*
X140485033Y-106737021D01*
X140344521Y-106877533D01*
X140227713Y-107038305D01*
X140137494Y-107215367D01*
X140137493Y-107215370D01*
X140076087Y-107404362D01*
X140045000Y-107600639D01*
X140045000Y-107799360D01*
X140076087Y-107995637D01*
X140137493Y-108184629D01*
X140137494Y-108184632D01*
X140227713Y-108361694D01*
X140344519Y-108522464D01*
X140485036Y-108662981D01*
X140645806Y-108779787D01*
X140764332Y-108840179D01*
X140802280Y-108859515D01*
X140853076Y-108907490D01*
X140869871Y-108975311D01*
X140847333Y-109041446D01*
X140802280Y-109080485D01*
X140645805Y-109160213D01*
X140485033Y-109277021D01*
X140344521Y-109417533D01*
X140227713Y-109578305D01*
X140137494Y-109755367D01*
X140137493Y-109755370D01*
X140076087Y-109944362D01*
X140045000Y-110140639D01*
X140045000Y-110339360D01*
X140076087Y-110535637D01*
X140137493Y-110724629D01*
X140137494Y-110724632D01*
X140217213Y-110881087D01*
X140227713Y-110901694D01*
X140344519Y-111062464D01*
X140485036Y-111202981D01*
X140645806Y-111319787D01*
X140764332Y-111380179D01*
X140802280Y-111399515D01*
X140853076Y-111447490D01*
X140869871Y-111515311D01*
X140847333Y-111581446D01*
X140802280Y-111620485D01*
X140645805Y-111700213D01*
X140485033Y-111817021D01*
X140344521Y-111957533D01*
X140227713Y-112118305D01*
X140137494Y-112295367D01*
X140137493Y-112295370D01*
X140076087Y-112484362D01*
X140045000Y-112680639D01*
X140045000Y-112879360D01*
X140076087Y-113075637D01*
X140137493Y-113264629D01*
X140137494Y-113264632D01*
X140201240Y-113389738D01*
X140227713Y-113441694D01*
X140344519Y-113602464D01*
X140485036Y-113742981D01*
X140645806Y-113859787D01*
X140764332Y-113920179D01*
X140802280Y-113939515D01*
X140853076Y-113987490D01*
X140869871Y-114055311D01*
X140847333Y-114121446D01*
X140802280Y-114160485D01*
X140645805Y-114240213D01*
X140485033Y-114357021D01*
X140344521Y-114497533D01*
X140227713Y-114658305D01*
X140137494Y-114835367D01*
X140137493Y-114835370D01*
X140076087Y-115024362D01*
X140045000Y-115220639D01*
X140045000Y-115419360D01*
X140076087Y-115615637D01*
X140137493Y-115804629D01*
X140137494Y-115804632D01*
X140227713Y-115981694D01*
X140344519Y-116142464D01*
X140485036Y-116282981D01*
X140645806Y-116399787D01*
X140764332Y-116460179D01*
X140802280Y-116479515D01*
X140853076Y-116527490D01*
X140869871Y-116595311D01*
X140847333Y-116661446D01*
X140802280Y-116700485D01*
X140645805Y-116780213D01*
X140485033Y-116897021D01*
X140344521Y-117037533D01*
X140227713Y-117198305D01*
X140137494Y-117375367D01*
X140137493Y-117375370D01*
X140076087Y-117564362D01*
X140045000Y-117760639D01*
X140045000Y-117959360D01*
X140076087Y-118155637D01*
X140137493Y-118344629D01*
X140137494Y-118344632D01*
X140197097Y-118461607D01*
X140227713Y-118521694D01*
X140344519Y-118682464D01*
X140485036Y-118822981D01*
X140645806Y-118939787D01*
X140764332Y-119000179D01*
X140802280Y-119019515D01*
X140853076Y-119067490D01*
X140869871Y-119135311D01*
X140847333Y-119201446D01*
X140802280Y-119240485D01*
X140645805Y-119320213D01*
X140485033Y-119437021D01*
X140344521Y-119577533D01*
X140238553Y-119723386D01*
X140183223Y-119766051D01*
X140138235Y-119774500D01*
X139710452Y-119774500D01*
X139643413Y-119754815D01*
X139622771Y-119738181D01*
X138061819Y-118177229D01*
X138028334Y-118115906D01*
X138025500Y-118089548D01*
X138025500Y-111552351D01*
X138045185Y-111485312D01*
X138046398Y-111483460D01*
X138065084Y-111455495D01*
X138121658Y-111318913D01*
X138144719Y-111202981D01*
X138150500Y-111173920D01*
X138150500Y-111026079D01*
X138121659Y-110881092D01*
X138121658Y-110881091D01*
X138121658Y-110881087D01*
X138121656Y-110881082D01*
X138065087Y-110744511D01*
X138065080Y-110744498D01*
X137982951Y-110621584D01*
X137982948Y-110621580D01*
X137878419Y-110517051D01*
X137878415Y-110517048D01*
X137755501Y-110434919D01*
X137755488Y-110434912D01*
X137618917Y-110378343D01*
X137618907Y-110378340D01*
X137473920Y-110349500D01*
X137473918Y-110349500D01*
X137326082Y-110349500D01*
X137326080Y-110349500D01*
X137181092Y-110378340D01*
X137181082Y-110378343D01*
X137044511Y-110434912D01*
X137044498Y-110434919D01*
X136921584Y-110517048D01*
X136921580Y-110517051D01*
X136817051Y-110621580D01*
X136817048Y-110621584D01*
X136734919Y-110744498D01*
X136734912Y-110744511D01*
X136678343Y-110881082D01*
X136678340Y-110881092D01*
X136649500Y-111026079D01*
X136649500Y-111026082D01*
X136649500Y-111173918D01*
X136649500Y-111173920D01*
X136649499Y-111173920D01*
X136678340Y-111318907D01*
X136678343Y-111318917D01*
X136734913Y-111455490D01*
X136734914Y-111455492D01*
X136753602Y-111483460D01*
X136774480Y-111550138D01*
X136774500Y-111552351D01*
X136774500Y-118461611D01*
X136798535Y-118582444D01*
X136798540Y-118582461D01*
X136845685Y-118696280D01*
X136845687Y-118696283D01*
X136845688Y-118696286D01*
X136879915Y-118747509D01*
X136914142Y-118798733D01*
X137001267Y-118885858D01*
X137001270Y-118885860D01*
X137008554Y-118893144D01*
X138911016Y-120795606D01*
X138911045Y-120795637D01*
X139001264Y-120885856D01*
X139001267Y-120885858D01*
X139052490Y-120920084D01*
X139103714Y-120954312D01*
X139158704Y-120977089D01*
X139217548Y-121001463D01*
X139277971Y-121013481D01*
X139338393Y-121025500D01*
X139338394Y-121025500D01*
X140138235Y-121025500D01*
X140205274Y-121045185D01*
X140238552Y-121076613D01*
X140344519Y-121222464D01*
X140485036Y-121362981D01*
X140645806Y-121479787D01*
X140764332Y-121540179D01*
X140802280Y-121559515D01*
X140853076Y-121607490D01*
X140869871Y-121675311D01*
X140847333Y-121741446D01*
X140802280Y-121780485D01*
X140645805Y-121860213D01*
X140485033Y-121977021D01*
X140344521Y-122117533D01*
X140227713Y-122278305D01*
X140137494Y-122455367D01*
X140137493Y-122455370D01*
X140076087Y-122644362D01*
X140045000Y-122840639D01*
X140045000Y-123039360D01*
X140076087Y-123235637D01*
X140137493Y-123424629D01*
X140137494Y-123424632D01*
X140219330Y-123585241D01*
X140227713Y-123601694D01*
X140344519Y-123762464D01*
X140485036Y-123902981D01*
X140645806Y-124019787D01*
X140764332Y-124080179D01*
X140802280Y-124099515D01*
X140853076Y-124147490D01*
X140869871Y-124215311D01*
X140847333Y-124281446D01*
X140802280Y-124320485D01*
X140645805Y-124400213D01*
X140485033Y-124517021D01*
X140344521Y-124657533D01*
X140227713Y-124818305D01*
X140137494Y-124995367D01*
X140137493Y-124995370D01*
X140076087Y-125184362D01*
X140045000Y-125380639D01*
X140045000Y-125579360D01*
X140076087Y-125775637D01*
X140137493Y-125964629D01*
X140137494Y-125964632D01*
X140168074Y-126024647D01*
X140227713Y-126141694D01*
X140344519Y-126302464D01*
X140485036Y-126442981D01*
X140645806Y-126559787D01*
X140764332Y-126620179D01*
X140802280Y-126639515D01*
X140853076Y-126687490D01*
X140869871Y-126755311D01*
X140847333Y-126821446D01*
X140802280Y-126860485D01*
X140645805Y-126940213D01*
X140485033Y-127057021D01*
X140344521Y-127197533D01*
X140344516Y-127197539D01*
X140256717Y-127318385D01*
X140201387Y-127361051D01*
X140156399Y-127369500D01*
X132815929Y-127369500D01*
X132690261Y-127394497D01*
X132690255Y-127394499D01*
X132571870Y-127443535D01*
X132465331Y-127514722D01*
X132465324Y-127514728D01*
X131066873Y-128913181D01*
X131005550Y-128946666D01*
X130979192Y-128949500D01*
X128939372Y-128949500D01*
X128872333Y-128929815D01*
X128826578Y-128877011D01*
X128816634Y-128807853D01*
X128845659Y-128744297D01*
X128863886Y-128727124D01*
X128890348Y-128706819D01*
X128954004Y-128657974D01*
X129157974Y-128454004D01*
X129333575Y-128225156D01*
X129477804Y-127975345D01*
X129588191Y-127708845D01*
X129662849Y-127430217D01*
X129700500Y-127144228D01*
X129700500Y-126855772D01*
X129662849Y-126569783D01*
X129588191Y-126291155D01*
X129588186Y-126291145D01*
X129588185Y-126291139D01*
X129477808Y-126024663D01*
X129477800Y-126024647D01*
X129333579Y-125774851D01*
X129333575Y-125774844D01*
X129157974Y-125545996D01*
X129157969Y-125545990D01*
X128954009Y-125342030D01*
X128954002Y-125342024D01*
X128725164Y-125166431D01*
X128725162Y-125166429D01*
X128725156Y-125166425D01*
X128725151Y-125166422D01*
X128725148Y-125166420D01*
X128475352Y-125022199D01*
X128475336Y-125022191D01*
X128208860Y-124911814D01*
X128208848Y-124911810D01*
X128208845Y-124911809D01*
X127930217Y-124837151D01*
X127930211Y-124837150D01*
X127930206Y-124837149D01*
X127644238Y-124799501D01*
X127644233Y-124799500D01*
X127644228Y-124799500D01*
X127355772Y-124799500D01*
X127355766Y-124799500D01*
X127355761Y-124799501D01*
X127069793Y-124837149D01*
X127069786Y-124837150D01*
X127069783Y-124837151D01*
X127001300Y-124855501D01*
X126791155Y-124911809D01*
X126791139Y-124911814D01*
X126524663Y-125022191D01*
X126524647Y-125022199D01*
X126274851Y-125166420D01*
X126274835Y-125166431D01*
X126045997Y-125342024D01*
X126045990Y-125342030D01*
X125842030Y-125545990D01*
X125842024Y-125545997D01*
X125666431Y-125774835D01*
X125666420Y-125774851D01*
X125522199Y-126024647D01*
X125522191Y-126024663D01*
X125411814Y-126291139D01*
X125411809Y-126291155D01*
X125339830Y-126559787D01*
X125337152Y-126569780D01*
X125337149Y-126569793D01*
X125299501Y-126855761D01*
X125299500Y-126855778D01*
X125299500Y-127144221D01*
X125299501Y-127144238D01*
X125337149Y-127430206D01*
X125337150Y-127430211D01*
X125337151Y-127430217D01*
X125379456Y-127588102D01*
X125411809Y-127708844D01*
X125411814Y-127708860D01*
X125522191Y-127975336D01*
X125522199Y-127975352D01*
X125666420Y-128225148D01*
X125666431Y-128225164D01*
X125842024Y-128454002D01*
X125842030Y-128454009D01*
X126045990Y-128657969D01*
X126045997Y-128657975D01*
X126136114Y-128727124D01*
X126177317Y-128783552D01*
X126181472Y-128853298D01*
X126147260Y-128914218D01*
X126085543Y-128946971D01*
X126060628Y-128949500D01*
X122820808Y-128949500D01*
X122753769Y-128929815D01*
X122733127Y-128913181D01*
X117486819Y-123666873D01*
X117453334Y-123605550D01*
X117450500Y-123579192D01*
X117450500Y-116435928D01*
X117425502Y-116310261D01*
X117425501Y-116310260D01*
X117425501Y-116310256D01*
X117376465Y-116191873D01*
X117343451Y-116142464D01*
X117305277Y-116085331D01*
X115352601Y-114132655D01*
X115324853Y-114086357D01*
X115323989Y-114086715D01*
X115265087Y-113944511D01*
X115265080Y-113944498D01*
X115182951Y-113821584D01*
X115182948Y-113821580D01*
X115078419Y-113717051D01*
X115078415Y-113717048D01*
X114955501Y-113634919D01*
X114955488Y-113634912D01*
X114813286Y-113576011D01*
X114813643Y-113575149D01*
X114767344Y-113547398D01*
X114186819Y-112966873D01*
X114153334Y-112905550D01*
X114150500Y-112879192D01*
X114150500Y-104173920D01*
X120449499Y-104173920D01*
X120478340Y-104318907D01*
X120478343Y-104318917D01*
X120537247Y-104461124D01*
X120536383Y-104461481D01*
X120549500Y-104513840D01*
X120549500Y-124086160D01*
X120536385Y-124138520D01*
X120537247Y-124138878D01*
X120478342Y-124281086D01*
X120478340Y-124281092D01*
X120449500Y-124426079D01*
X120449500Y-124426082D01*
X120449500Y-124573918D01*
X120449500Y-124573920D01*
X120449499Y-124573920D01*
X120478340Y-124718907D01*
X120478343Y-124718917D01*
X120534912Y-124855488D01*
X120534919Y-124855501D01*
X120617048Y-124978415D01*
X120617051Y-124978419D01*
X120721580Y-125082948D01*
X120721584Y-125082951D01*
X120844498Y-125165080D01*
X120844511Y-125165087D01*
X120981082Y-125221656D01*
X120981087Y-125221658D01*
X120981091Y-125221658D01*
X120981092Y-125221659D01*
X121126079Y-125250500D01*
X121126082Y-125250500D01*
X121273920Y-125250500D01*
X121371462Y-125231096D01*
X121418913Y-125221658D01*
X121555495Y-125165084D01*
X121678416Y-125082951D01*
X121782951Y-124978416D01*
X121865084Y-124855495D01*
X121921658Y-124718913D01*
X121950500Y-124573918D01*
X121950500Y-124426082D01*
X121950500Y-124426079D01*
X121921659Y-124281092D01*
X121921658Y-124281091D01*
X121921658Y-124281087D01*
X121865084Y-124144505D01*
X121865083Y-124144504D01*
X121862753Y-124138878D01*
X121863614Y-124138520D01*
X121850500Y-124086160D01*
X121850500Y-121890502D01*
X125829500Y-121890502D01*
X125829500Y-122109497D01*
X125853306Y-122290314D01*
X125858083Y-122326598D01*
X125858084Y-122326600D01*
X125892638Y-122455562D01*
X125914759Y-122538117D01*
X125998560Y-122740428D01*
X125998562Y-122740433D01*
X125998565Y-122740438D01*
X126108049Y-122930070D01*
X126241355Y-123103798D01*
X126241361Y-123103805D01*
X126396194Y-123258638D01*
X126396201Y-123258644D01*
X126569929Y-123391950D01*
X126759561Y-123501434D01*
X126759563Y-123501434D01*
X126759572Y-123501440D01*
X126961883Y-123585241D01*
X127173402Y-123641917D01*
X127390510Y-123670500D01*
X127390517Y-123670500D01*
X127609483Y-123670500D01*
X127609490Y-123670500D01*
X127826598Y-123641917D01*
X128038117Y-123585241D01*
X128240428Y-123501440D01*
X128430071Y-123391950D01*
X128603800Y-123258643D01*
X128758643Y-123103800D01*
X128891950Y-122930071D01*
X129001440Y-122740428D01*
X129085241Y-122538117D01*
X129141917Y-122326598D01*
X129170500Y-122109490D01*
X129170500Y-121890510D01*
X129141917Y-121673402D01*
X129085241Y-121461883D01*
X129001440Y-121259572D01*
X128891950Y-121069929D01*
X128758643Y-120896200D01*
X128758638Y-120896194D01*
X128603805Y-120741361D01*
X128603798Y-120741355D01*
X128430070Y-120608049D01*
X128240438Y-120498565D01*
X128240433Y-120498562D01*
X128240428Y-120498560D01*
X128038117Y-120414759D01*
X128038118Y-120414759D01*
X128038115Y-120414758D01*
X127932357Y-120386421D01*
X127826598Y-120358083D01*
X127790314Y-120353306D01*
X127609497Y-120329500D01*
X127609490Y-120329500D01*
X127390510Y-120329500D01*
X127390502Y-120329500D01*
X127183853Y-120356707D01*
X127173402Y-120358083D01*
X127128699Y-120370060D01*
X126961884Y-120414758D01*
X126843374Y-120463847D01*
X126759572Y-120498560D01*
X126759569Y-120498561D01*
X126759561Y-120498565D01*
X126569929Y-120608049D01*
X126396201Y-120741355D01*
X126396194Y-120741361D01*
X126241361Y-120896194D01*
X126241355Y-120896201D01*
X126108049Y-121069929D01*
X125998565Y-121259561D01*
X125998560Y-121259573D01*
X125914758Y-121461884D01*
X125885788Y-121570005D01*
X125858083Y-121673402D01*
X125856707Y-121683853D01*
X125829500Y-121890502D01*
X121850500Y-121890502D01*
X121850500Y-104513840D01*
X121863616Y-104461481D01*
X121862753Y-104461124D01*
X121921656Y-104318917D01*
X121921658Y-104318913D01*
X121931096Y-104271462D01*
X121950500Y-104173920D01*
X121950500Y-104026079D01*
X121921659Y-103881092D01*
X121921658Y-103881091D01*
X121921658Y-103881087D01*
X121909367Y-103851413D01*
X121865087Y-103744511D01*
X121865080Y-103744498D01*
X121782951Y-103621584D01*
X121782948Y-103621580D01*
X121678419Y-103517051D01*
X121678415Y-103517048D01*
X121555501Y-103434919D01*
X121555488Y-103434912D01*
X121418917Y-103378343D01*
X121418907Y-103378340D01*
X121273920Y-103349500D01*
X121273918Y-103349500D01*
X121126082Y-103349500D01*
X121126080Y-103349500D01*
X120981092Y-103378340D01*
X120981082Y-103378343D01*
X120844511Y-103434912D01*
X120844498Y-103434919D01*
X120721584Y-103517048D01*
X120721580Y-103517051D01*
X120617051Y-103621580D01*
X120617048Y-103621584D01*
X120534919Y-103744498D01*
X120534912Y-103744511D01*
X120478343Y-103881082D01*
X120478340Y-103881092D01*
X120449500Y-104026079D01*
X120449500Y-104026082D01*
X120449500Y-104173918D01*
X120449500Y-104173920D01*
X120449499Y-104173920D01*
X114150500Y-104173920D01*
X114150500Y-104011230D01*
X114170185Y-103944191D01*
X114222989Y-103898436D01*
X114292147Y-103888492D01*
X114355703Y-103917517D01*
X114362181Y-103923549D01*
X114421580Y-103982948D01*
X114421584Y-103982951D01*
X114544498Y-104065080D01*
X114544511Y-104065087D01*
X114681082Y-104121656D01*
X114681087Y-104121658D01*
X114681091Y-104121658D01*
X114681092Y-104121659D01*
X114826079Y-104150500D01*
X114826082Y-104150500D01*
X114973920Y-104150500D01*
X115071462Y-104131096D01*
X115118913Y-104121658D01*
X115255495Y-104065084D01*
X115378416Y-103982951D01*
X115399921Y-103961446D01*
X115429059Y-103932309D01*
X115482948Y-103878419D01*
X115482951Y-103878416D01*
X115565084Y-103755495D01*
X115621658Y-103618913D01*
X115649605Y-103478419D01*
X115650500Y-103473920D01*
X115650500Y-103326079D01*
X115621659Y-103181092D01*
X115621658Y-103181091D01*
X115621658Y-103181087D01*
X115598017Y-103124012D01*
X115565086Y-103044508D01*
X115546397Y-103016538D01*
X115525520Y-102949861D01*
X115525500Y-102947648D01*
X115525500Y-101225540D01*
X115545185Y-101158501D01*
X115597989Y-101112746D01*
X115650043Y-101101541D01*
X119199416Y-101117177D01*
X119266367Y-101137157D01*
X119311889Y-101190162D01*
X119321528Y-101259364D01*
X119292223Y-101322791D01*
X119286550Y-101328857D01*
X118377565Y-102237843D01*
X118316242Y-102271328D01*
X118314077Y-102271779D01*
X118281090Y-102278340D01*
X118281084Y-102278342D01*
X118144511Y-102334912D01*
X118144498Y-102334919D01*
X118021584Y-102417048D01*
X118021580Y-102417051D01*
X117917051Y-102521580D01*
X117917048Y-102521584D01*
X117834919Y-102644498D01*
X117834912Y-102644511D01*
X117778343Y-102781082D01*
X117778340Y-102781092D01*
X117749500Y-102926079D01*
X117749500Y-102926082D01*
X117749500Y-103073918D01*
X117749500Y-103073920D01*
X117749499Y-103073920D01*
X117778340Y-103218907D01*
X117778343Y-103218917D01*
X117834912Y-103355488D01*
X117834919Y-103355501D01*
X117917048Y-103478415D01*
X117917051Y-103478419D01*
X118021580Y-103582948D01*
X118021584Y-103582951D01*
X118144498Y-103665080D01*
X118144511Y-103665087D01*
X118281082Y-103721656D01*
X118281087Y-103721658D01*
X118281091Y-103721658D01*
X118281092Y-103721659D01*
X118426079Y-103750500D01*
X118426082Y-103750500D01*
X118573920Y-103750500D01*
X118671462Y-103731096D01*
X118718913Y-103721658D01*
X118855495Y-103665084D01*
X118978416Y-103582951D01*
X119082951Y-103478416D01*
X119165084Y-103355495D01*
X119221658Y-103218913D01*
X119228220Y-103185921D01*
X119260603Y-103124012D01*
X119262096Y-103122492D01*
X120822772Y-101561819D01*
X120884095Y-101528334D01*
X120910453Y-101525500D01*
X139161607Y-101525500D01*
X139222029Y-101513481D01*
X139282452Y-101501463D01*
X139315792Y-101487652D01*
X139396286Y-101454312D01*
X139447509Y-101420084D01*
X139498733Y-101385858D01*
X139585858Y-101298733D01*
X139585859Y-101298731D01*
X139592925Y-101291665D01*
X139592927Y-101291661D01*
X140089360Y-100795228D01*
X140150682Y-100761745D01*
X140220374Y-100766729D01*
G37*
%TD.AperFunction*%
%TD*%
M02*
