%TF.GenerationSoftware,KiCad,Pcbnew,9.0.1*%
%TF.CreationDate,2026-02-02T11:40:33-05:00*%
%TF.ProjectId,Volante Maquinillo,566f6c61-6e74-4652-904d-617175696e69,rev?*%
%TF.SameCoordinates,Original*%
%TF.FileFunction,Soldermask,Top*%
%TF.FilePolarity,Negative*%
%FSLAX46Y46*%
G04 Gerber Fmt 4.6, Leading zero omitted, Abs format (unit mm)*
G04 Created by KiCad (PCBNEW 9.0.1) date 2026-02-02 11:40:33*
%MOMM*%
%LPD*%
G01*
G04 APERTURE LIST*
G04 Aperture macros list*
%AMRoundRect*
0 Rectangle with rounded corners*
0 $1 Rounding radius*
0 $2 $3 $4 $5 $6 $7 $8 $9 X,Y pos of 4 corners*
0 Add a 4 corners polygon primitive as box body*
4,1,4,$2,$3,$4,$5,$6,$7,$8,$9,$2,$3,0*
0 Add four circle primitives for the rounded corners*
1,1,$1+$1,$2,$3*
1,1,$1+$1,$4,$5*
1,1,$1+$1,$6,$7*
1,1,$1+$1,$8,$9*
0 Add four rect primitives between the rounded corners*
20,1,$1+$1,$2,$3,$4,$5,0*
20,1,$1+$1,$4,$5,$6,$7,0*
20,1,$1+$1,$6,$7,$8,$9,0*
20,1,$1+$1,$8,$9,$2,$3,0*%
G04 Aperture macros list end*
%ADD10C,1.000000*%
%ADD11RoundRect,0.250000X0.450000X-0.262500X0.450000X0.262500X-0.450000X0.262500X-0.450000X-0.262500X0*%
%ADD12RoundRect,0.250000X-0.450000X0.262500X-0.450000X-0.262500X0.450000X-0.262500X0.450000X0.262500X0*%
%ADD13RoundRect,0.250000X-0.262500X-0.450000X0.262500X-0.450000X0.262500X0.450000X-0.262500X0.450000X0*%
%ADD14RoundRect,0.200000X0.200000X-0.300000X0.200000X0.300000X-0.200000X0.300000X-0.200000X-0.300000X0*%
%ADD15RoundRect,0.102000X-0.754000X-0.754000X0.754000X-0.754000X0.754000X0.754000X-0.754000X0.754000X0*%
%ADD16C,1.712000*%
%ADD17RoundRect,0.100000X-0.100000X0.637500X-0.100000X-0.637500X0.100000X-0.637500X0.100000X0.637500X0*%
%ADD18RoundRect,0.250000X0.262500X0.450000X-0.262500X0.450000X-0.262500X-0.450000X0.262500X-0.450000X0*%
%ADD19R,1.700000X1.700000*%
%ADD20C,1.700000*%
%ADD21C,4.000000*%
%ADD22C,2.340000*%
%ADD23RoundRect,0.102000X-0.762000X-0.762000X0.762000X-0.762000X0.762000X0.762000X-0.762000X0.762000X0*%
%ADD24C,1.728000*%
%ADD25R,2.000000X2.000000*%
%ADD26C,2.000000*%
%ADD27R,1.500000X1.500000*%
%ADD28C,1.500000*%
%ADD29RoundRect,0.249900X0.275100X0.400100X-0.275100X0.400100X-0.275100X-0.400100X0.275100X-0.400100X0*%
%ADD30O,1.050000X1.300000*%
G04 APERTURE END LIST*
D10*
%TO.C,TP1*%
X116800000Y-114300000D03*
%TD*%
D11*
%TO.C,R21*%
X225390000Y-60502500D03*
X225390000Y-58677500D03*
%TD*%
D12*
%TO.C,R20*%
X227460000Y-58677500D03*
X227460000Y-60502500D03*
%TD*%
D10*
%TO.C,TP5*%
X116800000Y-103200000D03*
%TD*%
D13*
%TO.C,R9*%
X156351558Y-63900000D03*
X158176558Y-63900000D03*
%TD*%
D12*
%TO.C,R16*%
X78400000Y-60587500D03*
X78400000Y-62412500D03*
%TD*%
D14*
%TO.C,D4*%
X134748306Y-61650000D03*
X136148306Y-61650000D03*
X136148306Y-59150000D03*
X134748306Y-59150000D03*
%TD*%
D15*
%TO.C,SW1*%
X68750000Y-58750000D03*
D16*
X75250000Y-58750000D03*
X68750000Y-63250000D03*
X75250000Y-63250000D03*
%TD*%
D14*
%TO.C,D5*%
X139100000Y-61650000D03*
X140500000Y-61650000D03*
X140500000Y-59150000D03*
X139100000Y-59150000D03*
%TD*%
%TO.C,D15*%
X182616946Y-61650000D03*
X184016946Y-61650000D03*
X184016946Y-59150000D03*
X182616946Y-59150000D03*
%TD*%
D15*
%TO.C,SW3*%
X96750000Y-64812500D03*
D16*
X103250000Y-64812500D03*
X96750000Y-69312500D03*
X103250000Y-69312500D03*
%TD*%
D12*
%TO.C,R17*%
X80410000Y-60577500D03*
X80410000Y-62402500D03*
%TD*%
D13*
%TO.C,R13*%
X173820607Y-63900000D03*
X175645607Y-63900000D03*
%TD*%
D17*
%TO.C,U1*%
X126075000Y-73937500D03*
X125425000Y-73937500D03*
X124775000Y-73937500D03*
X124125000Y-73937500D03*
X123475000Y-73937500D03*
X122825000Y-73937500D03*
X122175000Y-73937500D03*
X121525000Y-73937500D03*
X120875000Y-73937500D03*
X120225000Y-73937500D03*
X119575000Y-73937500D03*
X118925000Y-73937500D03*
X118925000Y-79662500D03*
X119575000Y-79662500D03*
X120225000Y-79662500D03*
X120875000Y-79662500D03*
X121525000Y-79662500D03*
X122175000Y-79662500D03*
X122825000Y-79662500D03*
X123475000Y-79662500D03*
X124125000Y-79662500D03*
X124775000Y-79662500D03*
X125425000Y-79662500D03*
X126075000Y-79662500D03*
%TD*%
D14*
%TO.C,D8*%
X152155084Y-61650000D03*
X153555084Y-61650000D03*
X153555084Y-59150000D03*
X152155084Y-59150000D03*
%TD*%
D13*
%TO.C,R4*%
X134515247Y-63900000D03*
X136340247Y-63900000D03*
%TD*%
D18*
%TO.C,R25*%
X180362500Y-118270000D03*
X178537500Y-118270000D03*
%TD*%
D13*
%TO.C,R8*%
X151984296Y-63900000D03*
X153809296Y-63900000D03*
%TD*%
D15*
%TO.C,SW8*%
X197250000Y-101750000D03*
D16*
X203750000Y-101750000D03*
X197250000Y-106250000D03*
X203750000Y-106250000D03*
%TD*%
D10*
%TO.C,TP6*%
X116800000Y-106800000D03*
%TD*%
D13*
%TO.C,R12*%
X169453345Y-63900000D03*
X171278345Y-63900000D03*
%TD*%
D15*
%TO.C,SW7*%
X202750000Y-64712500D03*
D16*
X209250000Y-64712500D03*
X202750000Y-69212500D03*
X209250000Y-69212500D03*
%TD*%
D14*
%TO.C,D1*%
X121693222Y-61650000D03*
X123093222Y-61650000D03*
X123093222Y-59150000D03*
X121693222Y-59150000D03*
%TD*%
D13*
%TO.C,R26*%
X125670000Y-118020000D03*
X127495000Y-118020000D03*
%TD*%
D10*
%TO.C,TP2*%
X116900000Y-99600000D03*
%TD*%
D13*
%TO.C,R5*%
X138882509Y-63900000D03*
X140707509Y-63900000D03*
%TD*%
%TO.C,R15*%
X182555132Y-63900000D03*
X184380132Y-63900000D03*
%TD*%
%TO.C,R2*%
X125780722Y-63900000D03*
X127605722Y-63900000D03*
%TD*%
D10*
%TO.C,TP4*%
X119800000Y-96000000D03*
%TD*%
D14*
%TO.C,D3*%
X130396611Y-61650000D03*
X131796611Y-61650000D03*
X131796611Y-59150000D03*
X130396611Y-59150000D03*
%TD*%
D13*
%TO.C,R11*%
X165086083Y-63900000D03*
X166911083Y-63900000D03*
%TD*%
D19*
%TO.C,TH1*%
X108700000Y-92100000D03*
D20*
X108700000Y-89560000D03*
%TD*%
D13*
%TO.C,R18*%
X99287500Y-71500000D03*
X101112500Y-71500000D03*
%TD*%
D21*
%TO.C,P2*%
X178400000Y-127000000D03*
D22*
X180900000Y-132000000D03*
X178400000Y-122000000D03*
X175900000Y-132000000D03*
%TD*%
D13*
%TO.C,R14*%
X178187870Y-63900000D03*
X180012870Y-63900000D03*
%TD*%
D14*
%TO.C,D9*%
X156506779Y-61650000D03*
X157906779Y-61650000D03*
X157906779Y-59150000D03*
X156506779Y-59150000D03*
%TD*%
%TO.C,D14*%
X178265251Y-61650000D03*
X179665251Y-61650000D03*
X179665251Y-59150000D03*
X178265251Y-59150000D03*
%TD*%
D13*
%TO.C,R7*%
X147617034Y-63900000D03*
X149442034Y-63900000D03*
%TD*%
D11*
%TO.C,R24*%
X112000000Y-91412500D03*
X112000000Y-89587500D03*
%TD*%
%TO.C,R22*%
X212770000Y-66442500D03*
X212770000Y-64617500D03*
%TD*%
D14*
%TO.C,D10*%
X160858473Y-61650000D03*
X162258473Y-61650000D03*
X162258473Y-59150000D03*
X160858473Y-59150000D03*
%TD*%
D15*
%TO.C,SW6*%
X215750000Y-57712500D03*
D16*
X222250000Y-57712500D03*
X215750000Y-62212500D03*
X222250000Y-62212500D03*
%TD*%
D13*
%TO.C,R1*%
X121413460Y-63900000D03*
X123238460Y-63900000D03*
%TD*%
D21*
%TO.C,P1*%
X127500000Y-127000000D03*
D22*
X130000000Y-132000000D03*
X127500000Y-122000000D03*
X125000000Y-132000000D03*
%TD*%
D10*
%TO.C,TP7*%
X116800000Y-110300000D03*
%TD*%
D14*
%TO.C,D2*%
X126044917Y-61650000D03*
X127444917Y-61650000D03*
X127444917Y-59150000D03*
X126044917Y-59150000D03*
%TD*%
D23*
%TO.C,U2*%
X141307500Y-95000000D03*
D24*
X141307500Y-97540000D03*
X141307500Y-100080000D03*
X141307500Y-102620000D03*
X141307500Y-105160000D03*
X141307500Y-107700000D03*
X141307500Y-110240000D03*
X141307500Y-112780000D03*
X141307500Y-115320000D03*
X141307500Y-117860000D03*
X141307500Y-120400000D03*
X141307500Y-122940000D03*
X141307500Y-125480000D03*
X141307500Y-128020000D03*
X141307500Y-130560000D03*
X141307500Y-133100000D03*
X164167500Y-95000000D03*
X164167500Y-97540000D03*
X164167500Y-100080000D03*
X164167500Y-102620000D03*
X164167500Y-105160000D03*
X164167500Y-107700000D03*
X164167500Y-110240000D03*
X164167500Y-112780000D03*
X164167500Y-115320000D03*
X164167500Y-117860000D03*
X164167500Y-120400000D03*
X164167500Y-122940000D03*
X164167500Y-125480000D03*
X164167500Y-128020000D03*
X164167500Y-130560000D03*
X164167500Y-133100000D03*
%TD*%
D13*
%TO.C,R6*%
X143249771Y-63900000D03*
X145074771Y-63900000D03*
%TD*%
D15*
%TO.C,SW2*%
X83750000Y-57712500D03*
D16*
X90250000Y-57712500D03*
X83750000Y-62212500D03*
X90250000Y-62212500D03*
%TD*%
D25*
%TO.C,BZ1*%
X180000000Y-108300000D03*
D26*
X187600000Y-108300000D03*
%TD*%
D14*
%TO.C,D7*%
X147803389Y-61650000D03*
X149203389Y-61650000D03*
X149203389Y-59150000D03*
X147803389Y-59150000D03*
%TD*%
D15*
%TO.C,SW5*%
X230750000Y-58712500D03*
D16*
X237250000Y-58712500D03*
X230750000Y-63212500D03*
X237250000Y-63212500D03*
%TD*%
D27*
%TO.C,U3*%
X146550000Y-84240000D03*
D28*
X149090000Y-84240000D03*
X151630000Y-84240000D03*
X154170000Y-84240000D03*
X156710000Y-84240000D03*
X159250000Y-84240000D03*
X159250000Y-69000000D03*
X156710000Y-69000000D03*
X154170000Y-69000000D03*
X151630000Y-69000000D03*
X149090000Y-69000000D03*
X146550000Y-69000000D03*
%TD*%
D14*
%TO.C,D13*%
X173913557Y-61650000D03*
X175313557Y-61650000D03*
X175313557Y-59150000D03*
X173913557Y-59150000D03*
%TD*%
%TO.C,D12*%
X169561862Y-61650000D03*
X170961862Y-61650000D03*
X170961862Y-59150000D03*
X169561862Y-59150000D03*
%TD*%
D13*
%TO.C,R10*%
X160718821Y-63900000D03*
X162543821Y-63900000D03*
%TD*%
%TO.C,R23*%
X199587500Y-98800000D03*
X201412500Y-98800000D03*
%TD*%
D18*
%TO.C,R19*%
X104982500Y-98950000D03*
X103157500Y-98950000D03*
%TD*%
D13*
%TO.C,R3*%
X130147985Y-63900000D03*
X131972985Y-63900000D03*
%TD*%
D14*
%TO.C,D11*%
X165210168Y-61650000D03*
X166610168Y-61650000D03*
X166610168Y-59150000D03*
X165210168Y-59150000D03*
%TD*%
D15*
%TO.C,SW4*%
X101750000Y-101850000D03*
D16*
X108250000Y-101850000D03*
X101750000Y-106350000D03*
X108250000Y-106350000D03*
%TD*%
D10*
%TO.C,TP3*%
X116900000Y-96000000D03*
%TD*%
D14*
%TO.C,D6*%
X143451695Y-61650000D03*
X144851695Y-61650000D03*
X144851695Y-59150000D03*
X143451695Y-59150000D03*
%TD*%
D29*
%TO.C,Q1*%
X191100000Y-78200000D03*
D30*
X189830000Y-78200000D03*
X188560000Y-78200000D03*
%TD*%
M02*
