0
SECTION
2
HEADER
9
$INSUNITS
70
1
9
$ACADVER
1
AC1014
9
$HANDSEED
5
FFFF
0
ENDSEC
0
SECTION
2
TABLES
0
TABLE
2
VPORT
5
8
100
AcDbSymbolTable
0
ENDTAB
0
TABLE
2
LTYPE
5
5
100
AcDbSymbolTable
0
LTYPE
5
14
100
AcDbSymbolTableRecord
100
AcDbLinetypeTableRecord
2
BYBLOCK
70
0
0
LTYPE
5
15
100
AcDbSymbolTableRecord
100
AcDbLinetypeTableRecord
2
BYLAYER
70
0
0
LTYPE
5
16
100
AcDbSymbolTableRecord
100
AcDbLinetypeTableRecord
2
DASHED
70
0
3
Dashed __ __ __ __ __ __ __ __ __ __ __ __ __ _
72
65
73
2
40
0.75
49
0.5
74
0
49
-0.25
74
0
0
ENDTAB
0
TABLE
2
LAYER
5
2
100
AcDbSymbolTable
70
2
0
LAYER
5
50
100
AcDbSymbolTableRecord
100
AcDbLayerTableRecord
2
0
70
0
62
7
6
CONTINUOUS
0
ENDTAB
0
TABLE
2
STYLE
5
3
100
AcDbSymbolTable
70
1
0
STYLE
5
11
100
AcDbSymbolTableRecord
100
AcDbTextStyleTableRecord
2
STANDARD
70
0
0
ENDTAB
0
TABLE
2
VIEW
5
6
100
AcDbSymbolTable
70
0
0
ENDTAB
0
TABLE
2
UCS
5
7
100
AcDbSymbolTable
70
0
0
ENDTAB
0
TABLE
2
APPID
5
9
100
AcDbSymbolTable
70
2
0
APPID
5
12
100
AcDbSymbolTableRecord
100
AcDbRegAppTableRecord
2
ACAD
70
0
0
ENDTAB
0
TABLE
2
DIMSTYLE
5
A
100
AcDbSymbolTable
70
1
0
ENDTAB
0
TABLE
2
BLOCK_RECORD
5
1
100
AcDbSymbolTable
70
1
0
BLOCK_RECORD
5
1F
100
AcDbSymbolTableRecord
100
AcDbBlockTableRecord
2
*MODEL_SPACE
0
BLOCK_RECORD
5
1B
100
AcDbSymbolTableRecord
100
AcDbBlockTableRecord
2
*PAPER_SPACE
0
ENDTAB
0
ENDSEC
0
SECTION
2
BLOCKS
0
BLOCK
5
20
100
AcDbEntity
100
AcDbBlockBegin
2
*MODEL_SPACE
0
ENDBLK
5
21
100
AcDbEntity
100
AcDbBlockEnd
0
BLOCK
5
1C
100
AcDbEntity
100
AcDbBlockBegin
2
*PAPER_SPACE
0
ENDBLK
5
1D
100
AcDbEntity
100
AcDbBlockEnd
0
ENDSEC
0
SECTION
2
ENTITIES
0
CIRCLE
5
100
100
AcDbEntity
8
0
100
AcDbCircle
10
-7.417875218024192
20
-4.7704765443143575
30
0
40
0.059055118110235658
210
0
220
-0
230
1
0
CIRCLE
5
101
100
AcDbEntity
8
0
100
AcDbCircle
10
-8.0708662619975602
20
-2.6377953148967634
30
0
40
0.059055118110235658
210
0
220
-0
230
1
0
CIRCLE
5
102
100
AcDbEntity
8
0
100
AcDbCircle
10
-1.8403646814561634
20
-4.7704765443143522
30
0
40
0.059055118110236358
210
0
220
-0
230
1
0
CIRCLE
5
103
100
AcDbEntity
8
0
100
AcDbCircle
10
-1.1873736374827988
20
-2.6377953148967581
30
0
40
0.059055118110236178
210
0
220
-0
230
1
0
SPLINE
5
104
100
AcDbEntity
8
0
100
AcDbSpline
70
0
71
3
72
14
73
10
74
0
42
0.000000001
43
0.0000000001
44
0.0000000001
40
0.64336587145279267
40
0.64336587145279267
40
0.64336587145279267
40
0.64336587145279267
40
0.64418894733188226
40
0.64418894733188226
40
0.64418894733188226
40
0.71343586230405409
40
0.71343586230405409
40
0.71343586230405409
40
0.74614845026859622
40
0.74614845026859622
40
0.74614845026859622
40
0.74614845026859622
10
-7.3192876087646965
20
-2.7616502827561797
30
0
10
-7.3180091553505884
20
-2.7616661517657279
30
0
10
-7.3167320522013091
20
-2.7616862840856728
30
0
10
-7.3154563387140348
20
-2.7617106723358713
30
0
10
-7.2081281741712555
20
-2.763762501493662
30
0
10
-7.1097834080744997
20
-2.7969529487237996
30
0
10
-7.0355642717677505
20
-2.8526650274677849
30
0
10
-7.0005027816484784
20
-2.8789836913004265
30
0
10
-6.9711629885773947
20
-2.9100161697212124
30
0
10
-6.9470220871878885
20
-2.9435074302843058
30
0
0
SPLINE
5
105
100
AcDbEntity
8
0
100
AcDbSpline
70
0
71
3
72
41
73
37
74
0
42
0.000000001
43
0.0000000001
44
0.0000000001
40
0.74614845026859622
40
0.74614845026859622
40
0.74614845026859622
40
0.74614845026859622
40
0.77489967790591019
40
0.77489967790591019
40
0.77489967790591019
40
0.84860039658672237
40
0.84860039658672237
40
0.84860039658672237
40
0.93488099133916147
40
0.93488099133916147
40
0.93488099133916147
40
1
40
1
40
1
40
1.0611602344086006
40
1.0611602344086006
40
1.0611602344086006
40
1.1218488513834606
40
1.1218488513834606
40
1.1218488513834606
40
1.1663592418842621
40
1.1663592418842621
40
1.1663592418842621
40
1.2120314383504873
40
1.2120314383504873
40
1.2120314383504873
40
1.261550853979075
40
1.261550853979075
40
1.261550853979075
40
1.322805705877669
40
1.322805705877669
40
1.322805705877669
40
1.3761916475885794
40
1.3761916475885794
40
1.3761916475885794
40
1.4310086677633991
40
1.4310086677633991
40
1.4310086677633991
40
1.4310086677633991
10
-6.9470220871878885
20
-2.9435074302843058
30
0
10
-6.9258045500131509
20
-2.9729430364599425
30
0
10
-6.9086030132484391
20
-3.0042779840137936
30
0
10
-6.8950625290795324
20
-3.0359812656364848
30
0
10
-6.8603529359058655
20
-3.1172492612020068
30
0
10
-6.846190315092139
20
-3.2005191919504488
30
0
10
-6.8365824415275886
20
-3.2841227931306629
30
0
10
-6.8253346130084962
20
-3.3819965800134577
30
0
10
-6.8206190382942111
20
-3.4819631188238764
30
0
10
-6.8216412790325816
20
-3.5820141784204953
30
0
10
-6.8224128001803717
20
-3.6575262426927941
30
0
10
-6.8266472189722025
20
-3.7329201918004387
30
0
10
-6.8413790212162402
20
-3.8070072547843186
30
0
10
-6.8552152342826611
20
-3.8765903493663312
30
0
10
-6.8800166843202391
20
-3.9460217071878581
30
0
10
-6.9218560165420602
20
-4.0070412370684556
30
0
10
-6.963372718239607
20
-4.0675902345129265
30
0
10
-7.019424958910272
20
-4.1187972572985725
30
0
10
-7.0876717220477836
20
-4.1588874483598088
30
0
10
-7.1377254261703333
20
-4.1882904920990756
30
0
10
-7.1961232951475873
20
-4.2124048840360313
30
0
10
-7.2595245496228475
20
-4.2229210716370149
30
0
10
-7.3245806975923209
20
-4.2337117517632459
30
0
10
-7.3909816739707086
20
-4.2283690118652002
30
0
10
-7.4480303295628962
20
-4.2134309997696864
30
0
10
-7.5098845057554264
20
-4.1972346771301634
30
0
10
-7.5614847384768291
20
-4.1715170408060311
30
0
10
-7.604200611420648
20
-4.1425124783561555
30
0
10
-7.6570395724156199
20
-4.1066342242471752
30
0
10
-7.6986056256413873
20
-4.0619061947846866
30
0
10
-7.7355147563228011
20
-4.0047458140123311
30
0
10
-7.7676824726437914
20
-3.9549283601861727
30
0
10
-7.7991188127921802
20
-3.8937826276058454
30
0
10
-7.8298029433099439
20
-3.8183512871792398
30
0
10
-7.8613096012002801
20
-3.74089791317359
30
0
10
-7.8914645898443263
20
-3.6486131177842385
30
0
10
-7.909038894394917
20
-3.5496779590927305
30
0
0
SPLINE
5
106
100
AcDbEntity
8
0
100
AcDbSpline
70
0
71
3
72
17
73
13
74
0
42
0.000000001
43
0.0000000001
44
0.0000000001
40
0.43100866776339986
40
0.43100866776339986
40
0.43100866776339986
40
0.43100866776339986
40
0.45416769164000703
40
0.45416769164000703
40
0.45416769164000703
40
0.50980667297605109
40
0.50980667297605109
40
0.50980667297605109
40
0.56710962197693182
40
0.56710962197693182
40
0.56710962197693182
40
0.64336587145279267
40
0.64336587145279267
40
0.64336587145279267
40
0.64336587145279267
10
-7.909038894394917
20
-3.5496779590927261
30
0
10
-7.9164636638808181
20
-3.5078799610427516
30
0
10
-7.9216429289662065
20
-3.464894951225447
30
0
10
-7.923729937836419
20
-3.4213398426889077
30
0
10
-7.9287439249628431
20
-3.3166997730613725
30
0
10
-7.9143509988026413
20
-3.2087933119054064
30
0
10
-7.8732943104622306
20
-3.1131195596411882
30
0
10
-7.8310097599255091
20
-3.0145845394975361
30
0
10
-7.7609472481078399
20
-2.9311966507926197
30
0
10
-7.6780653799034777
20
-2.8728927652077876
30
0
10
-7.5677698274229197
20
-2.7953045132576011
30
0
10
-7.4377336293154404
20
-2.760180052390059
30
0
10
-7.3192876087646965
20
-2.7616502827561797
30
0
0
SPLINE
5
107
100
AcDbEntity
8
0
100
AcDbSpline
70
0
71
3
72
41
73
37
74
0
42
0.000000001
43
0.0000000001
44
0.0000000001
40
-1.4310086677633991
40
-1.4310086677633991
40
-1.4310086677633991
40
-1.4310086677633991
40
-1.3761916475885794
40
-1.3761916475885794
40
-1.3761916475885794
40
-1.322805705877669
40
-1.322805705877669
40
-1.322805705877669
40
-1.261550853979075
40
-1.261550853979075
40
-1.261550853979075
40
-1.2120314383504873
40
-1.2120314383504873
40
-1.2120314383504873
40
-1.1663592418842621
40
-1.1663592418842621
40
-1.1663592418842621
40
-1.1218488513834606
40
-1.1218488513834606
40
-1.1218488513834606
40
-1.0611602344086006
40
-1.0611602344086006
40
-1.0611602344086006
40
-1
40
-1
40
-1
40
-0.93488099133916147
40
-0.93488099133916147
40
-0.93488099133916147
40
-0.84860039658672237
40
-0.84860039658672237
40
-0.84860039658672237
40
-0.77489967790591019
40
-0.77489967790591019
40
-0.77489967790591019
40
-0.74614845026859522
40
-0.74614845026859522
40
-0.74614845026859522
40
-0.74614845026859522
10
-1.3492010050854428
20
-3.5496779590927354
30
0
10
-1.3667753096360351
20
-3.6486131177842442
30
0
10
-1.3969302982800818
20
-3.7408979131735949
30
0
10
-1.4284369561704175
20
-3.8183512871792438
30
0
10
-1.4591210866881819
20
-3.8937826276058498
30
0
10
-1.49055742683657
20
-3.9549283601861767
30
0
10
-1.5227251431575606
20
-4.0047458140123355
30
0
10
-1.5596342738389741
20
-4.0619061947846902
30
0
10
-1.6012003270647415
20
-4.1066342242471796
30
0
10
-1.6540392880597141
20
-4.1425124783561591
30
0
10
-1.6967551610035325
20
-4.1715170408060347
30
0
10
-1.7483553937249352
20
-4.1972346771301678
30
0
10
-1.8102095699174652
20
-4.2134309997696899
30
0
10
-1.8672582255096535
20
-4.2283690118652046
30
0
10
-1.9336592018880405
20
-4.2337117517632494
30
0
10
-1.9987153498575139
20
-4.2229210716370185
30
0
10
-2.0621166043327745
20
-4.2124048840360349
30
0
10
-2.1205144733100281
20
-4.1882904920990791
30
0
10
-2.1705681774325778
20
-4.1588874483598124
30
0
10
-2.2388149405700895
20
-4.118797257298576
30
0
10
-2.2948671812407544
20
-4.06759023451293
30
0
10
-2.3363838829383021
20
-4.0070412370684592
30
0
10
-2.3782232151601228
20
-3.9460217071878616
30
0
10
-2.4030246651977003
20
-3.8765903493663347
30
0
10
-2.4168608782641221
20
-3.8070072547843212
30
0
10
-2.4315926805081594
20
-3.7329201918004418
30
0
10
-2.4358270992999902
20
-3.6575262426927972
30
0
10
-2.4365986204477803
20
-3.5820141784204984
30
0
10
-2.4376208611861494
20
-3.4819631188238791
30
0
10
-2.4329052864718648
20
-3.3819965800134604
30
0
10
-2.4216574579527719
20
-3.284122793130666
30
0
10
-2.412049584388221
20
-3.2005191919504519
30
0
10
-2.3978869635744946
20
-3.11724926120201
30
0
10
-2.3631773704008281
20
-3.035981265636488
30
0
10
-2.3496368862319201
20
-3.0042779840137954
30
0
10
-2.3324353494672092
20
-2.972943036459943
30
0
10
-2.311217812292468
20
-2.9435074302843067
30
0
0
SPLINE
5
108
100
AcDbEntity
8
0
100
AcDbSpline
70
0
71
3
72
14
73
10
74
0
42
0.000000001
43
0.0000000001
44
0.0000000001
40
-0.74614845026859511
40
-0.74614845026859511
40
-0.74614845026859511
40
-0.74614845026859511
40
-0.71343586230405409
40
-0.71343586230405409
40
-0.71343586230405409
40
-0.64418894733188226
40
-0.64418894733188226
40
-0.64418894733188226
40
-0.64336587145279289
40
-0.64336587145279289
40
-0.64336587145279289
40
-0.64336587145279289
10
-2.311217812292468
20
-2.9435074302843063
30
0
10
-2.2870769109029627
20
-2.9100161697212137
30
0
10
-2.2577371178318799
20
-2.8789836913004287
30
0
10
-2.2226756277126096
20
-2.8526650274677881
30
0
10
-2.1484564914058608
20
-2.7969529487238032
30
0
10
-2.050111725309105
20
-2.7637625014936651
30
0
10
-1.9427835607663255
20
-2.7617106723358753
30
0
10
-1.9415078472790517
20
-2.7616862840856773
30
0
10
-1.9402307441297724
20
-2.7616661517657319
30
0
10
-1.9389522907156653
20
-2.7616502827561842
30
0
0
SPLINE
5
109
100
AcDbEntity
8
0
100
AcDbSpline
70
0
71
3
72
17
73
13
74
0
42
0.000000001
43
0.0000000001
44
0.0000000001
40
-0.64336587145279267
40
-0.64336587145279267
40
-0.64336587145279267
40
-0.64336587145279267
40
-0.56710962197693182
40
-0.56710962197693182
40
-0.56710962197693182
40
-0.50980667297605109
40
-0.50980667297605109
40
-0.50980667297605109
40
-0.45416769164000703
40
-0.45416769164000703
40
-0.45416769164000703
40
-0.43100866776340024
40
-0.43100866776340024
40
-0.43100866776340024
40
-0.43100866776340024
10
-1.9389522907156642
20
-2.7616502827561842
30
0
10
-1.8205062701649188
20
-2.760180052390063
30
0
10
-1.6904700720574399
20
-2.7953045132576055
30
0
10
-1.580174519576883
20
-2.872892765207792
30
0
10
-1.4972926513725202
20
-2.9311966507926246
30
0
10
-1.427230139554851
20
-3.014584539497541
30
0
10
-1.3849455890181299
20
-3.1131195596411931
30
0
10
-1.343888900677719
20
-3.2087933119054113
30
0
10
-1.3294959745175174
20
-3.3166997730613774
30
0
10
-1.3345099616439415
20
-3.4213398426889126
30
0
10
-1.3365969705141538
20
-3.4648949512254514
30
0
10
-1.3417762355995431
20
-3.5078799610427551
30
0
10
-1.3492010050854422
20
-3.5496779590927297
30
0
0
SPLINE
5
110
100
AcDbEntity
8
0
100
AcDbSpline
70
4
71
5
72
46
73
40
74
0
42
0.000000001
43
0.0000000001
44
0.0000000001
40
-1
40
-1
40
-1
40
-1
40
-1
40
-1
40
-0.97142857142857164
40
-0.94285714285714306
40
-0.91428571428571448
40
-0.8857142857142859
40
-0.85714285714285732
40
-0.82857142857142874
40
-0.80000000000000016
40
-0.77142857142857157
40
-0.74285714285714299
40
-0.71428571428571441
40
-0.68571428571428583
40
-0.65714285714285725
40
-0.62857142857142867
40
-0.60000000000000009
40
-0.57142857142857151
40
-0.54285714285714293
40
-0.51428571428571435
40
-0.48571428571428582
40
-0.45714285714285724
40
-0.42857142857142866
40
-0.40000000000000008
40
-0.3714285714285715
40
-0.34285714285714292
40
-0.31428571428571433
40
-0.28571428571428575
40
-0.25714285714285717
40
-0.22857142857142859
40
-0.20000000000000001
40
-0.17142857142857143
40
-0.14285714285714285
40
-0.11428571428571428
40
-0.085714285714285715
40
-0.057142857142857141
40
-0.028571428571428571
40
0
40
0
40
0
40
0
40
0
40
0
41
1
41
1
41
1
41
1
41
1
41
1
41
1
41
1
41
1
41
1
41
1
41
1
41
1
41
1
41
1
41
1
41
1
41
1
41
1
41
1
41
1
41
1
41
1
41
1
41
1
41
1
41
1
41
1
41
1
41
1
41
1
41
1
41
1
41
1
41
1
41
1
41
1
41
1
41
1
41
1
10
-7.32835805810819
20
-2.4119380549856313
30
0
10
-7.3781087727741523
20
-2.4144796190715807
30
0
10
-7.4735515677605733
20
-2.4161242363992903
30
0
10
-7.60453986060599
20
-2.4082756441255895
30
0
10
-7.7550188403738174
20
-2.3773868568700518
30
0
10
-7.9040934808896735
20
-2.3062945534497294
30
0
10
-8.0161421589255983
20
-2.205331457434025
30
0
10
-8.093825224022547
20
-2.0781813096343487
30
0
10
-8.1404009372773416
20
-1.9296211108618397
30
0
10
-8.1596589218369502
20
-1.7655665870762562
30
0
10
-8.1558795478337665
20
-1.5930714032718287
30
0
10
-8.1340630548404143
20
-1.4197419001512748
30
0
10
-8.1001327189147307
20
-1.2531999918041581
30
0
10
-8.0611779408992437
20
-1.1005239596118268
30
0
10
-8.0256357315962621
20
-0.96770739770851744
30
0
10
-8.0036319641409275
20
-0.85907658114537711
30
0
10
-8.0068903774367861
20
-0.77679350994763041
30
0
10
-8.0426541099087441
20
-0.72144998668878213
30
0
10
-8.1083780510133181
20
-0.69256248973004064
30
0
10
-8.1851689820828959
20
-0.68911522087411203
30
0
10
-8.2494264187308257
20
-0.71062779887733296
30
0
10
-8.2887828554802603
20
-0.75875988127641325
30
0
10
-8.3099707889050034
20
-0.83751165866516308
30
0
10
-8.3271997204472914
20
-0.94995244660051159
30
0
10
-8.3534044248211838
20
-1.0952606790864445
30
0
10
-8.3922007872600215
20
-1.2664739117529464
30
0
10
-8.4413959734489321
20
-1.4534026364445469
30
0
10
-8.4948534831901661
20
-1.6448815608851077
30
0
10
-8.5449201400819934
20
-1.8311793002671803
30
0
10
-8.5847391223203697
20
-2.0065479511935989
30
0
10
-8.6102817352303536
20
-2.171243483486244
30
0
10
-8.6234739619618281
20
-2.335265648649302
30
0
10
-8.6254315945785898
20
-2.5054870507971709
30
0
10
-8.6172139856625289
20
-2.68744843524345
30
0
10
-8.5995875091732898
20
-2.885045770385652
30
0
10
-8.5731471897868712
20
-3.1009857646631742
30
0
10
-8.5452588433978516
20
-3.2897221477532796
30
0
10
-8.5206562245791861
20
-3.4406375011229922
30
0
10
-8.5026252639061628
20
-3.5454361302734689
30
0
10
-8.4932024904743404
20
-3.5988825668133213
30
0
0
SPLINE
5
111
100
AcDbEntity
8
0
100
AcDbSpline
70
0
71
3
72
8
73
4
74
0
42
0.000000001
43
0.0000000001
44
0.0000000001
40
-0.49156176562881504
40
-0.49156176562881504
40
-0.49156176562881504
40
-0.49156176562881504
40
-0.4549530926968206
40
-0.4549530926968206
40
-0.4549530926968206
40
-0.4549530926968206
10
-8.4932024904743404
20
-3.5988825668133204
30
0
10
-8.4705870624959356
20
-3.68194319150567
30
0
10
-8.4452171965124272
20
-3.7635089421710588
30
0
10
-8.4171689291603684
20
-3.8425003077302846
30
0
0
SPLINE
5
112
100
AcDbEntity
8
0
100
AcDbSpline
70
0
71
3
72
23
73
19
74
0
42
0.000000001
43
0.0000000001
44
0.0000000001
40
-0.4549530926968206
40
-0.4549530926968206
40
-0.4549530926968206
40
-0.4549530926968206
40
-0.44535918556972853
40
-0.44535918556972853
40
-0.44535918556972853
40
-0.33475822935098942
40
-0.33475822935098942
40
-0.33475822935098942
40
-0.23018494536523731
40
-0.23018494536523731
40
-0.23018494536523731
40
-0.13486318493999083
40
-0.13486318493999083
40
-0.13486318493999083
40
-0.059512647036567383
40
-0.059512647036567383
40
-0.059512647036567383
40
-0.010170383343645671
40
-0.010170383343645671
40
-0.010170383343645671
40
-0.010170383343645671
10
-8.4171689291603684
20
-3.8425003077302846
30
0
10
-8.4098184176422031
20
-3.8632012991708971
30
0
10
-8.4022839565839522
20
-3.8837254847892635
30
0
10
-8.3945669145255373
20
-3.9040534350830778
30
0
10
-8.3056029273267633
20
-4.1383991203893249
30
0
10
-8.192577690708351
20
-4.3452901452110799
30
0
10
-8.0711574258276766
20
-4.505486860724579
30
0
10
-7.956354477687877
20
-4.6569529709437925
30
0
10
-7.8345491508318856
20
-4.7669213899127518
30
0
10
-7.7278613077536216
20
-4.8391663703070478
30
0
10
-7.6306120617647695
20
-4.9050198890127419
30
0
10
-7.5474143753057756
20
-4.9397695334207885
30
0
10
-7.488040730144629
20
-4.9569849863549216
30
0
10
-7.4411066819249898
20
-4.9705935646381052
30
0
10
-7.4100261469916662
20
-4.9739139083534551
30
0
10
-7.3794066159205212
20
-4.9758641503971468
30
0
10
-7.359355837010324
20
-4.9771412395840624
30
0
10
-7.3376714433382926
20
-4.9777736106482333
30
0
10
-7.3152802402473229
20
-4.9791704497479934
30
0
0
ARC
5
113
100
AcDbEntity
8
0
100
AcDbCircle
10
-5.6787292115017234
20
-13.462179869106178
30
0
40
8.639429896717095
210
0
220
-0
230
1
100
AcDbArc
50
89.393321432856467
51
100.91941233157813
0
LINE
5
114
100
AcDbEntity
8
0
100
AcDbLine
10
-5.5872519848234248
20
-4.8232342819822254
30
0
11
-3.6709879146569411
21
-4.8232342819822271
31
0
0
ARC
5
115
100
AcDbEntity
8
0
100
AcDbCircle
10
-3.5795106879786465
20
-13.462179869106194
30
0
40
8.6394298468480066
210
0
220
-0
230
1
100
AcDbArc
50
79.080587668421884
51
90.606678567143518
0
SPLINE
5
116
100
AcDbEntity
8
0
100
AcDbSpline
70
0
71
3
72
23
73
19
74
0
42
0.000000001
43
0.0000000001
44
0.0000000001
40
0.010170383343645671
40
0.010170383343645671
40
0.010170383343645671
40
0.010170383343645671
40
0.059512647036567383
40
0.059512647036567383
40
0.059512647036567383
40
0.13486318493999083
40
0.13486318493999083
40
0.13486318493999083
40
0.23018494536523731
40
0.23018494536523731
40
0.23018494536523731
40
0.33475822935098942
40
0.33475822935098942
40
0.33475822935098942
40
0.44535918556972853
40
0.44535918556972853
40
0.44535918556972853
40
0.45495309269681744
40
0.45495309269681744
40
0.45495309269681744
40
0.45495309269681744
10
-1.9429596592330403
20
-4.9791704497479961
30
0
10
-1.9205684561420704
20
-4.977773610648236
30
0
10
-1.8988840624700392
20
-4.977141239584066
30
0
10
-1.8788332835598416
20
-4.9758641503971495
30
0
10
-1.8482137524886968
20
-4.9739139083534587
30
0
10
-1.8171332175553738
20
-4.9705935646381088
30
0
10
-1.7701991693357342
20
-4.9569849863549251
30
0
10
-1.7108255241745871
20
-4.9397695334207921
30
0
10
-1.6276278377155939
20
-4.9050198890127454
30
0
10
-1.5303785917267421
20
-4.8391663703070513
30
0
10
-1.4236907486484778
20
-4.7669213899127554
30
0
10
-1.3018854217924862
20
-4.6569529709437969
30
0
10
-1.1870824736526859
20
-4.5054868607245835
30
0
10
-1.0656622087720107
20
-4.3452901452110844
30
0
10
-0.95263697215359877
20
-4.1383991203893293
30
0
10
-0.86367298495482414
20
-3.9040534350830827
30
0
10
-0.85595594289641264
20
-3.883725484789275
30
0
10
-0.84842148183816413
20
-3.8632012991709166
30
0
10
-0.84107097031999767
20
-3.8425003077303113
30
0
0
ARC
5
117
100
AcDbEntity
8
0
100
AcDbCircle
10
-1.3352603523097724
20
-4.112773181960133
30
0
40
0.56326776209533258
210
0
220
-0
230
1
100
AcDbArc
50
28.674311687347782
51
28.83520335987264
0
SPLINE
5
118
100
AcDbEntity
8
0
100
AcDbSpline
70
0
71
3
72
8
73
4
74
0
42
0.000000001
43
0.0000000001
44
0.0000000001
40
0.45107008292521023
40
0.45107008292521023
40
0.45107008292521023
40
0.45107008292521023
40
0.48760188726436721
40
0.48760188726436721
40
0.48760188726436721
40
0.48760188726436721
10
-0.84183186813320499
20
-3.8411136471653222
30
0
10
-0.8135342778008664
20
-3.7626781125942492
30
0
10
-0.78791329708106073
20
-3.6815769590705973
30
0
10
-0.76503740900602057
20
-3.5988825668133262
30
0
0
SPLINE
5
119
100
AcDbEntity
8
0
100
AcDbSpline
70
4
71
5
72
46
73
40
74
0
42
0.000000001
43
0.0000000001
44
0.0000000001
40
0
40
0
40
0
40
0
40
0
40
0
40
0.028571428571428571
40
0.057142857142857141
40
0.085714285714285715
40
0.11428571428571428
40
0.14285714285714285
40
0.17142857142857143
40
0.20000000000000001
40
0.22857142857142859
40
0.25714285714285717
40
0.28571428571428575
40
0.31428571428571433
40
0.34285714285714292
40
0.3714285714285715
40
0.40000000000000008
40
0.42857142857142866
40
0.45714285714285724
40
0.48571428571428582
40
0.51428571428571435
40
0.54285714285714293
40
0.57142857142857151
40
0.60000000000000009
40
0.62857142857142867
40
0.65714285714285725
40
0.68571428571428583
40
0.71428571428571441
40
0.74285714285714299
40
0.77142857142857157
40
0.80000000000000016
40
0.82857142857142874
40
0.85714285714285732
40
0.8857142857142859
40
0.91428571428571448
40
0.94285714285714306
40
0.97142857142857164
40
1
40
1
40
1
40
1
40
1
40
1
41
1
41
1
41
1
41
1
41
1
41
1
41
1
41
1
41
1
41
1
41
1
41
1
41
1
41
1
41
1
41
1
41
1
41
1
41
1
41
1
41
1
41
1
41
1
41
1
41
1
41
1
41
1
41
1
41
1
41
1
41
1
41
1
41
1
41
1
41
1
41
1
41
1
41
1
41
1
41
1
10
-0.76503740900602102
20
-3.5988825668133262
30
0
10
-0.75561463557419706
20
-3.5454361302734738
30
0
10
-0.73758367490117427
20
-3.440637501122997
30
0
10
-0.71298105608250839
20
-3.2897221477532845
30
0
10
-0.68509270969348868
20
-3.1009857646631791
30
0
10
-0.65865239030706979
20
-2.8850457703856569
30
0
10
-0.64102591381783169
20
-2.6874484352434549
30
0
10
-0.63280830490176865
20
-2.5054870507971758
30
0
10
-0.63476593751853039
20
-2.3352656486493069
30
0
10
-0.64795816425000508
20
-2.1712434834862488
30
0
10
-0.67350077715998868
20
-2.0065479511936037
30
0
10
-0.71331975939836623
20
-1.8311793002671852
30
0
10
-0.7633864162901921
20
-1.6448815608851124
30
0
10
-0.81684392603142508
20
-1.4534026364445516
30
0
10
-0.86603911222033569
20
-1.2664739117529509
30
0
10
-0.90483547465917447
20
-1.0952606790864492
30
0
10
-0.93104017903306624
20
-0.94995244660051603
30
0
10
-0.94826911057535401
20
-0.83751165866516764
30
0
10
-0.96945704400009669
20
-0.7587598812764178
30
0
10
-1.0088134807495324
20
-0.71062779887733729
30
0
10
-1.0730709173974611
20
-0.68911522087411625
30
0
10
-1.1498618484670398
20
-0.69256248973004475
30
0
10
-1.2155857895716138
20
-0.72144998668878624
30
0
10
-1.2513495220435711
20
-0.77679350994763452
30
0
10
-1.2546079353394293
20
-0.8590765811453811
30
0
10
-1.232604167884096
20
-0.96770739770852143
30
0
10
-1.1970619585811144
20
-1.100523959611831
30
0
10
-1.1581071805656276
20
-1.2531999918041623
30
0
10
-1.1241768446399441
20
-1.419741900151279
30
0
10
-1.1023603516465925
20
-1.5930714032718329
30
0
10
-1.0985809776434081
20
-1.7655665870762605
30
0
10
-1.1178389622030176
20
-1.929621110861844
30
0
10
-1.1644146754578124
20
-2.0781813096343527
30
0
10
-1.2420977405547611
20
-2.205331457434029
30
0
10
-1.3541464185906855
20
-2.306294553449733
30
0
10
-1.5032210591065416
20
-2.3773868568700558
30
0
10
-1.6537000388743692
20
-2.408275644125593
30
0
10
-1.7846883317197859
20
-2.4161242363992934
30
0
10
-1.8801311267062069
20
-2.4144796190715838
30
0
10
-1.929881841372169
20
-2.4119380549856344
30
0
0
LINE
5
120
100
AcDbEntity
8
0
100
AcDbLine
10
-1.9298818413721692
20
-2.4119380549856344
30
0
11
-3.3557406488953827
21
-2.411938054985634
31
0
0
ARC
5
121
100
AcDbEntity
8
0
100
AcDbCircle
10
-3.3557406488953827
20
-2.0182372675840621
30
0
40
0.39370078740157194
210
0
220
0
230
1
100
AcDbArc
50
202.46553654292023
51
270
0
ARC
5
122
100
AcDbEntity
8
0
100
AcDbCircle
10
-4.62911994974018
20
-2.5447911144863551
30
0
40
0.98425196850393759
210
0
220
-0
230
1
100
AcDbArc
50
22.465536542920379
51
157.53446345707945
0
ARC
5
123
100
AcDbEntity
8
0
100
AcDbCircle
10
-5.9024992505849809
20
-2.0182372675840563
30
0
40
0.39370078740157616
210
0
220
0
230
1
100
AcDbArc
50
270.00000000000023
51
337.53446345707965
0
LINE
5
124
100
AcDbEntity
8
0
100
AcDbLine
10
-5.9024992505849792
20
-2.4119380549856326
30
0
11
-7.32835805810819
21
-2.4119380549856313
31
0
0
ENDSEC
0
SECTION
2
OBJECTS
0
DICTIONARY
5
C
100
AcDbDictionary
3
ACAD_GROUP
350
D
3
ACAD_MLINESTYLE
350
17
0
DICTIONARY
5
D
100
AcDbDictionary
0
DICTIONARY
5
1A
330
C
100
AcDbDictionary
0
DICTIONARY
5
17
100
AcDbDictionary
0
ENDSEC
0
EOF
